<svg width="433" height="231" viewBox="0 0 433 231" fill="none" xmlns="http://www.w3.org/2000/svg">
<path fill-rule="evenodd" clip-rule="evenodd" d="M114.277 16.0398H292.615C303.479 16.0398 312.285 24.8468 312.285 35.7098C312.285 46.5728 303.479 55.3808 292.615 55.3808H287.702C274.879 55.3808 264.484 65.7758 264.484 78.5998C264.484 91.4228 274.879 101.818 287.702 101.818H409.987C422.446 101.818 432.546 111.918 432.546 124.377C432.546 136.836 422.446 146.936 409.987 146.936H407.262C396.89 146.936 388.482 155.344 388.482 165.716V165.72C388.482 176.092 380.074 184.499 369.702 184.499H110.129C92.561 184.499 78.319 170.258 78.319 152.689V152.687C78.319 135.119 64.077 120.878 46.509 120.878H36.691C16.427 120.878 0.000976562 104.451 0.000976562 84.1868V84.1828C0.000976562 63.9188 16.427 47.4918 36.691 47.4918H82.824C91.509 47.4918 98.55 40.4518 98.55 31.7668C98.55 23.0808 105.591 16.0398 114.277 16.0398Z" fill="#4F545C" fill-opacity="0.3"/>
<path fill-rule="evenodd" clip-rule="evenodd" d="M135.6 61.2371C135.252 60.3541 135.055 59.3971 135.055 58.3931V56.8811C135.055 56.1141 134.509 55.4591 133.812 55.3881C133.415 55.3461 133.037 55.4731 132.742 55.7401C132.449 56.0051 132.282 56.3791 132.282 56.7671V61.9781C132.282 62.3131 132.245 62.6381 132.178 62.9541C131.726 65.0931 129.826 66.7061 127.554 66.7061C126.849 66.7061 126.185 66.5401 125.584 66.2621C123.961 65.5121 122.827 63.8801 122.827 61.9781V59.3971C122.827 58.5251 122.203 57.7791 121.406 57.6991C120.951 57.6511 120.519 57.7961 120.181 58.1011C119.847 58.4031 119.656 58.8321 119.656 59.2761V66.2331C119.656 67.4431 119.379 68.5871 118.898 69.6161C118.532 70.4011 118.044 71.1171 117.455 71.7401H133.44V68.2521C133.44 65.7801 134.346 63.5201 135.837 61.7721C135.752 61.5971 135.672 61.4201 135.6 61.2371ZM101.447 62.9138C101.058 62.4728 100.583 62.2288 99.9875 62.1958C98.9765 62.1418 97.7035 62.7048 96.8465 63.6078C95.2145 65.3288 93.7815 68.4658 93.5865 70.7488C93.5565 71.0898 93.5735 71.4188 93.6135 71.7398H101.447V62.9138Z" fill="#36393F"/>
<path fill-rule="evenodd" clip-rule="evenodd" d="M87.4467 67.242C87.9987 67.242 88.4467 67.689 88.4467 68.242V71.74H91.5957C91.5627 71.359 91.5597 70.97 91.5937 70.577C91.8307 67.814 93.4297 64.304 95.3957 62.231C96.6547 60.905 98.5017 60.108 100.101 60.199C100.583 60.226 101.027 60.35 101.447 60.524V58.558C101.447 58.283 101.223 58.058 100.947 58.058H88.3957C88.4287 58.22 88.4467 58.388 88.4467 58.558V61.448C88.4467 62.001 87.9987 62.448 87.4467 62.448V67.242ZM53.8373 71.6394C53.8353 70.9164 54.1753 70.2104 54.8513 69.5404C54.9423 69.4514 55.0433 69.3554 55.1493 69.2554C55.5513 68.8784 56.1583 68.3094 56.0183 68.0354C55.9623 67.9294 55.4933 67.7944 54.8943 67.8894C52.6823 68.2564 50.1983 70.0824 48.7433 71.5354C48.6553 71.6234 48.5533 71.6844 48.4463 71.7334V71.7404H53.8493C53.8473 71.7054 53.8373 71.6734 53.8373 71.6394ZM58.6083 61.617C62.4853 60.863 66.4023 59.473 70.1903 58.131C70.2573 58.106 70.3283 58.083 70.3963 58.058H63.9463H59.4923C59.3853 58.159 59.2603 58.242 59.1113 58.288C58.7613 58.395 55.7093 59.386 56.0563 61.086C56.2313 61.947 57.7303 61.789 58.6083 61.617Z" fill="#4F545C"/>
<path fill-rule="evenodd" clip-rule="evenodd" d="M72.5433 65.198C72.6573 65.038 72.7863 64.884 72.9243 64.734C73.6283 63.979 77.1983 61.302 79.4953 62.074C80.0383 62.258 80.9723 62.802 81.1253 64.377C81.3323 66.508 79.0353 68.927 76.7613 69.848C76.1063 70.113 75.4803 70.244 74.9023 70.244C73.9023 70.244 73.0453 69.853 72.4353 69.089C71.5993 68.04 71.6443 66.44 72.5433 65.198ZM54.5673 65.917C55.7273 65.721 57.1873 65.939 57.7953 67.119C58.6283 68.735 57.2553 70.022 56.5183 70.715L56.2603 70.961C55.8783 71.34 55.8373 71.556 55.8373 71.632C55.8373 71.665 55.8563 71.703 55.8713 71.74H58.0373C58.4473 71.473 58.9103 71.116 59.4573 70.658C59.7363 70.423 60.0003 70.203 60.2413 70.02C61.4133 69.136 63.2363 68.495 64.6683 69.05C65.6023 69.412 66.2323 70.235 66.4423 71.366C66.4653 71.493 66.4763 71.616 66.4873 71.74H86.4473V68.242C86.4473 67.689 86.8953 67.242 87.4473 67.242V62.448C86.8953 62.448 86.4473 62.001 86.4473 61.448V58.558C86.4473 58.283 86.2233 58.058 85.9473 58.058H76.5093C76.4683 58.078 76.4363 58.11 76.3913 58.124C74.5613 58.703 72.6793 59.37 70.8593 60.015C67.0023 61.384 63.0143 62.798 58.9903 63.58C58.3883 63.697 57.8583 63.749 57.3933 63.749C54.8683 63.749 54.2483 62.23 54.0963 61.486C53.8113 60.09 54.3963 58.942 55.3803 58.058H48.9473C48.6713 58.058 48.4473 58.283 48.4473 58.558V69.108C50.1533 67.667 52.4023 66.275 54.5673 65.917Z" fill="#36393F"/>
<path fill-rule="evenodd" clip-rule="evenodd" d="M63.9439 70.9138C63.3639 70.6888 62.2669 70.9978 61.4449 71.6178C61.3989 71.6528 61.3429 71.7018 61.2959 71.7398H64.4769C64.4759 71.7368 64.4769 71.7338 64.4759 71.7308C64.3539 71.0728 64.0559 70.9568 63.9439 70.9138ZM76.0098 67.9949C77.7698 67.2809 79.2238 65.4849 79.1348 64.5699C79.0838 64.0469 78.9178 63.9899 78.8548 63.9689C78.7648 63.9379 78.6608 63.9249 78.5458 63.9249C77.4028 63.9249 75.1198 65.3109 74.3888 66.0979C74.3888 66.0979 74.3878 66.0979 74.3878 66.0989C74.3078 66.1829 74.2338 66.2719 74.1668 66.3659C73.8128 66.8549 73.7388 67.5149 73.9988 67.8419C74.4818 68.4449 75.3588 68.2569 76.0098 67.9949Z" fill="#4F545C"/>
<path fill-rule="evenodd" clip-rule="evenodd" d="M130.295 91.8308C130.295 92.3838 129.847 92.8308 129.295 92.8308H32.3076L47.1446 144.76C47.5126 146.048 48.6896 146.935 50.0286 146.935H56.6626C57.1116 134.095 67.6916 123.785 80.6406 123.785C93.5886 123.785 104.17 134.095 104.62 146.935H119.945C118.548 145.335 117.651 143.305 117.484 141.106C117.262 138.185 118.322 135.321 120.394 133.25C122.971 130.672 126.769 129.658 130.394 130.738C133.718 131.727 136.228 134.475 137.199 137.804L139.863 146.935H144.992V129.985C144.992 123.541 148.219 117.842 153.141 114.406C154.414 113.518 154.261 111.642 152.875 110.943C146.665 107.819 142.392 101.398 142.392 93.9848V92.5958C141.368 92.4878 140.391 92.2238 139.482 91.8308H130.295Z" fill="#36393F"/>
<path fill-rule="evenodd" clip-rule="evenodd" d="M78.0086 137.619C78.5456 137.475 79.0896 137.802 79.2266 138.337C79.2326 138.358 79.2266 138.38 79.2306 138.401C79.6916 138.333 80.1606 138.285 80.6416 138.285C81.9416 138.285 83.1796 138.548 84.3076 139.02C84.3156 139.004 84.3146 138.985 84.3236 138.969C84.5896 138.484 85.1976 138.305 85.6816 138.572C89.0496 140.418 91.1416 143.947 91.1416 147.785C91.1416 153.575 86.4306 158.285 80.6416 158.285C74.8516 158.285 70.1416 153.575 70.1416 147.785C70.1416 142.995 73.3766 138.814 78.0086 137.619ZM67.9756 141.811C67.0906 143.686 66.6416 145.696 66.6416 147.785C66.6416 155.505 72.9216 161.785 80.6416 161.785C88.3616 161.785 94.6416 155.505 94.6416 147.785C94.6416 140.065 88.3616 133.785 80.6416 133.785C78.8216 133.785 77.0516 134.129 75.3796 134.807C74.8846 135.008 74.3296 134.778 74.1056 134.3C73.0226 134.826 72.0046 135.464 71.0866 136.223C71.4416 136.625 71.4216 137.236 71.0286 137.607C70.5056 138.101 70.0156 138.641 69.5736 139.211C69.3766 139.465 69.0816 139.598 68.7826 139.598C68.5796 139.598 68.3766 139.531 68.1996 139.403C67.9606 139.759 67.7406 140.129 67.5306 140.505C68.0036 140.753 68.2056 141.325 67.9756 141.811Z" fill="#4F545C"/>
<path fill-rule="evenodd" clip-rule="evenodd" d="M78.5086 139.555C74.7596 140.523 72.1416 143.908 72.1416 147.785C72.1416 152.472 75.9546 156.285 80.6416 156.285C85.3286 156.285 89.1416 152.472 89.1416 147.785C89.1416 144.679 87.4476 141.821 84.7206 140.326C84.2526 140.07 84.0806 139.496 84.3076 139.021C83.1796 138.548 81.9416 138.285 80.6416 138.285C80.1606 138.285 79.6916 138.333 79.2306 138.402C79.3276 138.915 79.0216 139.423 78.5086 139.555Z" fill="#36393F"/>
<path fill-rule="evenodd" clip-rule="evenodd" d="M322.711 160.005V169.285C322.711 169.456 322.693 169.624 322.66 169.785H335.211C335.487 169.785 335.711 169.561 335.711 169.285V142.425C334.957 141.271 333.657 140.539 332.292 140.606C330.123 140.645 328.358 142.442 328.358 144.61V147.635C328.358 151.558 325.47 154.81 321.711 155.401V159.005C322.263 159.005 322.711 159.452 322.711 160.005Z" fill="#4F545C"/>
<path fill-rule="evenodd" clip-rule="evenodd" d="M320.711 169.285V160.005C320.711 159.452 321.159 159.005 321.711 159.005V155.4C321.312 155.463 320.905 155.505 320.488 155.505C316.139 155.505 312.608 151.974 312.608 147.635V144.314C312.608 142.318 310.984 140.694 308.988 140.694C306.982 140.694 305.358 142.318 305.358 144.314V147.165C305.358 150.815 302.389 153.785 298.738 153.785C295.078 153.785 292.108 150.815 292.108 147.165C292.108 143.153 288.844 139.889 284.833 139.889H283.987C283.551 139.889 283.126 139.934 282.711 140.009V169.285C282.711 169.56 282.935 169.785 283.211 169.785H298.211H320.211C320.487 169.785 320.711 169.56 320.711 169.285Z" fill="#36393F"/>
<path fill-rule="evenodd" clip-rule="evenodd" d="M103.496 176.93H109.44C110.442 172.677 112.564 167.595 116.962 162.796C112.545 165.151 106.495 169.557 103.496 176.93Z" fill="#4F545C"/>
<path fill-rule="evenodd" clip-rule="evenodd" d="M89.5156 185.82C89.5156 186.608 90.1566 187.249 90.9436 187.249H93.5856V184.606V180.75H90.9436C90.1566 180.75 89.5156 181.39 89.5156 182.178V185.82Z" fill="#36393F"/>
<path fill-rule="evenodd" clip-rule="evenodd" d="M108.66 191.004H101.667C102.029 207.804 111.454 216.782 117.427 220.798C108.158 208.613 108.364 194.999 108.66 191.004Z" fill="#4F545C"/>
<path fill-rule="evenodd" clip-rule="evenodd" d="M248.531 152.785V157.585C248.531 158.357 249.159 158.985 249.931 158.985H260.731C264.26 158.985 267.131 161.856 267.131 165.385C267.131 167.09 266.457 168.637 265.366 169.785H280.211C280.487 169.785 280.711 169.56 280.711 169.285V140.678C278.342 141.879 276.711 144.332 276.711 147.165V152.155C276.711 155.81 273.737 158.785 270.081 158.785C266.421 158.785 263.447 155.812 263.447 152.158V142.954C263.447 142.641 263.325 142.347 263.105 142.128C262.884 141.906 262.59 141.785 262.278 141.785C261.633 141.785 261.109 142.309 261.109 142.953V146.033C261.109 149.476 258.307 152.28 254.863 152.282H254.705H254.701C253.074 152.282 251.545 151.649 250.394 150.499C249.242 149.347 248.608 147.817 248.608 146.188V145.402C248.608 143.672 247.934 142.044 246.71 140.82C245.625 139.734 244.221 139.084 242.711 138.95V141.958C246.215 144.289 248.531 148.27 248.531 152.785Z" fill="#36393F"/>
<path fill-rule="evenodd" clip-rule="evenodd" d="M246.931 136.985H243.118C245.011 137.205 246.76 138.041 248.125 139.406C249.726 141.007 250.608 143.137 250.608 145.402V146.188C250.608 147.282 251.034 148.31 251.808 149.084C252.581 149.856 253.609 150.282 254.702 150.282H254.705H254.863C257.203 150.28 259.109 148.375 259.109 146.033V142.953C259.109 141.206 260.53 139.785 262.278 139.785C263.124 139.785 263.92 140.114 264.519 140.713C265.118 141.311 265.447 142.107 265.447 142.954V152.158C265.447 154.71 267.524 156.785 270.077 156.785C272.634 156.785 274.711 154.708 274.711 152.155V147.165C274.711 143.205 277.211 139.826 280.711 138.498V132.285C280.711 132.009 280.487 131.785 280.211 131.785H253.214C252.65 134.742 250.049 136.985 246.931 136.985ZM165.544 43.1853H161.392C152.672 43.1853 145.474 49.7863 144.51 58.2513H153.5C154.258 51.2453 159.082 45.4253 165.544 43.1853ZM153.392 93.9851V92.6511H144.392V93.9851C144.392 103.359 152.018 110.985 161.392 110.985H163.992H165.546C158.496 108.542 153.392 101.839 153.392 93.9851Z" fill="#4F545C"/>
<path fill-rule="evenodd" clip-rule="evenodd" d="M165.545 110.985H168.483H175.891H192.204V87.2851C192.204 85.9061 193.325 84.7851 194.704 84.7851H196.266C195.829 83.1881 195.576 81.5171 195.576 79.7851V71.9851C195.576 67.4641 199.255 63.7851 203.776 63.7851H214.576C215.128 63.7851 215.576 64.2321 215.576 64.7851H225.13C225.13 64.2321 225.578 63.7851 226.13 63.7851H243.083V60.1851C243.083 50.8111 235.457 43.1851 226.083 43.1851H165.544C159.082 45.4251 154.257 51.2451 153.5 58.2521H158.04C158.592 58.2521 159.04 58.6991 159.04 59.2521C159.04 59.8041 158.592 60.2521 158.04 60.2521H143.44C139.029 60.2521 135.44 63.8401 135.44 68.2521V82.6511C135.44 87.0621 139.029 90.6511 143.44 90.6511H158.04C158.592 90.6511 159.04 91.0981 159.04 91.6511C159.04 92.2041 158.592 92.6511 158.04 92.6511H153.391V93.9851C153.391 101.839 158.496 108.542 165.545 110.985Z" fill="#72767D"/>
<path fill-rule="evenodd" clip-rule="evenodd" d="M204.977 71.9852C204.977 69.3502 206.416 67.0402 208.543 65.7852H203.777C200.358 65.7852 197.577 68.5662 197.577 71.9852V79.7852C197.577 81.5242 197.842 83.2032 198.33 84.7852H205.703C205.239 83.1942 204.977 81.5202 204.977 79.7852V71.9852Z" fill="#72767D"/>
<path fill-rule="evenodd" clip-rule="evenodd" d="M147.44 64.2517C144.679 64.2517 142.44 66.4897 142.44 69.2517V81.6507C142.44 84.4127 144.679 86.6507 147.44 86.6507H154.04C155.145 86.6507 156.04 85.7567 156.04 84.6507V66.2517C156.04 65.1477 155.145 64.2517 154.04 64.2517H147.44Z" fill="#4F545C"/>
<path fill-rule="evenodd" clip-rule="evenodd" d="M214.577 65.7849H208.543C206.416 67.0399 204.977 69.3499 204.977 71.9849V79.7849C204.977 81.5199 205.239 83.1939 205.702 84.7849H224.704H231.704H246.704C246.714 84.7849 246.723 84.7879 246.733 84.7879C246.739 84.7879 246.743 84.7849 246.748 84.7849C247.987 84.7849 249.011 85.6929 249.206 86.8779C250.204 84.7159 250.777 82.3179 250.777 79.7849V71.9849C250.777 68.5659 247.996 65.7849 244.577 65.7849H226.131C225.579 65.7849 225.131 65.3379 225.131 64.7849H215.577C215.577 65.3379 215.129 65.7849 214.577 65.7849Z" fill="#B9BBBE"/>
<path fill-rule="evenodd" clip-rule="evenodd" d="M265.131 165.385C265.131 162.958 263.157 160.985 260.731 160.985H249.931C248.056 160.985 246.531 159.459 246.531 157.584V152.784C246.531 148.828 244.425 145.364 241.283 143.426V152.784C241.283 160.23 236.968 166.67 230.717 169.784H240.211H243.211H260.731C263.157 169.784 265.131 167.811 265.131 165.385ZM248.094 126.361C247.697 126.629 247.219 126.785 246.704 126.785H237.251C238.719 129.367 239.809 132.117 240.475 134.985H246.931C249.357 134.985 251.331 133.011 251.331 130.585C251.331 128.564 249.954 126.875 248.094 126.361Z" fill="#4F545C"/>
<path fill-rule="evenodd" clip-rule="evenodd" d="M182.62 112.985C186.024 115.196 188.287 119.022 188.291 123.372C188.292 124.151 188.92 124.785 189.691 124.785H192.254C192.222 124.624 192.204 124.456 192.204 124.285V112.985H182.62ZM222.283 169.785C231.657 169.785 239.283 162.159 239.283 152.785V141.985C239.283 136.566 237.792 131.356 234.951 126.785H231.704H224.704H210.46C211.364 127.701 212.008 128.861 212.213 130.177C212.503 132.035 211.97 133.917 210.752 135.339C209.53 136.766 207.759 137.585 205.892 137.585H175.583C174.977 137.585 174.483 138.079 174.483 138.685C174.483 139.292 174.977 139.785 175.583 139.785H177.876C185.045 139.785 190.876 145.617 190.876 152.785V157.585C190.876 158.357 191.504 158.985 192.276 158.985H207.276C210.805 158.985 213.677 161.856 213.677 165.385C213.677 167.09 213.002 168.637 211.912 169.785H216.975H222.283ZM138.692 151.548C138.793 151.447 139.014 151.169 138.894 150.759L135.2 138.096C134.269 134.902 131.415 132.587 128.097 132.334C127.893 132.319 127.689 132.311 127.485 132.311C125.363 132.311 123.321 133.151 121.808 134.664C120.149 136.322 119.3 138.615 119.478 140.954C119.73 144.272 122.045 147.126 125.239 148.058L137.902 151.751C138.312 151.87 138.591 151.65 138.692 151.548Z" fill="#72767D"/>
<path fill-rule="evenodd" clip-rule="evenodd" d="M211.676 165.385C211.676 162.958 209.702 160.985 207.276 160.985H192.276C190.401 160.985 188.876 159.459 188.876 157.584V152.784C188.876 146.719 183.941 141.784 177.876 141.784H175.583C173.873 141.784 172.483 140.394 172.483 138.685C172.483 136.975 173.873 135.584 175.583 135.584H205.891C207.173 135.584 208.391 135.021 209.233 134.037C210.082 133.045 210.439 131.783 210.236 130.485C209.908 128.375 207.969 126.784 205.728 126.784H194.704H189.691C187.819 126.784 186.293 125.254 186.291 123.373C186.285 117.645 181.62 112.985 175.891 112.985H168.483H163.991C154.617 112.985 146.991 120.611 146.991 129.985V152.784C146.991 160.559 152.264 167.334 159.813 169.26C159.873 169.275 159.93 169.295 159.986 169.322C160.651 169.628 161.354 169.784 162.076 169.784H163.211H168.483H200.211H203.211H207.276C209.702 169.784 211.676 167.811 211.676 165.385ZM245.472 106.849C245.416 106.841 245.37 106.813 245.316 106.8L241.594 110.43C241.399 110.62 241.147 110.714 240.895 110.714C240.635 110.714 240.375 110.614 240.18 110.412C239.794 110.017 239.802 109.384 240.197 108.998L243.162 106.108C243.079 105.892 243.018 105.668 242.993 105.437C242.737 103.14 243.298 100.888 244.543 99.0124C244.521 98.9954 244.495 98.9834 244.474 98.9634C243.722 98.2854 243.308 97.2364 243.308 96.0104C243.308 93.5634 241.317 91.5724 238.869 91.5724C236.421 91.5724 234.43 93.5634 234.43 96.0104V96.2124C234.43 96.8794 234.347 97.5274 234.204 98.1524V112.785C234.204 113.337 233.756 113.785 233.204 113.785V117.477C233.756 117.477 234.204 117.924 234.204 118.477V124.285C234.204 124.455 234.186 124.623 234.153 124.785H246.704C246.98 124.785 247.204 124.56 247.204 124.285V107.946C247.204 107.393 247.652 106.946 248.204 106.946V106.783C247.328 106.94 246.413 106.977 245.472 106.849Z" fill="#4F545C"/>
<path fill-rule="evenodd" clip-rule="evenodd" d="M233.204 113.785C232.652 113.785 232.204 113.338 232.204 112.785V102.003C230.61 103.782 228.304 104.91 225.733 104.91C221.437 104.91 217.942 101.416 217.942 97.1199V95.6059C217.942 94.8409 217.396 94.1849 216.7 94.1149C216.304 94.0749 215.924 94.1999 215.629 94.4669C215.336 94.7299 215.169 95.1049 215.169 95.4939V100.704C215.169 103.311 213.048 105.432 210.441 105.432C207.834 105.432 205.714 103.311 205.714 100.704V98.1239C205.714 97.2519 205.09 96.5059 204.293 96.4259C203.842 96.3759 203.406 96.5209 203.069 96.8269C202.735 97.1289 202.543 97.5559 202.543 98.0019V104.959C202.543 109.389 198.939 112.993 194.509 112.993C194.4 112.993 194.302 112.964 194.204 112.931V124.285C194.204 124.56 194.428 124.785 194.704 124.785H205.728H224.704H231.704C231.98 124.785 232.204 124.56 232.204 124.285V118.477C232.204 117.925 232.652 117.477 233.204 117.477V113.785Z" fill="#36393F"/>
<path fill-rule="evenodd" clip-rule="evenodd" d="M232.204 97.907V87.285C232.204 87.01 231.98 86.785 231.704 86.785H224.704H194.704C194.428 86.785 194.204 87.01 194.204 87.285V111.054C194.302 111.022 194.4 110.993 194.509 110.993C197.836 110.993 200.543 108.286 200.543 104.959V98.002C200.543 96.992 200.975 96.023 201.728 95.343C202.479 94.664 203.487 94.335 204.495 94.435C206.299 94.617 207.714 96.237 207.714 98.124V100.704C207.714 102.209 208.937 103.432 210.441 103.432C211.945 103.432 213.169 102.209 213.169 100.704V95.494C213.169 94.541 213.577 93.626 214.287 92.983C214.997 92.342 215.948 92.024 216.901 92.125C218.606 92.297 219.942 93.826 219.942 95.606V97.12C219.942 100.312 222.54 102.91 225.733 102.91C228.839 102.91 231.451 100.781 232.204 97.907Z" fill="#4F545C"/>
<path fill-rule="evenodd" clip-rule="evenodd" d="M247.247 96.3035V93.2745C247.231 93.2025 247.204 93.1355 247.204 93.0595V87.2845C247.204 87.0095 246.979 86.7845 246.704 86.7845H234.153C234.186 86.9465 234.204 87.1145 234.204 87.2845V91.5845C235.377 90.3485 237.032 89.5725 238.869 89.5725C242.419 89.5725 245.308 92.4605 245.308 96.0105C245.308 96.6485 245.49 97.1795 245.807 97.4715C245.828 97.4505 245.844 97.4285 245.864 97.4085C246.293 96.9905 246.761 96.6305 247.247 96.3035Z" fill="#72767D"/>
<path fill-rule="evenodd" clip-rule="evenodd" d="M251.569 104.161C253.578 102.494 254.606 99.9529 254.319 97.3639C254.281 97.0309 254.024 96.7659 253.692 96.7219C251.32 96.3949 248.976 97.1699 247.262 98.8409C245.749 100.316 244.927 102.299 244.935 104.38L248.635 100.771C249.03 100.387 249.664 100.392 250.049 100.789C250.435 101.184 250.427 101.817 250.032 102.203L245.317 106.801C245.371 106.813 245.417 106.842 245.473 106.849C246.414 106.977 247.329 106.94 248.205 106.783C249.366 106.573 250.449 106.136 251.405 105.51C251.101 105.087 251.162 104.499 251.569 104.161Z" fill="#4F545C"/>
<path fill-rule="evenodd" clip-rule="evenodd" d="M391.302 159.508C394.827 157.781 398.643 154.968 398.713 152.205C398.742 151.035 398.515 150.201 398.038 149.726C397.671 149.36 397.108 149.175 396.363 149.175C396.319 149.175 396.274 149.175 396.228 149.177H396.227C394.779 149.218 392.956 149.919 391.302 150.835V159.508Z" fill="#72767D"/>
<path fill-rule="evenodd" clip-rule="evenodd" d="M394.841 142.097C393.966 142.343 392.742 142.882 391.302 143.576V148.573C392.934 147.78 394.658 147.219 396.17 147.176C397.556 147.13 398.656 147.518 399.45 148.308C400.331 149.186 400.756 150.514 400.712 152.255C400.589 157.13 393.558 160.694 391.406 161.67C391.37 161.687 391.338 161.697 391.302 161.712V168.561C391.303 168.561 391.305 168.56 391.307 168.56C395.457 169.008 402.158 166.563 404.302 163.043V142.062C401.545 140.698 397.682 141.299 394.841 142.097Z" fill="#4F545C"/>
<path fill-rule="evenodd" clip-rule="evenodd" d="M403.801 169.585C404.077 169.585 404.301 169.36 404.301 169.085V166.121C402.668 167.616 400.458 168.807 398.149 169.585H403.801ZM391.301 132.085V141.364C392.47 140.822 393.49 140.399 394.299 140.172C398.316 139.044 401.722 138.962 404.301 139.887V132.085C404.301 131.81 404.077 131.585 403.801 131.585H391.25C391.283 131.747 391.301 131.914 391.301 132.085Z" fill="#72767D"/>
<path fill-rule="evenodd" clip-rule="evenodd" d="M351.801 169.585H366.801H376.177C376.152 168.616 376.254 167.417 376.38 166.047C376.656 163.022 377.036 158.877 375.578 157.871C374.719 157.278 373.097 157.858 371.888 158.449C370.161 159.293 368.719 161.093 367.193 162.998C365.351 165.297 363.447 167.674 360.687 168.927C360.384 169.065 360.032 169.042 359.749 168.868C359.466 168.693 359.288 168.39 359.275 168.057C359.24 167.215 359.564 166.231 359.907 165.189C360.216 164.253 360.731 162.688 360.418 162.305C360.392 162.273 360.136 162.007 358.914 162.148C358.163 162.235 357.436 163.161 356.667 164.141C355.532 165.586 353.886 167.677 351.301 166.899V169.085C351.301 169.36 351.525 169.585 351.801 169.585ZM356.153 152.162C356.451 148.089 354.683 143.233 351.301 141.808V158.53C355.394 158.046 356.051 153.55 356.153 152.162ZM373.878 131.788C369.524 135.828 363.668 143.804 366.492 148.007C369.415 152.356 380.08 146.974 387.137 143.413C387.887 143.034 388.61 142.67 389.301 142.328V132.085C389.301 131.809 389.077 131.585 388.801 131.585H374.024C373.979 131.655 373.941 131.728 373.878 131.788ZM387.202 154.033C385.237 156.717 384.995 159.172 385.765 160.12C386.337 160.823 387.622 160.886 389.301 160.341V152.101C388.373 152.775 387.621 153.461 387.202 154.033ZM311.772 86.1052L309.098 81.6832C308.812 81.2102 308.963 80.5952 309.436 80.3102C309.908 80.0242 310.523 80.1752 310.809 80.6482L313.555 85.1892C314.162 83.1182 313.889 80.9112 312.759 79.0432C311.521 76.9952 309.446 75.6582 307.069 75.3762C307.04 75.3722 307.011 75.3712 306.982 75.3712C306.682 75.3712 306.409 75.5542 306.3 75.8402C305.446 78.0772 305.667 80.5352 306.906 82.5842C307.999 84.3912 309.744 85.6412 311.772 86.1052ZM358.35 121.651C358.265 121.588 358.183 121.521 358.107 121.449L354.467 123.278C354.323 123.35 354.17 123.384 354.019 123.384C353.653 123.384 353.3 123.183 353.124 122.834C352.876 122.339 353.076 121.739 353.569 121.491L357.271 119.63C357.258 119.403 357.264 119.172 357.31 118.94C357.51 117.936 357.87 116.994 358.35 116.126V100.047C358.334 99.9771 358.307 99.9121 358.307 99.8381C358.298 98.3751 357.1 97.1841 355.638 97.1841C354.923 97.1841 354.251 97.4641 353.746 97.9701C353.242 98.4781 352.966 99.1511 352.969 99.8661L353.018 110.033C353.018 114.659 349.717 118.522 345.35 119.399V129.285C345.35 129.456 345.332 129.624 345.299 129.785H357.85C358.126 129.785 358.35 129.56 358.35 129.285V121.651Z" fill="#4F545C"/>
<path fill-rule="evenodd" clip-rule="evenodd" d="M320.211 129.785H335.211H336.712H342.85C343.126 129.785 343.35 129.56 343.35 129.285V119.582C338.135 119.517 333.914 115.264 333.914 110.038V97.6669C333.914 96.6579 333.093 95.8369 332.084 95.8369C331.068 95.8369 330.248 96.6579 330.248 97.6669V101.436C330.248 104.717 327.579 107.385 324.299 107.385C321.019 107.385 318.35 104.717 318.35 101.436V99.4679C318.35 98.9819 317.956 98.5879 317.47 98.5879C316.976 98.5879 316.581 98.9819 316.581 99.4679V109.785C316.581 111.807 314.936 113.452 312.914 113.452C310.893 113.452 309.248 111.807 309.248 109.785V102.734C309.248 101.659 308.374 100.785 307.299 100.785C306.224 100.785 305.35 101.659 305.35 102.734V106.385V129.285C305.35 129.56 305.574 129.785 305.85 129.785H320.211Z" fill="#36393F"/>
<path fill-rule="evenodd" clip-rule="evenodd" d="M305.351 92.2849V99.3199C305.928 98.9889 306.588 98.7849 307.3 98.7849C309.477 98.7849 311.248 100.556 311.248 102.734V109.785C311.248 110.704 311.996 111.452 312.915 111.452C313.834 111.452 314.582 110.704 314.582 109.785V99.4679C314.582 97.8799 315.874 96.5879 317.462 96.5879C319.059 96.5879 320.351 97.8799 320.351 99.4679V101.436C320.351 103.613 322.122 105.385 324.3 105.385C326.477 105.385 328.248 103.613 328.248 101.436V97.6669C328.248 95.5549 329.967 93.8369 332.079 93.8369C334.197 93.8369 335.915 95.5549 335.915 97.6669V110.038C335.915 114.163 339.241 117.52 343.351 117.582V105.785C343.351 105.232 343.799 104.785 344.351 104.785C344.903 104.785 345.351 105.232 345.351 105.785V117.341C348.606 116.5 351.019 113.55 351.019 110.038L350.97 99.8759C350.964 98.6249 351.447 97.4469 352.33 96.5589C353.213 95.6729 354.388 95.1839 355.639 95.1839C356.651 95.1839 357.584 95.5189 358.351 96.0719V92.2849C358.351 92.0099 358.127 91.7849 357.851 91.7849H345.3C345.333 91.9459 345.351 92.1139 345.351 92.2849V99.9719C345.351 100.525 344.903 100.973 344.351 100.973C343.799 100.973 343.351 100.525 343.351 99.9719V92.2849C343.351 92.0099 343.127 91.7849 342.851 91.7849H305.851C305.575 91.7849 305.351 92.0099 305.351 92.2849Z" fill="#4F545C"/>
<path fill-rule="evenodd" clip-rule="evenodd" d="M359.481 118.52L364.099 116.2C364.591 115.952 365.193 116.15 365.441 116.644C365.689 117.138 365.49 117.739 364.997 117.987L360.255 120.37C362.273 121.135 364.495 121.037 366.444 120.057C368.584 118.982 370.078 117.019 370.545 114.67C370.611 114.341 370.445 114.011 370.143 113.868C367.979 112.842 365.513 112.87 363.373 113.945C361.485 114.893 360.102 116.535 359.481 118.52Z" fill="#72767D"/>
<path fill-rule="evenodd" clip-rule="evenodd" d="M182.776 79.4519C185.251 79.4519 187.276 77.4269 187.276 74.9519C187.276 72.4769 185.251 70.4519 182.776 70.4519C180.301 70.4519 178.276 72.4759 178.276 74.9509C178.276 77.4259 180.301 79.4519 182.776 79.4519ZM74.1665 66.366C74.2335 66.272 74.3085 66.183 74.3875 66.098C74.3885 66.097 74.3885 66.097 74.3885 66.097C75.1195 65.311 77.4025 63.925 78.5455 63.925C78.6615 63.925 78.7655 63.938 78.8545 63.969C78.9175 63.99 79.0835 64.047 79.1355 64.57C79.2235 65.485 77.7705 67.281 76.0095 67.995C75.3585 68.257 74.4815 68.445 73.9995 67.842C73.7385 67.514 73.8125 66.855 74.1665 66.366ZM74.9025 70.244C75.4805 70.244 76.1065 70.113 76.7615 69.848C79.0355 68.927 81.3325 66.508 81.1255 64.377C80.9725 62.802 80.0385 62.258 79.4955 62.074C77.1985 61.303 73.6285 63.979 72.9245 64.734C72.7865 64.884 72.6575 65.038 72.5435 65.198C71.6445 66.44 71.5995 68.04 72.4355 69.089C73.0455 69.853 73.9025 70.244 74.9025 70.244ZM80.6416 131.785C78.5636 131.785 76.5396 132.179 74.6276 132.954C74.1156 133.162 73.8696 133.745 74.0766 134.257C74.0836 134.273 74.0976 134.284 74.1056 134.3C74.3296 134.778 74.8846 135.008 75.3796 134.807C77.0516 134.129 78.8226 133.785 80.6416 133.785C88.3616 133.785 94.6416 140.065 94.6416 147.785C94.6416 155.505 88.3616 161.785 80.6416 161.785C72.9216 161.785 66.6416 155.505 66.6416 147.785C66.6416 145.696 67.0906 143.686 67.9756 141.811C68.2056 141.325 68.0036 140.753 67.5316 140.505C67.5186 140.498 67.5116 140.486 67.4986 140.48C66.9996 140.245 66.4036 140.459 66.1676 140.958C65.1546 143.101 64.6416 145.398 64.6416 147.785C64.6416 156.607 71.8196 163.785 80.6416 163.785C89.4636 163.785 96.6416 156.607 96.6416 147.785C96.6416 138.963 89.4636 131.785 80.6416 131.785Z" fill="#202225"/>
<path fill-rule="evenodd" clip-rule="evenodd" d="M68.1999 139.403C68.3759 139.531 68.5789 139.597 68.7829 139.597C69.0809 139.597 69.3759 139.465 69.5739 139.211C70.0149 138.641 70.5049 138.101 71.0279 137.607C71.4209 137.236 71.4409 136.625 71.0859 136.222C71.0789 136.214 71.0759 136.203 71.0689 136.194C70.6889 135.793 70.0559 135.775 69.6549 136.154C69.0569 136.717 68.4979 137.334 67.9929 137.984C67.6549 138.421 67.7339 139.049 68.1699 139.387C68.1789 139.394 68.1909 139.397 68.1999 139.403ZM78.5085 139.555C79.0215 139.423 79.3275 138.915 79.2305 138.402C79.2265 138.38 79.2325 138.359 79.2265 138.337C79.0895 137.802 78.5455 137.476 78.0085 137.619C73.3765 138.815 70.1415 142.995 70.1415 147.785C70.1415 153.576 74.8515 158.285 80.6415 158.285C86.4305 158.285 91.1415 153.576 91.1415 147.785C91.1415 143.948 89.0495 140.418 85.6815 138.573C85.1975 138.305 84.5895 138.485 84.3235 138.969C84.3145 138.986 84.3155 139.004 84.3075 139.021C84.0805 139.496 84.2525 140.07 84.7205 140.326C87.4475 141.821 89.1415 144.679 89.1415 147.785C89.1415 152.472 85.3285 156.285 80.6415 156.285C75.9545 156.285 72.1415 152.472 72.1415 147.785C72.1415 143.908 74.7595 140.523 78.5085 139.555Z" fill="#202225"/>
<path fill-rule="evenodd" clip-rule="evenodd" d="M404.302 139.887C401.723 138.962 398.316 139.044 394.299 140.172C393.49 140.4 392.471 140.823 391.302 141.365V135.585C391.302 133.376 393.093 131.585 395.302 131.585H400.302C402.511 131.585 404.302 133.376 404.302 135.585V139.887ZM404.302 160.13C404.302 162.582 403.031 164.872 400.924 166.125C397.993 167.867 394.08 168.861 391.307 168.561C391.305 168.561 391.303 168.562 391.302 168.562V161.713C391.338 161.698 391.37 161.688 391.406 161.671C393.558 160.695 400.589 157.131 400.712 152.256C400.756 150.515 400.331 149.187 399.45 148.309C398.656 147.519 397.557 147.131 396.171 147.177C394.659 147.22 392.934 147.781 391.302 148.574V143.577C392.742 142.883 393.967 142.344 394.841 142.098C395.611 141.882 396.455 141.68 397.333 141.528C400.978 140.896 404.302 143.752 404.302 147.452V160.13ZM404.302 167.585C404.302 168.69 403.406 169.585 402.302 169.585H398.15C400.459 168.807 402.669 167.616 404.302 166.121V167.585ZM389.302 142.328C388.612 142.67 387.888 143.034 387.138 143.413C380.081 146.974 369.416 152.357 366.493 148.007C364.185 144.572 368.083 138.285 371.961 133.898C373.255 132.434 375.103 131.585 377.057 131.585H388.302C388.854 131.585 389.302 132.033 389.302 132.585V142.328ZM389.302 149.683C387.664 150.716 386.293 151.892 385.59 152.852C383.234 156.067 382.681 159.494 384.213 161.381C384.7 161.981 385.643 162.716 387.339 162.716C387.904 162.716 388.56 162.624 389.302 162.429V169.085C389.302 169.362 389.078 169.585 388.802 169.585H380.26C379.09 169.585 378.175 168.586 378.268 167.419C378.299 167.036 378.334 166.638 378.372 166.23C378.73 162.323 379.135 157.895 376.715 156.225C375.367 155.295 373.501 155.436 371.01 156.653C368.881 157.693 367.303 159.662 365.633 161.747C364.436 163.241 363.211 164.771 361.776 165.912C361.786 165.88 361.797 165.847 361.807 165.815C362.354 164.155 362.973 162.273 361.967 161.04C361.334 160.264 360.261 159.977 358.682 160.161C357.105 160.346 356.083 161.648 355.094 162.907C354.883 163.177 354.684 163.422 354.497 163.644C353.404 164.933 351.302 164.166 351.302 162.476V162.05C351.302 161.212 351.889 160.525 352.695 160.292C355.798 159.398 357.844 156.462 358.148 152.309C358.452 148.155 356.94 143.469 353.882 141.046C352.184 139.7 351.302 137.57 351.302 135.404V132.585C351.302 132.033 351.75 131.585 352.302 131.585H368.967C369.82 131.585 370.285 132.584 369.728 133.23C365.784 137.798 361.766 144.56 364.833 149.122C366.036 150.911 367.924 151.616 370.199 151.616C375.32 151.616 382.401 148.044 388.039 145.199C388.471 144.982 388.89 144.771 389.302 144.564V149.683ZM389.302 160.341C387.623 160.886 386.338 160.824 385.766 160.12C384.996 159.172 385.238 156.717 387.203 154.033C387.622 153.461 388.374 152.776 389.302 152.102V160.341ZM376.381 166.047C376.326 166.636 376.277 167.195 376.24 167.716C376.165 168.769 375.3 169.585 374.245 169.585H366.802H351.802C351.526 169.585 351.302 169.362 351.302 169.085V166.9C353.887 167.677 355.533 165.586 356.668 164.141C357.437 163.161 358.164 162.236 358.915 162.148C360.137 162.007 360.393 162.273 360.419 162.305C360.732 162.688 360.217 164.253 359.908 165.189C359.565 166.231 359.241 167.215 359.276 168.057C359.289 168.39 359.467 168.694 359.75 168.868C360.033 169.042 360.384 169.066 360.688 168.927C363.447 167.674 365.352 165.297 367.194 162.998C368.72 161.093 370.162 159.293 371.889 158.449C373.098 157.859 374.72 157.279 375.579 157.871C377.037 158.877 376.657 163.022 376.381 166.047ZM349.302 167.785C349.302 168.89 348.406 169.785 347.302 169.785H339.712C338.607 169.785 337.712 168.89 337.712 167.785V142.138C337.712 142.135 337.713 142.132 337.713 142.129V132.785C337.713 132.234 338.161 131.785 338.713 131.785H342.851H348.328C348.882 131.785 349.33 132.228 349.328 132.781C349.317 138.583 349.302 167.785 349.302 167.785ZM337.661 169.785C337.668 169.752 337.673 169.761 337.678 169.785H337.661ZM335.212 129.785H320.212H305.851C305.575 129.785 305.351 129.561 305.351 129.285V106.385V102.735C305.351 101.659 306.224 100.785 307.299 100.785C308.373 100.785 309.247 101.659 309.247 102.735V109.785C309.247 111.808 310.893 113.452 312.915 113.452C314.937 113.452 316.582 111.808 316.582 109.785V99.4675C316.582 98.9825 316.976 98.5875 317.471 98.5875C317.956 98.5875 318.351 98.9825 318.351 99.4675V101.437C318.351 104.717 321.018 107.385 324.299 107.385C327.579 107.385 330.247 104.717 330.247 101.437V97.6665C330.247 96.6575 331.069 95.8365 332.085 95.8365C333.094 95.8365 333.915 96.6575 333.915 97.6665V110.038C333.915 115.264 338.135 119.518 343.351 119.582V129.285C343.351 129.561 343.127 129.785 342.851 129.785H336.713H335.212ZM335.713 138.004C335.713 138.712 335.008 139.169 334.34 138.931C333.68 138.697 332.975 138.577 332.257 138.606C329.005 138.665 326.359 141.359 326.359 144.611V147.635C326.359 150.93 323.63 153.6 320.302 153.502C317.088 153.408 314.609 150.605 314.609 147.389V144.315C314.609 141.036 311.786 138.404 308.431 138.72C305.508 138.997 303.359 141.619 303.359 144.556V146.967C303.359 149.218 301.557 151.468 299.323 151.748C296.468 152.106 294.033 149.838 294.111 147.034C294.251 142.005 289.781 137.89 284.75 137.89H283.988C283.553 137.89 282.712 137.989 282.712 137.989L282.691 133.8C282.683 132.69 283.58 131.785 284.691 131.785H333.713C334.818 131.785 335.713 132.681 335.713 133.785V138.004ZM335.712 166.783C335.712 167.336 335.264 167.783 334.712 167.783H323.712C323.159 167.783 322.712 167.336 322.712 166.783V159.004C322.712 158.451 322.264 158.004 321.712 158.004C321.159 158.004 320.712 158.451 320.712 159.004V163.783C320.712 165.993 318.921 167.783 316.712 167.783H298.212H286.712C284.503 167.783 282.712 165.993 282.712 163.783V141.926C282.712 140.851 283.552 139.962 284.626 139.902C288.665 139.675 292.263 142.871 292.114 146.915C291.965 150.921 295.398 154.183 299.47 153.746C302.877 153.381 305.359 150.316 305.359 146.889V144.431C305.359 142.7 306.526 141.124 308.221 140.774C310.551 140.293 312.609 142.068 312.609 144.315V145.283C312.609 148.465 312.875 151.562 315.243 153.687C317.341 155.57 320.084 155.656 321.712 155.401C325.471 154.81 328.359 151.558 328.359 147.635V144.611C328.359 142.442 330.124 140.645 332.293 140.606C332.306 140.605 332.319 140.605 332.333 140.604C334.206 140.534 335.712 142.162 335.712 144.036V166.783ZM280.712 136.636C280.712 137.679 280.175 138.658 279.277 139.189C276.548 140.804 274.712 143.771 274.712 147.165V151.945C274.712 154.363 272.949 156.527 270.543 156.763C267.781 157.033 265.447 154.864 265.447 152.158V143.054C265.447 142.403 265.29 141.747 264.927 141.208C264.228 140.172 263.056 139.651 261.833 139.816C260.238 140.031 259.109 141.503 259.109 143.113V146.036C259.109 148.371 257.198 150.283 254.863 150.283H254.705H254.702C253.432 150.283 252.249 149.707 251.453 148.681C250.87 147.93 250.608 146.977 250.608 146.026V145.653C250.608 143.65 250.007 141.661 248.75 140.103C247.317 138.325 245.315 137.241 243.118 136.986H246.931C250.05 136.986 252.651 134.742 253.215 131.785H277.712C279.368 131.785 280.712 133.128 280.712 134.785V136.636ZM280.712 167.785C280.712 168.89 279.816 169.785 278.712 169.785H265.367C266.443 168.653 267.113 167.132 267.131 165.454C267.17 161.896 264.017 158.986 260.457 158.986H249.932C249.158 158.986 248.531 158.359 248.531 157.585V152.785C248.531 148.454 246.401 144.615 243.134 142.251C242.873 142.062 242.712 141.767 242.712 141.445V140.16C242.712 139.482 243.371 139.007 244.021 139.203C245.278 139.584 246.403 140.346 247.253 141.435C248.177 142.617 248.608 144.115 248.608 145.616V145.957C248.608 147.45 249.057 148.94 250.015 150.085C251.198 151.496 252.889 152.283 254.701 152.283H254.706H254.864C258.313 152.283 261.109 149.487 261.109 146.036V142.953C261.109 142.31 261.634 141.785 262.278 141.785C262.591 141.785 262.884 141.907 263.105 142.128C263.325 142.348 263.447 142.642 263.447 142.954V151.918C263.447 155.289 265.863 158.298 269.206 158.729C273.25 159.249 276.712 156.099 276.712 152.156V147.165C276.712 146.912 276.724 146.662 276.75 146.416C277.003 143.96 280.712 144.232 280.712 146.701V167.785ZM260.537 169.785H243.212H240.212H230.718C236.969 166.671 241.283 160.231 241.283 152.785V145.44C241.283 144.575 242.317 144.106 242.954 144.69C245.15 146.699 246.531 149.581 246.531 152.785V157.585C246.531 159.463 248.054 160.986 249.932 160.986H260.731C263.302 160.986 265.365 163.201 265.11 165.824C264.888 168.111 262.833 169.785 260.537 169.785ZM216.975 169.785H215.323C214.012 169.785 212.999 168.529 213.39 167.278C213.57 166.7 213.67 166.089 213.677 165.454C213.715 161.849 210.609 158.986 207.003 158.986H192.277C191.504 158.986 190.877 158.359 190.877 157.585V152.785C190.877 145.606 185.056 139.785 177.877 139.785H175.584C174.977 139.785 174.484 139.292 174.484 138.686C174.484 138.079 174.977 137.585 175.584 137.585H205.892C207.759 137.585 209.531 136.767 210.753 135.339C211.97 133.917 212.503 132.035 212.214 130.177C212.171 129.902 212.109 129.634 212.029 129.373C211.635 128.085 212.587 126.785 213.934 126.785H224.705H231.705H233.809C234.517 126.785 235.186 127.152 235.536 127.768C237.996 132.097 239.283 136.95 239.283 141.986V152.785C239.283 162.174 231.672 169.785 222.283 169.785H216.975ZM207.277 169.785H203.212H200.212H168.484H163.212H162.077C161.355 169.785 160.652 169.629 159.987 169.323C159.931 169.296 159.874 169.276 159.814 169.261C152.265 167.335 146.992 160.56 146.992 152.785V129.986C146.992 120.612 154.618 112.986 163.992 112.986H168.484H175.892C181.621 112.986 186.286 117.646 186.292 123.374C186.294 125.255 187.82 126.785 189.692 126.785H194.705H205.729C207.97 126.785 209.909 128.376 210.237 130.486C210.44 131.784 210.083 133.046 209.234 134.038C208.392 135.022 207.174 135.585 205.892 135.585H175.584C173.874 135.585 172.484 136.976 172.484 138.686C172.484 140.395 173.874 141.785 175.584 141.785H177.877C183.942 141.785 188.877 146.72 188.877 152.785V157.585C188.877 159.46 190.402 160.986 192.277 160.986H207.277C209.703 160.986 211.677 162.959 211.677 165.386C211.677 167.812 209.703 169.785 207.277 169.785ZM147.048 169.785H123.812C121.74 169.785 120.832 167.169 122.459 165.886L122.512 165.844C122.755 165.653 122.903 165.361 122.903 165.051V159.588C122.903 159.563 122.894 159.539 122.892 159.514C122.889 159.477 122.884 159.442 122.877 159.405C122.863 159.329 122.84 159.259 122.81 159.19C122.801 159.169 122.801 159.148 122.79 159.127C122.785 159.118 122.778 159.113 122.773 159.104C122.721 159.012 122.659 158.927 122.581 158.855C122.573 158.847 122.562 158.843 122.553 158.835C122.495 158.784 122.433 158.737 122.364 158.7C122.349 158.693 122.332 158.691 122.317 158.684C122.29 158.671 122.262 158.664 122.234 158.655C122.161 158.629 122.089 158.612 122.014 158.603C121.98 158.599 121.948 158.597 121.914 158.597C121.836 158.596 121.759 158.605 121.681 158.622C121.659 158.627 121.637 158.624 121.615 158.63C121.478 158.671 112.96 161.325 106.575 168.465C105.822 169.307 104.743 169.785 103.614 169.785H94.1735C93.1765 169.785 92.7965 168.491 93.6345 167.95C99.0515 164.449 102.975 158.827 104.219 152.269C104.583 150.352 106.21 148.936 108.161 148.936H120.044C121.336 148.936 122.61 149.197 123.808 149.677C124.092 149.79 124.383 149.891 124.68 149.978L137.344 153.671C137.602 153.746 137.865 153.783 138.127 153.783C139.094 153.783 140.031 153.282 140.558 152.376C140.967 151.676 141.004 150.817 140.769 150.041C140.601 149.487 141.053 148.936 141.632 148.936H144.992V152.785C144.992 157.324 146.603 161.552 149.343 164.864C150.967 166.825 149.595 169.785 147.048 169.785ZM120.538 164.867C116.33 168.353 113.585 172.158 111.799 175.797C112.942 171.942 115.122 167.521 119.184 163.371C119.808 162.734 120.903 163.184 120.903 164.076V164.103C120.903 164.399 120.766 164.679 120.538 164.867ZM103.497 176.93C105.47 172.076 108.767 168.509 112.049 165.966C112.933 165.281 114.104 166.351 113.503 167.294C111.36 170.658 110.133 173.991 109.441 176.93H103.497ZM118.296 178.93C119.4 178.93 120.296 179.825 120.296 180.93V184.607V187.071C120.296 188.17 119.396 189.071 118.296 189.071H97.5855C96.4815 189.071 95.5855 188.175 95.5855 187.071V184.607V180.93C95.5855 179.825 96.4815 178.93 97.5855 178.93H118.296ZM118.566 194.533H110.608C110.572 193.021 110.619 191.827 110.67 191.071H118.566C119.521 191.071 120.296 191.845 120.296 192.801V192.803C120.296 193.759 119.521 194.533 118.566 194.533ZM112.463 216.78C107.286 211.77 101.938 203.577 101.667 191.004H108.66C108.406 194.435 108.218 204.956 114.037 215.575C114.597 216.598 113.301 217.59 112.463 216.78ZM119.402 227.494C115.075 224.992 106.995 218.98 103.429 207.575C108.482 218.179 117.176 223.239 120.344 224.792C120.688 224.961 120.903 225.306 120.903 225.689V226.627C120.903 227.4 120.07 227.88 119.402 227.494ZM97.3155 194.533C96.3605 194.533 95.5855 193.759 95.5855 192.803V192.801C95.5855 191.845 96.3605 191.071 97.3155 191.071H99.6825C99.7095 192.259 99.7695 193.418 99.8785 194.533H97.3155ZM58.6415 147.785C58.6415 135.655 68.5105 125.785 80.6415 125.785C92.7725 125.785 102.642 135.655 102.642 147.785C102.642 159.916 92.7725 169.785 80.6415 169.785C68.5105 169.785 58.6415 159.916 58.6415 147.785ZM138.693 151.548C138.592 151.65 138.313 151.87 137.903 151.751L125.24 148.058C122.046 147.126 119.731 144.272 119.479 140.954C119.301 138.616 120.15 136.323 121.809 134.664C123.323 133.151 125.364 132.311 127.487 132.311C127.69 132.311 127.894 132.319 128.098 132.334C131.416 132.587 134.27 134.903 135.201 138.096L138.895 150.759C139.015 151.169 138.794 151.448 138.693 151.548ZM57.0195 143.567C56.6755 145.501 55.0385 146.936 53.0725 146.936H50.0295C48.6905 146.936 47.5125 146.048 47.1455 144.76L33.4015 96.6555C32.8535 94.7395 34.2925 92.8305 36.2855 92.8305H129.296C129.848 92.8305 130.296 92.3835 130.296 91.8305C130.295 91.2785 129.848 90.8305 129.296 90.8305H27.3375C25.9975 90.8305 24.8205 89.9435 24.4525 88.6555L21.3205 77.6905C21.0895 76.8845 21.1365 76.0005 21.5515 75.2725C22.1015 74.3055 23.0845 73.7405 24.1685 73.7405H128.441C131.202 73.7405 133.441 75.9785 133.441 78.7405V82.6515C133.441 86.7585 135.933 90.2935 139.483 91.8305C140.391 92.2235 141.368 92.4885 142.392 92.5955V93.9855C142.392 101.399 146.666 107.82 152.875 110.944C154.262 111.642 154.415 113.519 153.142 114.407C148.22 117.842 144.992 123.541 144.992 129.986V146.936C141.953 146.936 139.279 144.93 138.427 142.012L137.2 137.805C136.229 134.476 133.719 131.729 130.395 130.739C126.77 129.658 122.972 130.671 120.395 133.25C118.323 135.322 117.262 138.185 117.485 141.107C117.603 142.667 118.09 144.143 118.862 145.441C119.255 146.102 118.77 146.936 118.001 146.936H108.21C106.245 146.936 104.608 145.501 104.264 143.567C102.265 132.338 92.4355 123.785 80.6415 123.785C68.8475 123.785 59.0185 132.338 57.0195 143.567ZM48.4475 71.7335C48.5535 71.6845 48.6555 71.6235 48.7435 71.5355C50.1985 70.0825 52.6825 68.2565 54.8945 67.8895C55.4935 67.7945 55.9625 67.9295 56.0185 68.0355C56.1585 68.3095 55.5515 68.8785 55.1495 69.2555C55.0435 69.3555 54.9425 69.4505 54.8515 69.5405C54.1765 70.2105 53.8355 70.9165 53.8375 71.6395C53.8375 71.6735 53.8475 71.7055 53.8495 71.7405H48.4475V71.7335ZM64.4765 71.7405H61.2955C61.3435 71.7015 61.3985 71.6535 61.4455 71.6175C62.2665 70.9975 63.3635 70.6895 63.9435 70.9135C64.0555 70.9565 64.3535 71.0735 64.4755 71.7315C64.4765 71.7345 64.4755 71.7375 64.4765 71.7405ZM101.448 62.9135V71.7405H93.6145C93.5745 71.4185 93.5575 71.0895 93.5865 70.7485C93.7825 68.4655 95.2145 65.3285 96.8475 63.6085C97.7045 62.7045 98.9765 62.1415 99.9875 62.1965C100.583 62.2295 101.058 62.4725 101.448 62.9135ZM48.4475 58.5585C48.4475 58.2825 48.6715 58.0585 48.9475 58.0585H55.3805C54.3955 58.9425 53.8115 60.0895 54.0965 61.4865C54.2485 62.2305 54.8685 63.7485 57.3935 63.7485C57.8585 63.7485 58.3875 63.6975 58.9905 63.5795C63.0135 62.7975 67.0025 61.3835 70.8595 60.0155C72.6795 59.3695 74.5615 58.7025 76.3915 58.1235C76.4365 58.1105 76.4685 58.0775 76.5095 58.0585H85.9475C86.2225 58.0585 86.4475 58.2825 86.4475 58.5585V61.4485C86.4475 62.0005 86.8945 62.4485 87.4475 62.4485C87.9995 62.4485 88.4475 62.0005 88.4475 61.4485V58.5585C88.4475 58.3875 88.4295 58.2195 88.3965 58.0585H100.948C101.223 58.0585 101.448 58.2825 101.448 58.5585V60.5245C101.028 60.3505 100.584 60.2265 100.102 60.1985C98.5025 60.1085 96.6545 60.9055 95.3965 62.2315C93.4295 64.3045 91.8305 67.8145 91.5935 70.5765C91.5605 70.9695 91.5635 71.3595 91.5965 71.7405H88.4475V68.2415C88.4475 67.6895 87.9995 67.2415 87.4475 67.2415C86.8945 67.2415 86.4475 67.6895 86.4475 68.2415V71.7405H66.4875C66.4755 71.6155 66.4655 71.4925 66.4425 71.3655C66.2325 70.2355 65.6015 69.4115 64.6675 69.0495C63.2365 68.4945 61.4135 69.1365 60.2405 70.0205C59.9995 70.2025 59.7365 70.4225 59.4565 70.6575C58.9095 71.1155 58.4475 71.4735 58.0365 71.7405H55.8705C55.8565 71.7025 55.8375 71.6645 55.8375 71.6315C55.8375 71.5565 55.8785 71.3395 56.2595 70.9605L56.5185 70.7145C57.2555 70.0225 58.6285 68.7355 57.7955 67.1185C57.1865 65.9395 55.7275 65.7215 54.5675 65.9165C52.4025 66.2755 50.1535 67.6665 48.4475 69.1085V58.5585ZM59.1115 58.2875C59.2605 58.2415 59.3855 58.1585 59.4925 58.0585H63.9475H70.3965C70.3285 58.0825 70.2585 58.1065 70.1905 58.1305C66.4035 59.4735 62.4865 60.8635 58.6085 61.6165C57.7305 61.7885 56.2315 61.9475 56.0565 61.0855C55.7095 59.3855 58.7615 58.3955 59.1115 58.2875ZM111.318 48.5595C111.318 48.2835 111.542 48.0595 111.818 48.0595H141.818H146.779C144.535 50.7585 143.039 54.0915 142.568 57.7415C142.543 57.9285 142.507 58.1125 142.488 58.2995C141.925 58.3535 141.38 58.4615 140.848 58.6055C139.577 58.9475 138.407 59.5325 137.389 60.3095C137.177 59.7085 137.056 59.0655 137.056 58.3935V56.8805C137.056 55.1005 135.72 53.5705 134.015 53.3985C133.063 53.3025 132.111 53.6155 131.402 54.2565C130.691 54.8995 130.283 55.8145 130.283 56.7675V61.9785C130.283 63.4825 129.059 64.7055 127.555 64.7055C126.052 64.7055 124.828 63.4825 124.828 61.9785V59.3975C124.828 57.5115 123.414 55.8915 121.608 55.7085C120.599 55.6145 119.593 55.9385 118.841 56.6175C118.089 57.2975 117.657 58.2675 117.657 59.2765V66.2335C117.657 68.6865 116.184 70.7975 114.078 71.7405H111.318V48.5595ZM125.585 66.2625C126.187 66.5395 126.85 66.7055 127.555 66.7055C129.827 66.7055 131.728 65.0935 132.179 62.9535C132.246 62.6385 132.283 62.3135 132.283 61.9785V56.7675C132.283 56.3785 132.45 56.0045 132.743 55.7405C133.038 55.4735 133.417 55.3465 133.814 55.3885C134.51 55.4585 135.056 56.1145 135.056 56.8805V58.3935C135.056 59.3975 135.254 60.3545 135.601 61.2375C135.673 61.4195 135.753 61.5975 135.838 61.7725C134.347 63.5205 133.441 65.7805 133.441 68.2515V68.7405C133.441 70.3975 132.098 71.7405 130.441 71.7405H117.457C118.045 71.1165 118.533 70.4015 118.9 69.6155C119.381 68.5865 119.657 67.4435 119.657 66.2335V59.2765C119.657 58.8315 119.848 58.4035 120.182 58.1015C120.52 57.7955 120.952 57.6515 121.407 57.6985C122.204 57.7795 122.828 58.5255 122.828 59.3975V61.9785C122.828 63.8795 123.963 65.5125 125.585 66.2625ZM192.228 122.242C192.235 123.648 191.098 124.785 189.692 124.785C188.916 124.785 188.293 124.149 188.292 123.372C188.289 119.982 186.913 116.908 184.694 114.672C184.075 114.048 184.537 112.986 185.416 112.986H190.205C191.309 112.986 192.205 113.881 192.205 114.986C192.205 114.986 192.213 119.338 192.228 122.242ZM161.392 43.1855H165.545H226.084C235.472 43.1855 243.084 50.7965 243.084 60.1855V61.7845C243.084 62.8895 242.188 63.7845 241.084 63.7845H226.132C225.579 63.7845 225.132 64.2325 225.132 64.7845C225.132 65.3375 225.579 65.7845 226.132 65.7845H244.577C248.002 65.7845 250.778 68.5615 250.778 71.9855V79.7845C250.778 81.5495 250.5 83.2465 249.994 84.8465C249.775 85.5385 248.919 85.8615 248.368 85.3875C247.933 85.0125 247.367 84.7845 246.748 84.7845C246.743 84.7845 246.739 84.7875 246.734 84.7875C246.724 84.7875 246.715 84.7845 246.705 84.7845H231.705H224.705H205.703H201.622C199.553 84.7845 197.797 83.2115 197.632 81.1495C197.596 80.6985 197.577 80.2435 197.577 79.7845V71.9855C197.577 68.5615 200.353 65.7845 203.778 65.7845H208.543H214.577C215.13 65.7845 215.577 65.3375 215.577 64.7845C215.577 64.2325 215.13 63.7845 214.577 63.7845H203.778C199.249 63.7845 195.577 67.4555 195.577 71.9855V79.7845C195.577 81.5175 195.83 83.1885 196.267 84.7845H194.705C193.324 84.7845 192.205 85.9045 192.205 87.2845V108.986C192.205 110.09 191.309 110.986 190.205 110.986H175.892H168.484H165.546H163.992H161.392C156.32 110.986 151.766 108.764 148.652 105.241C144.654 100.72 147.422 93.5355 153.392 92.6515H158.041C158.594 92.6515 159.041 92.2035 159.041 91.6515C159.041 91.0985 158.594 90.6515 158.041 90.6515H143.441C139.023 90.6515 135.441 87.0695 135.441 82.6515V68.2515C135.441 63.8335 139.023 60.2515 143.441 60.2515H158.041C158.594 60.2515 159.041 59.8045 159.041 59.2515C159.041 58.6985 158.594 58.2515 158.041 58.2515H153.501H146.932C145.612 58.2515 144.65 56.9915 144.997 55.7175C146.963 48.5045 153.565 43.1855 161.392 43.1855ZM247.248 96.3035C246.762 96.6305 246.295 96.9905 245.865 97.4085C245.845 97.4285 245.829 97.4505 245.808 97.4715C245.491 97.1795 245.309 96.6485 245.309 96.0105C245.309 92.4605 242.421 89.5725 238.87 89.5725C237.033 89.5725 235.379 90.3485 234.205 91.5845V87.2845C234.205 87.1145 234.187 86.9465 234.154 86.7845H246.705C246.981 86.7845 247.205 87.0095 247.205 87.2845V93.0595C247.205 93.1355 247.232 93.2025 247.248 93.2745V96.3035ZM232.205 96.1665C232.205 99.5455 229.734 102.561 226.37 102.88C226.134 102.903 225.894 102.913 225.651 102.909C222.458 102.871 219.943 100.146 219.943 96.9515V95.6065C219.943 93.8255 218.607 92.2965 216.902 92.1245C215.948 92.0245 214.998 92.3415 214.288 92.9835C213.577 93.6255 213.17 94.5405 213.17 95.4935V100.597C213.17 101.916 212.281 103.128 210.986 103.38C209.245 103.718 207.715 102.387 207.715 100.704V98.1235C207.715 96.2375 206.3 94.6165 204.495 94.4355C203.488 94.3345 202.48 94.6635 201.729 95.3425C200.976 96.0235 200.544 96.9915 200.544 98.0015V105.097C200.544 107.429 199.053 109.433 197.014 110.392C195.707 111.007 194.205 110.002 194.205 108.558V88.7845C194.205 87.6805 195.1 86.7845 196.205 86.7845H224.705H230.205C231.309 86.7845 232.205 87.6805 232.205 88.7845V96.1665ZM240.494 126.785H246.705C247.219 126.785 247.697 126.629 248.094 126.362C250.158 126.932 251.627 128.949 251.281 131.26C250.953 133.442 248.953 134.986 246.747 134.986H242.043C241.156 134.986 240.351 134.415 240.108 133.562C239.719 132.197 239.232 130.863 238.655 129.562C238.073 128.254 239.063 126.785 240.494 126.785ZM351.302 143.639C351.302 142.761 352.344 142.316 352.993 142.909C355.261 144.985 356.397 148.834 356.154 152.162C356.064 153.374 355.552 156.96 352.694 158.169C352.036 158.448 351.302 157.955 351.302 157.241V143.639ZM357.272 119.631L353.57 121.491C353.076 121.74 352.877 122.34 353.125 122.834C353.301 123.184 353.654 123.385 354.02 123.385C354.171 123.385 354.323 123.351 354.467 123.279L358.108 121.45C358.214 121.515 358.244 121.533 358.351 121.599V128.785C358.351 129.337 357.903 129.785 357.351 129.785H346.351C345.799 129.785 345.351 129.337 345.351 128.785V119.4C349.718 118.523 353.019 114.659 353.019 110.033L352.97 99.8655C352.967 99.1515 353.242 98.4785 353.747 97.9705C354.693 97.0205 356.224 96.8695 357.53 97.8585C358.133 98.3155 358.322 99.0735 358.307 99.8295C358.306 99.9075 358.334 99.9755 358.351 100.048V114.382C358.351 115.439 358.105 116.47 357.734 117.458C357.555 117.935 357.412 118.43 357.311 118.941C357.264 119.173 357.259 119.404 357.272 119.631ZM305.351 96.7845C305.351 94.0235 307.589 91.7845 310.351 91.7845H339.351C341.56 91.7845 343.351 93.5755 343.351 95.7845V99.9725C343.351 100.526 343.799 100.973 344.351 100.973C344.903 100.973 345.351 100.526 345.351 99.9725V96.7845C345.351 94.0235 347.589 91.7845 350.351 91.7845H354.062C356.431 91.7845 358.351 93.7035 358.351 96.0725C357.584 95.5195 356.651 95.1845 355.638 95.1845C354.188 95.1845 352.84 95.8405 351.931 97.0135C351.263 97.8735 350.966 98.9665 350.97 100.056L351.019 110.038C351.019 110.269 351.008 110.497 350.988 110.722C350.67 114.243 345.351 113.888 345.351 110.354V105.785C345.351 105.233 344.903 104.785 344.351 104.785C343.799 104.785 343.351 105.233 343.351 105.785V113.711C343.351 116.073 340.616 117.412 338.768 115.942C337.031 114.559 335.915 112.427 335.915 110.038V97.7835C335.915 95.9545 334.678 94.2885 332.885 93.9195C330.422 93.4125 328.247 95.2895 328.247 97.6665V101.26C328.247 103.322 326.745 105.165 324.694 105.366C322.341 105.595 320.351 103.743 320.351 101.437V99.5945C320.351 98.1985 319.411 96.9135 318.04 96.6445C316.2 96.2825 314.582 97.6905 314.582 99.4675V109.691C314.582 110.522 314.016 111.294 313.197 111.429C312.154 111.601 311.247 110.796 311.247 109.785V102.896C311.247 101.171 310.206 99.5615 308.574 99.0025C307.373 98.5915 306.26 98.7985 305.351 99.3205V96.7845ZM360.001 117.261C360.737 115.845 361.903 114.685 363.374 113.946C365.513 112.87 367.978 112.843 370.141 113.867C370.44 114.009 370.611 114.348 370.547 114.671C370.079 117.02 368.583 118.983 366.445 120.058C364.894 120.837 363.172 121.059 361.516 120.732C361.056 120.641 360.986 120.003 361.404 119.793L364.997 117.988C365.49 117.74 365.691 117.139 365.443 116.645C365.195 116.151 364.593 115.952 364.1 116.2L360.68 117.919C360.256 118.132 359.782 117.681 360.001 117.261ZM391.302 150.835C392.956 149.919 394.779 149.218 396.227 149.177H396.228C396.274 149.175 396.319 149.175 396.363 149.175C397.108 149.175 397.671 149.36 398.038 149.726C398.515 150.201 398.742 151.035 398.713 152.205C398.643 154.968 394.827 157.782 391.302 159.508V150.835ZM122.296 190.98C122.296 190.024 123.07 189.249 124.026 189.249H139.232C139.784 189.249 140.232 188.802 140.232 188.249C140.232 187.697 139.784 187.249 139.232 187.249H124.296C123.191 187.249 122.296 186.354 122.296 185.249V184.607V182.75C122.296 181.646 123.191 180.75 124.296 180.75H173.858C174.647 180.75 175.286 181.39 175.286 182.179V185.821C175.286 186.61 174.647 187.249 173.858 187.249H155.063C154.511 187.249 154.063 187.697 154.063 188.249C154.063 188.802 154.511 189.249 155.063 189.249H173.858C174.369 189.249 174.85 189.129 175.286 188.928V191.284C175.286 192.073 174.647 192.712 173.859 192.712H124.026C123.07 192.712 122.296 191.938 122.296 190.982V190.98ZM93.5855 184.607V185.249C93.5855 186.354 92.6905 187.249 91.5855 187.249H90.9435C90.1545 187.249 89.5155 186.61 89.5155 185.822V182.179C89.5155 181.39 90.1555 180.75 90.9445 180.75H91.5855C92.6905 180.75 93.5855 181.646 93.5855 182.75V184.607ZM91.8555 192.712H90.9435C90.1545 192.712 89.5155 192.073 89.5155 191.284V188.928C89.9515 189.129 90.4315 189.249 90.9435 189.249H91.8555C92.8115 189.249 93.5855 190.024 93.5855 190.98V190.982C93.5855 191.938 92.8115 192.712 91.8555 192.712ZM311.928 82.5005L310.809 80.6485C310.523 80.1755 309.908 80.0245 309.436 80.3105C308.963 80.5955 308.812 81.2105 309.098 81.6835L309.997 83.1695C310.587 84.1455 309.344 85.1915 308.48 84.4485C307.869 83.9225 307.337 83.2965 306.906 82.5835C305.667 80.5345 305.445 78.0765 306.299 75.8405C306.408 75.5545 306.682 75.3705 306.982 75.3705C307.011 75.3705 307.04 75.3715 307.07 75.3755C309.447 75.6575 311.521 76.9945 312.76 79.0425C313.291 79.9215 313.633 80.8755 313.783 81.8565C313.946 82.9245 312.488 83.4255 311.928 82.5005ZM420.976 169.785H412.302C408.988 169.785 406.302 167.099 406.302 163.785V132.085C406.302 130.704 405.183 129.585 403.802 129.585H388.802H366.802H363.351C361.694 129.585 360.351 128.242 360.351 126.585V124.864C360.351 123.729 361.294 122.797 362.427 122.868C362.612 122.88 362.798 122.886 362.984 122.886C364.474 122.886 365.964 122.538 367.344 121.845C370.032 120.493 371.912 118.029 372.505 115.079C372.753 113.846 372.122 112.591 370.984 112.054C368.263 110.77 365.163 110.808 362.476 112.158C362.276 112.259 362.081 112.366 361.892 112.479C361.212 112.885 360.351 112.43 360.351 111.639V94.0725C360.351 91.7035 358.431 89.7845 356.062 89.7845H342.851H333.173C332.094 89.7845 331.373 88.6715 331.816 87.6875L331.819 87.6825C332.055 87.1835 331.841 86.5875 331.342 86.3515C330.844 86.1155 330.247 86.3295 330.01 86.8285L329.012 88.9425C328.77 89.4565 328.251 89.7845 327.682 89.7845H317.164C316.649 89.7845 316.172 89.5165 315.906 89.0755L314.799 87.2465C314.978 87.0265 315.128 86.7765 315.234 86.4985C316.309 83.6825 316.031 80.5875 314.471 78.0075C312.905 75.4185 310.28 73.7325 307.272 73.3855C306.033 73.2425 304.869 73.9775 304.426 75.1435C303.286 78.1435 303.68 81.4555 305.523 84.1245C306.577 85.6525 308.163 86.7135 309.888 87.3985C310.855 87.7825 311.788 88.2565 312.686 88.2565C312.811 88.2565 312.934 88.2445 313.056 88.2285L313.997 89.7845H308.351C305.589 89.7845 303.351 92.0235 303.351 94.7845V102.735V106.385C303.351 106.385 303.351 118.726 303.352 125.484C303.352 127.863 301.423 129.785 299.044 129.785H298.212H283.212H280.212H256.104C254.595 129.785 253.281 128.89 252.564 127.562C251.834 126.208 250.63 125.146 249.173 124.599C249.186 124.495 249.205 124.393 249.205 124.285V107.947C249.205 107.394 248.757 106.947 248.205 106.947C247.653 106.947 247.205 107.394 247.205 107.947V121.249C247.205 122.65 246.07 123.784 244.669 123.784H236.74C235.34 123.784 234.205 122.65 234.205 121.249V118.478C234.205 117.925 233.757 117.478 233.205 117.478C232.653 117.478 232.205 117.925 232.205 118.478V121.249C232.205 122.65 231.07 123.784 229.669 123.784H224.705H205.729H196.74C195.34 123.784 194.205 122.65 194.205 121.249V112.932C194.302 112.964 194.401 112.993 194.51 112.993C198.94 112.993 202.544 109.389 202.544 104.959V98.0015C202.544 97.5565 202.736 97.1285 203.07 96.8265C203.407 96.5215 203.843 96.3755 204.294 96.4255C205.091 96.5055 205.715 97.2515 205.715 98.1235V100.494C205.715 102.962 207.514 105.17 209.97 105.409C212.788 105.684 215.17 103.467 215.17 100.704V95.4935C215.17 95.1055 215.337 94.7305 215.63 94.4665C215.925 94.1995 216.305 94.0745 216.7 94.1155C217.397 94.1855 217.943 94.8405 217.943 95.6065V96.8965C217.943 101.209 221.47 104.933 225.781 104.91C228.333 104.897 230.621 103.771 232.205 102.003V112.785C232.205 113.338 232.653 113.785 233.205 113.785C233.757 113.785 234.205 113.338 234.205 112.785V98.1525C234.348 97.5275 234.43 96.8795 234.43 96.2125V96.1385C234.43 94.0345 235.839 92.1155 237.895 91.6765C240.766 91.0625 243.309 93.2445 243.309 96.0105C243.309 97.2365 243.723 98.2845 244.475 98.9635C244.496 98.9835 244.522 98.9945 244.544 99.0125C243.299 100.889 242.738 103.141 242.993 105.438C243.019 105.669 243.08 105.893 243.163 106.109L240.198 108.999C239.802 109.385 239.795 110.018 240.18 110.413C240.376 110.615 240.636 110.715 240.896 110.715C241.148 110.715 241.4 110.62 241.594 110.431L245.317 106.801L250.032 102.203C250.427 101.818 250.435 101.185 250.05 100.789C249.664 100.393 249.031 100.387 248.635 100.772L247.392 101.984C246.576 102.78 245.276 101.808 245.803 100.798C246.176 100.083 246.665 99.4225 247.262 98.8405C248.974 97.1715 251.314 96.3975 253.683 96.7205C254.015 96.7665 254.283 97.0415 254.32 97.3735C254.603 99.9595 253.575 102.496 251.569 104.161C251.162 104.499 251.101 105.087 251.406 105.51C251.419 105.529 251.423 105.552 251.438 105.57C251.791 105.995 252.422 106.054 252.845 105.7C255.358 103.616 256.651 100.448 256.314 97.2095C256.182 95.9415 255.207 94.9045 253.943 94.7365C252.325 94.5215 250.723 94.7215 249.248 95.2735V90.7745C251.461 87.6685 252.778 83.8815 252.778 79.7845V71.9855C252.778 67.6345 249.369 64.0735 245.084 63.8105V60.1855C245.084 49.6925 236.577 41.1855 226.084 41.1855H161.392C156.526 41.1855 152.095 43.0395 148.731 46.0595H141.818H140.457L141.288 42.7345C141.422 42.1985 141.096 41.6565 140.561 41.5225C140.026 41.3895 139.483 41.7125 139.348 42.2495L138.395 46.0595H136.24L135.288 42.2495C135.155 41.7125 134.611 41.3895 134.075 41.5225C133.54 41.6565 133.214 42.1985 133.348 42.7345L134.179 46.0595H111.818C110.437 46.0595 109.318 47.1785 109.318 48.5595V71.7405H103.448V58.5585C103.448 57.1775 102.328 56.0585 100.948 56.0585H85.9475H63.9475H48.9475C47.5665 56.0585 46.4475 57.1775 46.4475 58.5585V71.7405L24.3725 71.7395C22.8995 71.7395 21.4415 72.2885 20.4585 73.3855C19.2845 74.6965 18.8855 76.4495 19.3615 78.1135L22.5305 89.2045C23.1435 91.3515 25.1055 92.8305 27.3375 92.8305H27.3395C29.0495 92.8305 30.5525 93.9645 31.0225 95.6085L45.2225 145.309C45.8325 147.445 47.8085 148.936 50.0295 148.936H53.1215C55.0735 148.936 56.6995 150.352 57.0645 152.27C58.3085 158.828 62.2325 164.449 67.6485 167.95C68.4865 168.491 68.1065 169.785 67.1095 169.785H36.3725C35.8205 169.785 35.3725 170.233 35.3725 170.785C35.3725 171.338 35.8205 171.785 36.3725 171.785H97.9825C100.607 171.785 102.346 174.42 101.412 176.871L101.39 176.93H95.7995C94.7135 176.93 93.8125 177.717 93.6255 178.75H90.9435C89.0505 178.75 87.5155 180.284 87.5155 182.178V185.821C87.5155 186.138 87.5725 186.44 87.6535 186.732C87.5725 187.023 87.5155 187.325 87.5155 187.642V191.284C87.5155 193.177 89.0505 194.712 90.9435 194.712H93.6255C93.8115 195.745 94.7135 196.533 95.7995 196.533H99.6825C100.258 222.371 121.331 230.718 121.547 230.8C121.662 230.844 121.782 230.866 121.903 230.866C122.102 230.866 122.301 230.806 122.47 230.689C122.741 230.502 122.903 230.195 122.903 229.866V224.403C122.903 224.388 122.893 224.376 122.893 224.363C122.887 224.224 122.86 224.088 122.798 223.962C122.789 223.946 122.775 223.933 122.765 223.917C122.722 223.839 122.676 223.761 122.61 223.696C113.47 214.556 111.172 203.402 110.702 196.533H120.081C121.168 196.533 122.07 195.745 122.256 194.712H173.858C175.751 194.712 177.286 193.177 177.286 191.284V182.179C177.286 180.285 175.751 178.75 173.858 178.75H122.256C122.069 177.717 121.168 176.93 120.081 176.93H113.456C114.01 175.777 114.671 174.603 115.453 173.427C116.136 172.399 117.301 171.785 118.535 171.785H162.077H163.212H168.484H200.212H203.212H207.277H216.975H222.283H240.212H243.212H260.732H280.212H283.212H298.212H320.212H335.212H420.976C421.529 171.785 421.976 171.338 421.976 170.785C421.976 170.233 421.529 169.785 420.976 169.785ZM29.3723 169.785H26.1733C25.6213 169.785 25.1733 170.232 25.1733 170.785C25.1733 171.338 25.6213 171.785 26.1733 171.785H29.3723C29.9243 171.785 30.3723 171.338 30.3723 170.785C30.3723 170.232 29.9243 169.785 29.3723 169.785ZM20.883 169.785H19.999C19.446 169.785 18.999 170.232 18.999 170.785C18.999 171.338 19.446 171.785 19.999 171.785H20.883C21.435 171.785 21.883 171.338 21.883 170.785C21.883 170.232 21.435 169.785 20.883 169.785Z" fill="#202225"/>
<path fill-rule="evenodd" clip-rule="evenodd" d="M150.839 187.249H149.092C148.54 187.249 148.093 187.696 148.092 188.249C148.092 188.802 148.54 189.249 149.092 189.249H150.839C151.391 189.249 151.839 188.802 151.839 188.249C151.839 187.696 151.391 187.249 150.839 187.249ZM236.005 17.0398H237.515V18.5498C237.515 19.1028 237.963 19.5498 238.515 19.5498C239.068 19.5498 239.515 19.1028 239.515 18.5498V17.0398H241.026C241.578 17.0398 242.026 16.5928 242.026 16.0398C242.026 15.4868 241.578 15.0398 241.026 15.0398H239.515V13.5298C239.515 12.9778 239.068 12.5298 238.515 12.5298C237.963 12.5298 237.515 12.9778 237.515 13.5298V15.0398H236.005C235.453 15.0398 235.005 15.4868 235.005 16.0398C235.005 16.5928 235.453 17.0398 236.005 17.0398ZM256.694 4.50951H257.204C257.756 4.50951 258.204 4.95651 258.204 5.50951V6.02051C258.204 6.57251 258.652 7.02051 259.204 7.02051C259.756 7.02051 260.204 6.57251 260.204 6.02051V5.50951C260.204 4.95651 260.652 4.50951 261.204 4.50951H261.714C262.266 4.50951 262.714 4.06251 262.714 3.50951C262.714 2.95651 262.266 2.50951 261.714 2.50951H261.204C260.652 2.50951 260.204 2.06251 260.204 1.50951V0.999512C260.204 0.447512 259.756 -0.000488281 259.204 -0.000488281C258.652 -0.000488281 258.204 0.447512 258.204 0.999512V1.50951C258.204 2.06251 257.756 2.50951 257.204 2.50951H256.694C256.142 2.50951 255.694 2.95651 255.694 3.50951C255.694 4.06251 256.142 4.50951 256.694 4.50951ZM267.297 33.0642C267.553 33.0642 267.809 32.9662 268.004 32.7712L269.188 31.5872C269.578 31.1972 269.578 30.5642 269.188 30.1732C268.797 29.7832 268.164 29.7832 267.774 30.1732L266.59 31.3572C266.199 31.7482 266.199 32.3802 266.59 32.7712C266.785 32.9662 267.041 33.0642 267.297 33.0642ZM261.857 36.0896L260.674 37.2736C260.283 37.6636 260.283 38.2966 260.674 38.6876C260.869 38.8826 261.125 38.9806 261.381 38.9806C261.637 38.9806 261.893 38.8826 262.088 38.6876L263.271 37.5036C263.662 37.1126 263.662 36.4806 263.271 36.0896C262.88 35.6986 262.247 35.6986 261.857 36.0896ZM267.774 38.6873C267.969 38.8823 268.225 38.9803 268.481 38.9803C268.737 38.9803 268.993 38.8823 269.188 38.6873C269.579 38.2963 269.579 37.6643 269.188 37.2733L268.004 36.0893C267.614 35.6993 266.981 35.6993 266.59 36.0893C266.2 36.4803 266.2 37.1133 266.59 37.5033L267.774 38.6873ZM260.674 30.1736C260.283 30.5646 260.283 31.1966 260.674 31.5876L261.857 32.7716C262.052 32.9666 262.308 33.0646 262.564 33.0646C262.82 33.0646 263.076 32.9666 263.271 32.7716C263.662 32.3806 263.662 31.7476 263.271 31.3576L262.088 30.1736C261.697 29.7826 261.065 29.7826 260.674 30.1736ZM352.667 64.7214C352.923 64.7214 353.179 64.6234 353.374 64.4284L354.557 63.2444C354.948 62.8544 354.948 62.2214 354.557 61.8304C354.167 61.4404 353.533 61.4404 353.143 61.8304L351.96 63.0144C351.569 63.4054 351.569 64.0374 351.96 64.4284C352.155 64.6234 352.411 64.7214 352.667 64.7214ZM346.751 70.6375C347.007 70.6375 347.263 70.5395 347.458 70.3445L348.641 69.1605C349.032 68.7705 349.032 68.1375 348.641 67.7465C348.251 67.3565 347.617 67.3565 347.227 67.7465L346.044 68.9305C345.653 69.3215 345.653 69.9535 346.044 70.3445C346.239 70.5395 346.495 70.6375 346.751 70.6375ZM353.143 70.3445C353.338 70.5395 353.594 70.6375 353.85 70.6375C354.106 70.6375 354.362 70.5395 354.557 70.3445C354.948 69.9535 354.948 69.3215 354.557 68.9305L353.374 67.7465C352.983 67.3565 352.351 67.3565 351.96 67.7465C351.569 68.1375 351.569 68.7705 351.96 69.1605L353.143 70.3445ZM347.227 64.4285C347.422 64.6235 347.678 64.7215 347.934 64.7215C348.19 64.7215 348.446 64.6235 348.641 64.4285C349.032 64.0375 349.032 63.4055 348.641 63.0145L347.458 61.8305C347.067 61.4405 346.435 61.4405 346.044 61.8305C345.653 62.2215 345.653 62.8545 346.044 63.2445L347.227 64.4285ZM373.888 45.9822C374.721 45.9822 375.398 46.6602 375.398 47.4922C375.398 48.3252 374.721 49.0032 373.888 49.0032C373.055 49.0032 372.378 48.3252 372.378 47.4922C372.378 46.6602 373.055 45.9822 373.888 45.9822ZM373.888 51.0032C375.824 51.0032 377.398 49.4272 377.398 47.4922C377.398 45.5562 375.824 43.9822 373.888 43.9822C371.952 43.9822 370.378 45.5562 370.378 47.4922C370.378 49.4272 371.952 51.0032 373.888 51.0032Z" fill="#202225"/>
</svg>
