<svg width="124" height="24" viewBox="0 0 124 24" fill="none" xmlns="http://www.w3.org/2000/svg">
<path d="M26.0015 1.9529C24.0021 1.03845 21.8787 0.37198 19.6623 0C19.3833 0.48048 19.0733 1.13144 18.8563 1.64292C16.4989 1.30193 14.1585 1.30193 11.8336 1.64292C11.6166 1.13144 11.2911 0.48048 11.0276 0C8.79575 0.37198 6.67235 1.03845 4.6869 1.9529C0.672601 7.8736 -0.41235 13.6548 0.130124 19.3585C2.79599 21.2959 5.36889 22.4739 7.89682 23.2489C8.51679 22.4119 9.07477 21.5129 9.55525 20.5675C8.64079 20.2265 7.77283 19.808 6.93587 19.312C7.15286 19.1571 7.36986 18.9866 7.57135 18.8161C12.6241 21.1255 18.0969 21.1255 23.0876 18.8161C23.3046 18.9866 23.5061 19.1571 23.7231 19.312C22.8861 19.808 22.0182 20.2265 21.1037 20.5675C21.5842 21.5129 22.1422 22.4119 22.7621 23.2489C25.2885 22.4739 27.8769 21.2959 30.5288 19.3585C31.1952 12.7559 29.4733 7.0212 26.0015 1.9529ZM10.2527 15.8402C8.73376 15.8402 7.49382 14.4608 7.49382 12.7714C7.49382 11.082 8.70276 9.7025 10.2527 9.7025C11.7871 9.7025 13.0425 11.082 13.0115 12.7714C13.0115 14.4608 11.7871 15.8402 10.2527 15.8402ZM20.4373 15.8402C18.9183 15.8402 17.6768 14.4608 17.6768 12.7714C17.6768 11.082 18.8873 9.7025 20.4373 9.7025C21.9717 9.7025 23.2271 11.082 23.1961 12.7714C23.1961 14.4608 21.9872 15.8402 20.4373 15.8402Z" fill="white"/>
<path d="M41.2695 4.86621H47.8583C49.4392 4.86621 50.7876 5.11416 51.8881 5.61016C52.9885 6.10616 53.81 6.78816 54.3525 7.67156C54.8949 8.55506 55.1739 9.56246 55.1739 10.7095C55.1739 11.8254 54.895 12.8329 54.3215 13.7473C53.748 14.6463 52.8801 15.3747 51.7176 15.9017C50.5552 16.4287 49.1137 16.6922 47.3933 16.6922H41.2695V4.86621ZM47.3158 13.6853C48.3852 13.6853 49.2067 13.4218 49.7802 12.8794C50.3537 12.3524 50.6482 11.6084 50.6482 10.694C50.6482 9.84146 50.3847 9.15946 49.8732 8.64806C49.3617 8.13656 48.5868 7.87306 47.5483 7.87306H45.4869V13.6853H47.3158Z" fill="white"/>
<path d="M65.4361 16.6774C64.5216 16.4449 63.7002 16.1039 62.9717 15.6389V12.8335C63.5297 13.2675 64.2581 13.6085 65.1881 13.8875C66.118 14.1665 67.017 14.306 67.885 14.306C68.2879 14.306 68.5979 14.2595 68.7994 14.151C69.0009 14.0425 69.1094 13.9185 69.1094 13.7635C69.1094 13.593 69.0474 13.4535 68.9389 13.345C68.8304 13.2365 68.6134 13.1435 68.2879 13.0505L66.2575 12.6011C65.0951 12.3376 64.2736 11.9501 63.7776 11.4851C63.2817 11.0201 63.0492 10.3847 63.0492 9.60966C63.0492 8.95866 63.2662 8.38527 63.6846 7.90477C64.1186 7.42427 64.7231 7.05226 65.5136 6.78876C66.304 6.52536 67.2185 6.38586 68.2879 6.38586C69.2334 6.38586 70.1013 6.47886 70.8918 6.69586C71.6822 6.89726 72.3332 7.16077 72.8447 7.47077V10.1212C72.3177 9.81116 71.6978 9.56316 71.0158 9.37716C70.3183 9.19116 69.6054 9.09816 68.8769 9.09816C67.8229 9.09816 67.296 9.28417 67.296 9.64067C67.296 9.81117 67.3735 9.93516 67.544 10.0282C67.7145 10.1212 68.0089 10.1987 68.4429 10.2917L70.1323 10.6017C71.2328 10.7876 72.0542 11.1286 72.5967 11.6091C73.1392 12.0896 73.4027 12.787 73.4027 13.7325C73.4027 14.7555 72.9532 15.5769 72.0542 16.1659C71.1553 16.7704 69.8843 17.0648 68.2414 17.0648C67.2805 17.0338 66.3505 16.9098 65.4361 16.6774Z" fill="white"/>
<path d="M77.5887 16.3214C76.6277 15.8409 75.8838 15.2055 75.4033 14.3995C74.9073 13.5935 74.6748 12.679 74.6748 11.656C74.6748 10.6486 74.9228 9.73415 75.4343 8.94375C75.9458 8.13775 76.6897 7.51775 77.6662 7.05285C78.6426 6.60335 79.8206 6.37085 81.1845 6.37085C82.8739 6.37085 84.2689 6.72735 85.3848 7.44025V10.5246C84.9973 10.2611 84.5324 10.0286 84.0054 9.87365C83.4784 9.70315 82.9204 9.62565 82.3315 9.62565C81.2775 9.62565 80.4716 9.81165 79.8671 10.1991C79.2781 10.5866 78.9836 11.0826 78.9836 11.7025C78.9836 12.307 79.2626 12.803 79.8516 13.1905C80.425 13.5779 81.262 13.7794 82.347 13.7794C82.9049 13.7794 83.4629 13.702 84.0054 13.5315C84.5479 13.361 85.0283 13.175 85.4158 12.927V15.9184C84.1758 16.6624 82.7344 17.0343 81.107 17.0343C79.7276 17.0343 78.5651 16.7864 77.5887 16.3214Z" fill="white"/>
<path d="M89.8038 16.3214C88.8273 15.8409 88.0834 15.2054 87.5719 14.3839C87.0604 13.5624 86.7969 12.648 86.7969 11.625C86.7969 10.6176 87.0604 9.70315 87.5719 8.91275C88.0834 8.12225 88.8273 7.50225 89.7883 7.05285C90.7492 6.60335 91.9116 6.37085 93.2461 6.37085C94.5791 6.37085 95.7415 6.58785 96.7025 7.05285C97.6634 7.50225 98.4074 8.12225 98.9189 8.91275C99.4303 9.70315 99.6783 10.6021 99.6783 11.625C99.6783 12.6325 99.4303 13.5624 98.9189 14.3839C98.4074 15.2054 97.6789 15.8564 96.7025 16.3214C95.726 16.7864 94.5791 17.0343 93.2461 17.0343C91.9271 17.0343 90.7802 16.7864 89.8038 16.3214ZM94.9355 13.33C95.3385 12.9271 95.5555 12.369 95.5555 11.7025C95.5555 11.0206 95.354 10.4936 94.9355 10.0906C94.5171 9.68765 93.9591 9.48615 93.2616 9.48615C92.5332 9.48615 91.9736 9.68765 91.5552 10.0906C91.1522 10.4936 90.9352 11.0206 90.9352 11.7025C90.9352 12.3845 91.1367 12.9271 91.5552 13.33C91.9736 13.7485 92.5332 13.9499 93.2616 13.9499C93.9591 13.9344 94.5326 13.733 94.9355 13.33Z" fill="white"/>
<path d="M110.048 6.99006V10.6325C109.614 10.3535 109.056 10.214 108.374 10.214C107.475 10.214 106.777 10.493 106.297 11.0354C105.816 11.5779 105.568 12.4304 105.568 13.5773V16.6772H101.43V6.81956H105.491V9.96596C105.708 8.81896 106.08 7.96656 106.576 7.42406C107.072 6.88156 107.723 6.58716 108.513 6.58716C109.102 6.58716 109.614 6.72666 110.048 6.99006Z" fill="white"/>
<path d="M124 4.52563V16.6925H119.862V14.4761C119.505 15.3131 118.978 15.9486 118.265 16.3825C117.551 16.8165 116.667 17.0335 115.613 17.0335C114.683 17.0335 113.862 16.801 113.164 16.3515C112.467 15.9021 111.925 15.2666 111.553 14.4761C111.181 13.6702 110.995 12.7712 110.995 11.7793C110.979 10.7408 111.181 9.8109 111.599 8.9894C112.002 8.168 112.591 7.5325 113.335 7.0675C114.079 6.6025 114.931 6.37 115.892 6.37C117.861 6.37 119.18 7.2225 119.862 8.9429V4.52563H124ZM119.242 13.2517C119.66 12.8487 119.877 12.3062 119.877 11.6553C119.877 11.0198 119.676 10.5083 119.257 10.1209C118.839 9.7334 118.281 9.53191 117.582 9.53191C116.884 9.53191 116.326 9.7334 115.908 10.1364C115.489 10.5393 115.288 11.0508 115.288 11.7018C115.288 12.3527 115.489 12.8642 115.908 13.2672C116.326 13.6702 116.869 13.8717 117.566 13.8717C118.265 13.8717 118.823 13.6702 119.242 13.2517Z" fill="white"/>
<path d="M58.9884 7.4091C60.1771 7.4091 61.1428 6.5416 61.1428 5.4717C61.1428 4.40164 60.1771 3.5343 58.9884 3.5343C57.798 3.5343 56.834 4.40164 56.834 5.4717C56.834 6.5416 57.798 7.4091 58.9884 7.4091Z" fill="white"/>
<path d="M61.1428 8.74097C59.8253 9.31437 58.1824 9.32987 56.834 8.74097V16.6921H61.1428V8.74097Z" fill="white"/>
</svg>
