<svg width="421" height="218" viewBox="0 0 421 218" fill="none" xmlns="http://www.w3.org/2000/svg">
<path fill-rule="evenodd" clip-rule="evenodd" d="M0 125.639C0 135.075 7.649 142.724 17.085 142.724H46.535C63.041 142.724 76.421 156.105 76.421 172.612C76.421 189.118 89.803 202.499 106.309 202.499H371.873C377.495 202.499 382.053 197.941 382.053 192.319V192.318C382.053 186.696 377.495 182.138 371.873 182.138H340.712C336.752 182.138 333.542 178.928 333.542 174.968V174.963C333.542 171.003 336.752 167.793 340.712 167.793H365.921C392.387 167.793 413.841 146.339 413.841 119.873C413.841 93.4082 392.387 71.9532 365.921 71.9532H314.52C303.491 71.9532 294.55 63.0132 294.55 51.9832C294.55 40.9542 285.609 32.0122 274.58 32.0122H79.15C71.888 32.0122 66 37.9002 66 45.1622V45.1682C66 52.4312 71.888 58.3182 79.15 58.3182H93.8C107.672 58.3182 118.917 69.5632 118.917 83.4352C118.917 97.3072 107.672 108.554 93.8 108.554H17.085C7.649 108.554 0 116.203 0 125.639Z" fill="#4F545C" fill-opacity="0.3"/>
<path fill-rule="evenodd" clip-rule="evenodd" d="M117.573 192H132.985C132.979 191.874 132.955 191.75 132.955 191.623V148.191C132.955 142.157 139.202 136.672 149.784 132.322V131.57C149.784 126.056 154.27 121.57 159.784 121.57H162.436C162.636 118.72 163.454 116.042 164.778 113.674V94.7876C164.617 95.1246 164.28 95.3606 163.882 95.3606C163.329 95.3606 162.882 94.9136 162.882 94.3606V24.9996H102.225V30.1296C105.155 30.5696 107.723 32.2466 109.281 34.8646C111.126 37.9676 111.169 41.6986 109.395 44.8426C109.22 45.1526 108.895 45.3456 108.54 45.3516C108.484 45.3526 108.428 45.3526 108.372 45.3526C106.08 45.3526 103.945 44.5856 102.225 43.2236V192H111.575C111.902 192 112.177 192.167 112.36 192.408H116.788C116.971 192.167 117.247 192 117.573 192Z" fill="#36393F"/>
<path fill-rule="evenodd" clip-rule="evenodd" d="M371.354 141.394C372.501 140.549 374.086 140.498 375.815 141.246C377.672 142.049 379.805 143.94 380.101 145.863C380.434 148.024 379.411 150.404 377.496 151.925C376.352 152.833 375.036 153.305 373.75 153.306C373.105 153.306 372.468 153.186 371.864 152.944C370.759 152.5 370.033 151.143 369.764 149.018C369.463 146.636 369.76 142.565 371.354 141.394ZM365.028 159.054C364.607 159.574 363.922 159.756 363.191 159.756C362.239 159.756 361.208 159.448 360.576 159.176C358.739 158.384 358.585 157.367 358.657 156.832V156.831C358.774 155.964 359.36 155.34 360.264 155.117C361.708 154.766 364.044 155.524 364.808 156.6C365.704 157.865 365.331 158.681 365.028 159.054ZM358.42 160.166C362.884 162.612 370.41 161.34 375.864 157.132C378.111 155.397 383.11 150.646 380.994 144.004C379.836 140.371 377.173 137.111 373.494 134.823C370.835 133.171 367.976 132.301 365.333 132.301C364.433 132.301 363.559 132.402 362.726 132.607C361.096 133.008 359.66 133.791 358.42 134.928V137.359C358.585 137.291 358.754 137.234 358.93 137.194C359.808 136.995 360.767 137.163 361.634 137.671V137.672C363.133 138.553 363.933 140.14 363.625 141.62C363.331 143.037 361.863 145.071 360.606 145.804C359.874 146.231 359.24 146.38 358.713 146.38C358.608 146.38 358.516 146.364 358.42 146.353V160.166Z" fill="#72767D"/>
<path fill-rule="evenodd" clip-rule="evenodd" d="M371.749 148.767C371.965 150.474 372.443 151.021 372.609 151.088C373.76 151.549 375.087 151.283 376.252 150.359C377.594 149.293 378.347 147.608 378.125 146.167C377.986 145.265 376.706 143.81 375.022 143.082C374.711 142.948 374.106 142.725 373.507 142.725C373.163 142.725 372.821 142.799 372.539 143.006C372.063 143.355 371.402 146.028 371.749 148.767ZM359.599 144.077C360.351 143.638 361.492 142.059 361.668 141.213C361.814 140.511 361.252 139.767 360.621 139.396C360.302 139.209 359.973 139.112 359.669 139.112C359.569 139.112 359.471 139.122 359.377 139.143C358.984 139.234 358.669 139.502 358.42 139.848V144.298C358.688 144.448 359.081 144.379 359.599 144.077Z" fill="#36393F"/>
<path fill-rule="evenodd" clip-rule="evenodd" d="M363.183 157.766C363.181 157.763 363.179 157.76 363.176 157.757C363.032 157.568 362.251 157.154 361.414 157.048C361.13 157.013 360.93 157.023 360.8 157.046C361.304 157.405 362.495 157.758 363.183 157.766Z" fill="#4F545C"/>
<path fill-rule="evenodd" clip-rule="evenodd" d="M331.024 115.379C334.049 117.35 335.732 120.68 335.526 124.285C335.506 124.639 335.299 124.956 334.983 125.118C333.536 125.858 331.984 126.225 330.44 126.225C328.555 126.225 326.681 125.678 325.018 124.594C324 123.931 323.149 123.104 322.456 122.174V165.063C322.456 165.615 322.008 166.063 321.456 166.063C321.273 166.063 321.11 166 320.962 165.914V174.977C324.198 174.977 326.83 177.608 326.83 180.843V184.297C326.83 185.286 326.025 186.09 325.036 186.09H323.98C324.466 188.021 324.714 190.001 324.731 192H356.42V175.61C354.558 175.254 352.862 174.507 352.237 173.051C351.809 172.054 352.022 171.376 352.275 170.983C352.962 169.919 354.527 169.889 355.909 169.862C356.082 169.859 356.254 169.855 356.42 169.849V83.5275C354.821 86.0035 352.414 87.8815 349.466 88.8045C348.172 89.2095 346.856 89.4075 345.557 89.4075C342.374 89.4075 339.289 88.2175 336.851 85.9595C336.59 85.7185 336.476 85.3575 336.553 85.0105C337.469 80.8565 340.265 77.5545 344.118 75.9345C343.441 74.4775 343.108 72.8555 343.205 71.1655C343.226 70.8115 343.432 70.4945 343.749 70.3325C346.963 68.6875 350.689 68.8845 353.713 70.8565C354.799 71.5645 355.705 72.4525 356.42 73.4605V43.5905H322.456V114.276C325.318 113.312 328.429 113.687 331.024 115.379Z" fill="#36393F"/>
<path fill-rule="evenodd" clip-rule="evenodd" d="M322.739 192C322.721 189.996 322.429 188.017 321.898 186.09H320.027C319.497 188.016 319.205 189.995 319.188 192H322.739Z" fill="#4F545C"/>
<path fill-rule="evenodd" clip-rule="evenodd" d="M324.83 184.09V180.843C324.83 178.711 323.095 176.976 320.963 176.976C318.83 176.976 317.096 178.711 317.096 180.843V184.09H324.83Z" fill="#36393F"/>
<path fill-rule="evenodd" clip-rule="evenodd" d="M40.8301 192H43.0751V174.598H40.8301V192Z" fill="#36393E"/>
<path fill-rule="evenodd" clip-rule="evenodd" d="M37.7305 165.548V171.427C38.1985 171.753 38.6135 172.149 38.9635 172.597H46.1745V165.548C46.1745 163.22 44.2805 161.327 41.9535 161.327C39.6245 161.327 37.7305 163.22 37.7305 165.548Z" fill="#4F545C"/>
<path fill-rule="evenodd" clip-rule="evenodd" d="M57.0926 182.138H58.5426V179.255C58.5426 177.238 56.9016 175.596 54.8846 175.596C52.8666 175.596 51.2256 177.238 51.2256 179.255V182.138H52.6756H57.0926Z" fill="#72767D"/>
<path fill-rule="evenodd" clip-rule="evenodd" d="M53.6748 191.999H56.0918V184.138H53.6748V191.999Z" fill="#4F545C"/>
<path fill-rule="evenodd" clip-rule="evenodd" d="M36.0987 178.954H38.1647V176.071C38.1647 174.054 36.5237 172.413 34.5067 172.413C32.4897 172.413 30.8477 174.054 30.8477 176.071V178.954H32.9147H36.0987Z" fill="#36393E"/>
<path fill-rule="evenodd" clip-rule="evenodd" d="M33.915 191.999H35.099V180.954H33.915V191.999Z" fill="#4F545C"/>
<path fill-rule="evenodd" clip-rule="evenodd" d="M107.922 43.3404C109.059 40.9434 108.936 38.1974 107.561 35.8874C106.187 33.5764 103.833 32.1574 101.185 32.0124C100.047 34.4094 100.171 37.1544 101.546 39.4654C102.92 41.7764 105.274 43.1954 107.922 43.3404ZM397.72 89.9771C398.592 92.5201 400.605 94.3921 403.168 95.0771C404.772 92.9631 405.214 90.2511 404.342 87.7071C403.47 85.1641 401.457 83.2931 398.894 82.6081C397.29 84.7211 396.848 87.4341 397.72 89.9771Z" fill="#72767D"/>
<path fill-rule="evenodd" clip-rule="evenodd" d="M346.023 75.2779C349.425 74.4199 352.92 74.9609 355.845 76.7559C355.302 75.0489 354.196 73.5569 352.622 72.5309C350.37 71.0639 347.631 70.8259 345.19 71.8649C345.207 73.0779 345.503 74.2339 346.023 75.2779ZM326.11 122.918C328.363 124.387 331.102 124.623 333.542 123.585C333.506 120.932 332.185 118.522 329.932 117.054C327.68 115.586 324.942 115.349 322.5 116.388C322.537 119.04 323.858 121.45 326.11 122.918ZM268.92 64.9532C269.4 66.5212 270.558 67.7192 272.074 68.2492C273.033 66.9612 273.322 65.3202 272.842 63.7522C272.363 62.1842 271.205 60.9872 269.689 60.4562C268.729 61.7452 268.44 63.3862 268.92 64.9532ZM63.8675 134.005C66.4315 134.683 69.1085 134.06 71.1295 132.286C73.1495 130.512 74.1135 127.939 73.7715 125.308C71.2055 124.629 68.5305 125.252 66.5105 127.026C64.4905 128.8 63.5255 131.374 63.8675 134.005Z" fill="#4F545C"/>
<path fill-rule="evenodd" clip-rule="evenodd" d="M84.4159 79.4533C81.1979 77.5123 77.3479 77.3502 74.0059 78.9902C74.1139 82.7112 76.0519 86.0413 79.2699 87.9833C82.4889 89.9263 86.3389 90.0863 89.6809 88.4463C89.5729 84.7253 87.6349 81.3953 84.4159 79.4533Z" fill="#72767D"/>
<path fill-rule="evenodd" clip-rule="evenodd" d="M358.395 38.5396C359.541 42.0806 362.334 44.7346 365.968 45.6966C369.602 46.6546 373.343 45.7326 376.091 43.2236C374.945 39.6826 372.151 37.0276 368.518 36.0666C364.884 35.1036 361.143 36.0276 358.395 38.5396Z" fill="#4F545C"/>
<path fill-rule="evenodd" clip-rule="evenodd" d="M356.117 79.4083C353.26 77.0233 349.482 76.2663 345.893 77.3883C342.306 78.5123 339.634 81.2873 338.646 84.8763C341.504 87.2623 345.283 88.0193 348.87 86.8953C352.457 85.7723 355.13 82.9963 356.117 79.4083ZM362.192 173.743C368.418 172.764 371.428 168.239 372.115 164.662C372.43 163.022 372.181 162.001 371.968 161.686C369.285 162.821 366.484 163.421 363.871 163.421C361.903 163.421 360.043 163.087 358.421 162.4V169.474C360.203 168.976 362 168.191 362.672 167.18C362.979 166.721 363.599 166.597 364.059 166.901C364.519 167.207 364.644 167.827 364.338 168.287C362.906 170.44 359.119 171.423 357.558 171.745C357.102 171.84 356.541 171.85 355.947 171.862C355.421 171.872 354.369 171.892 354.004 172.057C354.016 172.104 354.037 172.171 354.076 172.262C354.763 173.865 359.721 174.132 362.192 173.743Z" fill="#72767D"/>
<path fill-rule="evenodd" clip-rule="evenodd" d="M244.772 197C243.666 197 242.61 196.785 241.636 196.408V199.538C241.636 205.212 239.427 210.545 235.414 214.558C235.408 214.564 235.403 214.571 235.397 214.577C239.477 214.234 243.433 213.793 247.241 213.265V196.639C246.457 196.871 245.63 197 244.772 197Z" fill="#36393E"/>
<path fill-rule="evenodd" clip-rule="evenodd" d="M239.553 199.538V195.251C239.436 195.164 239.317 195.08 239.205 194.988C238.219 196.885 236.969 198.654 235.414 200.207C231.792 203.831 229.799 208.643 229.799 213.761V214.982C230.678 214.929 231.551 214.869 232.421 214.807C232.895 214.213 233.392 213.635 233.937 213.09C237.559 209.467 239.553 204.655 239.553 199.538ZM182.852 199.017V196.92C181.265 196.716 179.812 196.086 178.609 195.147V212.767C182.022 213.3 185.567 213.76 189.227 214.142C189.157 214.069 189.096 213.99 189.025 213.919C185.045 209.939 182.852 204.646 182.852 199.017ZM272.927 201.608C271.349 201.608 270.064 200.323 270.064 198.745V177.029C270.064 175.451 271.349 174.165 272.927 174.165C274.506 174.165 275.791 175.451 275.791 177.029V198.745C275.791 200.323 274.506 201.608 272.927 201.608ZM278.134 175.444C278.134 172.573 275.799 170.238 272.927 170.238C270.055 170.238 267.72 172.573 267.72 175.444V200.257C267.72 203.129 270.055 205.464 272.927 205.464C275.799 205.464 278.134 203.129 278.134 200.257V175.444Z" fill="#36393E"/>
<path fill-rule="evenodd" clip-rule="evenodd" d="M190.19 194.377C188.819 195.776 186.984 196.715 184.935 196.942V199.017C184.935 204.091 186.911 208.861 190.498 212.446C191.125 213.074 191.688 213.745 192.221 214.436C193.004 214.507 193.789 214.577 194.582 214.641V206.51C194.582 202.023 193.029 197.779 190.19 194.377ZM163.992 184.947C164.549 184.947 165.003 184.493 165.003 183.936V168.831C164.319 168.668 163.646 168.501 162.98 168.331V183.936C162.98 184.493 163.434 184.947 163.992 184.947Z" fill="#36393E"/>
<path fill-rule="evenodd" clip-rule="evenodd" d="M163.993 191.656C167.088 191.656 169.604 189.138 169.604 186.045V169.847C168.753 169.673 167.915 169.491 167.087 169.307V183.936C167.087 185.642 165.699 187.029 163.993 187.029C162.286 187.029 160.899 185.642 160.899 183.936V167.778C160.043 167.544 159.203 167.305 158.381 167.06V186.045C158.381 189.138 160.899 191.656 163.993 191.656ZM198.819 179.122V179.062C197.745 180.011 196.351 180.605 194.809 180.605C194.06 180.605 193.347 180.459 192.687 180.206V182.51C193.304 182.897 194.028 183.131 194.809 183.131C197.02 183.131 198.819 181.333 198.819 179.122ZM284.512 174.657V202.858C285.98 202.061 287.28 201.236 288.439 200.39V164.64C288.439 164.065 288.905 163.599 289.481 163.599C290.056 163.599 290.522 164.065 290.522 164.64V198.702C292.951 196.455 294.275 194.075 294.275 191.622V153.974C291.53 157.906 286.038 161.472 278.429 164.47C282.049 166.431 284.512 170.261 284.512 174.657ZM230.146 179.245C231.132 177.372 232.399 175.637 233.938 174.099C234.198 173.839 234.441 173.567 234.684 173.295C234.671 173.282 234.661 173.266 234.648 173.253C233.871 173.313 233.087 173.367 232.3 173.42C231.271 175.23 230.538 177.19 230.146 179.245ZM229.799 189.118V204.619C230.827 202.468 232.202 200.474 233.938 198.738C235.522 197.155 236.773 195.335 237.704 193.37C236.667 191.935 236.049 190.18 236.049 188.28V176.707C236.049 176.166 235.941 175.654 235.781 175.166C235.656 175.298 235.543 175.437 235.414 175.566C231.792 179.189 229.799 183.999 229.799 189.118ZM198.798 174.725C198.79 174.583 198.757 174.449 198.736 174.311C198.095 174.046 197.473 173.747 196.87 173.416C195.948 173.354 195.025 173.291 194.116 173.22C193.235 174.121 192.688 175.35 192.688 176.707V177.903C193.302 178.292 194.028 178.522 194.81 178.522C196.947 178.522 198.684 176.835 198.798 174.725Z" fill="#36393E"/>
<path fill-rule="evenodd" clip-rule="evenodd" d="M249.324 195.703V212.968C251.007 212.717 252.653 212.446 254.27 212.161V184.172C254.27 183.596 254.736 183.13 255.312 183.13C255.887 183.13 256.353 183.596 256.353 184.172V211.782C258.058 211.46 259.723 211.12 261.342 210.763V195.277C261.342 194.701 261.808 194.235 262.383 194.235C262.959 194.235 263.425 194.701 263.425 195.277V210.283C266.971 209.445 270.297 208.525 273.337 207.526C273.2 207.534 273.065 207.547 272.927 207.547C268.908 207.547 265.637 204.276 265.637 200.257V175.444C265.637 171.426 268.908 168.155 272.927 168.155C276.946 168.155 280.216 171.426 280.216 175.444V200.257C280.216 202.68 279.023 204.825 277.199 206.151C279.073 205.436 280.829 204.695 282.429 203.922V174.657C282.429 170.336 279.524 166.685 275.566 165.54C272.563 166.598 269.274 167.57 265.748 168.454C264.304 170.12 263.425 172.286 263.425 174.657V188.935C263.425 189.511 262.959 189.976 262.383 189.976C261.808 189.976 261.342 189.511 261.342 188.935V174.657C261.342 172.676 261.844 170.809 262.725 169.177C260.673 169.643 258.548 170.08 256.353 170.486V176.585C256.353 177.161 255.887 177.627 255.312 177.627C254.736 177.627 254.27 177.161 254.27 176.585V170.86C254.011 170.905 253.753 170.949 253.492 170.993V188.28C253.492 191.418 251.819 194.167 249.324 195.703Z" fill="#36393E"/>
<path fill-rule="evenodd" clip-rule="evenodd" d="M273.708 177.029C273.708 176.598 273.358 176.248 272.927 176.248C272.504 176.248 272.146 176.606 272.146 177.029V198.745C272.146 199.168 272.504 199.526 272.927 199.526C273.358 199.526 273.708 199.175 273.708 198.745V177.029ZM138.769 157.919C137.184 156.653 135.906 155.336 134.956 153.975V191.623C134.956 194.095 136.303 196.492 138.769 198.755V157.919ZM151.458 164.733C149.518 163.989 147.725 163.206 146.058 162.393V183.082C146.058 183.657 145.592 184.123 145.017 184.123C144.441 184.123 143.976 183.657 143.976 183.082V161.319C142.862 160.712 141.809 160.091 140.852 159.452V200.436C141.791 201.117 142.834 201.782 143.976 202.432V188.88C143.976 188.305 144.441 187.839 145.017 187.839C145.592 187.839 146.058 188.305 146.058 188.88V203.547C147.703 204.375 149.503 205.172 151.458 205.934V164.733ZM198.819 193.101V189.33C198.819 188.754 199.285 188.289 199.861 188.289C200.436 188.289 200.902 188.754 200.902 189.33V193.101C200.902 193.676 200.436 194.142 199.861 194.142C199.285 194.142 198.819 193.676 198.819 193.101ZM204.026 175.658C202.953 175.547 201.914 175.329 200.902 175.046V179.122C200.902 182.48 198.168 185.214 194.809 185.214C194.062 185.214 193.349 185.072 192.687 184.825V188.28C192.687 189.893 192.239 191.399 191.473 192.696C194.819 196.53 196.664 201.374 196.664 206.51V214.796C199.082 214.97 201.537 215.11 204.026 215.214V175.658ZM170.202 209.585C170.202 210.161 169.736 210.626 169.16 210.626C168.585 210.626 168.119 210.161 168.119 209.585V205.072C168.119 202.295 165.861 200.038 163.085 200.038C160.31 200.038 158.053 202.295 158.053 205.072C158.053 205.647 157.587 206.113 157.012 206.113C156.436 206.113 155.97 205.647 155.97 205.072C155.97 201.148 159.162 197.955 163.085 197.955C167.01 197.955 170.202 201.148 170.202 205.072V209.585ZM176.527 192.81C175.719 191.487 175.244 189.94 175.244 188.28V170.911C174.038 170.706 172.853 170.49 171.687 170.266V186.045C171.687 190.288 168.235 193.739 163.993 193.739C159.75 193.739 156.298 190.288 156.298 186.045V166.424C155.354 166.122 154.436 165.812 153.541 165.496V206.717C156.594 207.813 159.969 208.826 163.606 209.748V209.41C163.606 207.878 162.361 206.634 160.83 206.634C160.254 206.634 159.788 206.168 159.788 205.592C159.788 205.017 160.254 204.551 160.83 204.551C163.51 204.551 165.689 206.731 165.689 209.41V210.256C169.099 211.065 172.719 211.796 176.527 212.434V192.81ZM216.175 205.044C215.599 205.044 215.133 204.578 215.133 204.002V181.646C215.133 181.071 215.599 180.605 216.175 180.605C216.751 180.605 217.217 181.071 217.217 181.646V204.002C217.217 204.578 216.751 205.044 216.175 205.044ZM227.716 182.871C227.716 179.952 228.31 177.128 229.424 174.523C227.738 175.16 225.944 175.563 224.071 175.694V189.33C224.071 189.906 223.606 190.372 223.03 190.372C222.455 190.372 221.989 189.906 221.989 189.33V175.761H212.01V183.082C212.01 183.658 211.544 184.124 210.968 184.124C210.393 184.124 209.927 183.658 209.927 183.082V175.761H206.109V215.296C207.374 215.338 208.647 215.371 209.927 215.394V194.178C209.927 193.603 210.393 193.137 210.968 193.137C211.544 193.137 212.01 193.603 212.01 194.178V215.421C212.877 215.43 213.742 215.441 214.615 215.441C214.789 215.441 214.96 215.438 215.133 215.438V212.681C215.133 212.106 215.599 211.64 216.175 211.64C216.751 211.64 217.217 212.106 217.217 212.681V215.421C218.818 215.405 220.41 215.377 221.989 215.331V195.816C221.989 195.24 222.455 194.774 223.03 194.774C223.606 194.774 224.071 195.24 224.071 195.816V215.259C225.294 215.213 226.509 215.16 227.716 215.097V182.871Z" fill="#36393E"/>
<path fill-rule="evenodd" clip-rule="evenodd" d="M176.527 192.81V212.434C177.214 212.549 177.912 212.658 178.61 212.767V195.147C177.782 194.501 177.077 193.709 176.527 192.81ZM191.474 192.696C191.113 193.307 190.684 193.873 190.191 194.377C193.03 197.779 194.582 202.024 194.582 206.51V214.641C195.272 214.697 195.969 214.746 196.665 214.796V206.51C196.665 201.374 194.82 196.53 191.474 192.696ZM184.936 199.017V196.942C184.618 196.978 184.295 196.999 183.968 196.999C183.589 196.999 183.219 196.967 182.853 196.92V199.017C182.853 204.646 185.046 209.939 189.026 213.919C189.097 213.99 189.158 214.069 189.228 214.142C190.219 214.245 191.215 214.344 192.222 214.435C191.689 213.745 191.125 213.074 190.498 212.446C186.912 208.861 184.936 204.091 184.936 199.017ZM160.83 204.551C160.254 204.551 159.788 205.016 159.788 205.592C159.788 206.168 160.254 206.634 160.83 206.634C162.361 206.634 163.606 207.878 163.606 209.409V209.747C164.29 209.921 164.987 210.089 165.689 210.256V209.409C165.689 206.731 163.51 204.551 160.83 204.551Z" fill="#4F545C"/>
<path fill-rule="evenodd" clip-rule="evenodd" d="M163.086 197.955C159.163 197.955 155.971 201.148 155.971 205.072C155.971 205.647 156.437 206.113 157.012 206.113C157.587 206.113 158.053 205.647 158.053 205.072C158.053 202.295 160.311 200.038 163.086 200.038C165.861 200.038 168.12 202.295 168.12 205.072V209.585C168.12 210.161 168.586 210.626 169.161 210.626C169.737 210.626 170.202 210.161 170.202 209.585V205.072C170.202 201.148 167.01 197.955 163.086 197.955ZM153.541 165.496C152.833 165.246 152.134 164.993 151.458 164.733V205.934C152.137 206.199 152.827 206.462 153.541 206.718V165.496ZM163.993 193.739C168.236 193.739 171.687 190.288 171.687 186.045V170.266C170.983 170.131 170.294 169.989 169.604 169.848V186.045C169.604 189.138 167.088 191.656 163.993 191.656C160.899 191.656 158.381 189.138 158.381 186.045V167.061C157.677 166.852 156.977 166.641 156.298 166.424V186.045C156.298 190.288 159.75 193.739 163.993 193.739Z" fill="#4F545C"/>
<path fill-rule="evenodd" clip-rule="evenodd" d="M163.993 187.029C165.699 187.029 167.087 185.642 167.087 183.936V169.307C166.386 169.151 165.687 168.994 165.004 168.831V183.936C165.004 184.493 164.55 184.946 163.993 184.946C163.435 184.946 162.981 184.493 162.981 183.936V168.331C162.275 168.151 161.585 167.965 160.899 167.778V183.936C160.899 185.642 162.286 187.029 163.993 187.029ZM145.017 184.123C145.592 184.123 146.058 183.657 146.058 183.081V162.393C145.337 162.04 144.643 161.683 143.975 161.319V183.081C143.975 183.657 144.441 184.123 145.017 184.123ZM146.058 188.88C146.058 188.304 145.592 187.839 145.017 187.839C144.441 187.839 143.975 188.304 143.975 188.88V202.432C144.638 202.809 145.331 203.182 146.058 203.548V188.88ZM140.852 159.452C140.102 158.951 139.419 158.438 138.769 157.919V198.755C139.39 199.325 140.092 199.885 140.852 200.436V159.452ZM206.109 175.761H205.999C205.333 175.761 204.675 175.725 204.026 175.657V215.214C204.719 215.243 205.411 215.273 206.109 215.296V175.761ZM200.902 179.122V175.046C200.162 174.84 199.436 174.602 198.735 174.311C198.757 174.449 198.79 174.583 198.798 174.725C198.684 176.835 196.947 178.522 194.809 178.522C194.027 178.522 193.302 178.292 192.687 177.903V180.206C193.347 180.459 194.06 180.605 194.809 180.605C196.351 180.605 197.745 180.011 198.819 179.062V179.122C198.819 181.333 197.02 183.131 194.809 183.131C194.028 183.131 193.304 182.897 192.687 182.51V184.825C193.349 185.072 194.062 185.214 194.809 185.214C198.168 185.214 200.902 182.48 200.902 179.122ZM210.969 193.136C210.393 193.136 209.927 193.602 209.927 194.178V215.393C210.619 215.406 211.315 215.413 212.011 215.42V194.178C212.011 193.602 211.545 193.136 210.969 193.136ZM210.969 184.123C211.545 184.123 212.011 183.657 212.011 183.081V175.761H209.927V183.081C209.927 183.657 210.393 184.123 210.969 184.123ZM217.217 181.646C217.217 181.071 216.751 180.605 216.175 180.605C215.6 180.605 215.134 181.071 215.134 181.646V204.002C215.134 204.578 215.6 205.044 216.175 205.044C216.751 205.044 217.217 204.578 217.217 204.002V181.646ZM216.175 211.639C215.599 211.639 215.133 212.105 215.133 212.68V215.437C215.831 215.435 216.523 215.427 217.217 215.42V212.68C217.217 212.105 216.751 211.639 216.175 211.639ZM200.902 193.101V189.33C200.902 188.754 200.436 188.289 199.86 188.289C199.285 188.289 198.819 188.754 198.819 189.33V193.101C198.819 193.676 199.285 194.142 199.86 194.142C200.436 194.142 200.902 193.676 200.902 193.101ZM223.03 190.371C223.606 190.371 224.072 189.905 224.072 189.329V175.693C223.629 175.724 223.188 175.761 222.738 175.761H221.989V189.329C221.989 189.905 222.455 190.371 223.03 190.371ZM223.03 194.774C222.455 194.774 221.989 195.24 221.989 195.816V215.33C222.686 215.31 223.379 215.284 224.072 215.258V195.816C224.072 195.24 223.606 194.774 223.03 194.774ZM235.415 200.207C236.97 198.654 238.22 196.885 239.206 194.988C238.638 194.516 238.137 193.97 237.705 193.371C236.774 195.335 235.522 197.156 233.938 198.739C232.203 200.475 230.828 202.469 229.8 204.62V189.119C229.8 183.999 231.793 179.189 235.415 175.567C235.544 175.438 235.657 175.298 235.782 175.166C235.551 174.462 235.181 173.824 234.684 173.295C234.441 173.567 234.198 173.839 233.938 174.099C232.4 175.637 231.132 177.373 230.146 179.245C230.539 177.19 231.272 175.23 232.301 173.42C232.134 173.432 231.969 173.445 231.802 173.456C231.042 173.87 230.242 174.214 229.424 174.523C228.311 177.128 227.717 179.952 227.717 182.871V215.097C228.413 215.061 229.109 215.024 229.8 214.982V213.761C229.8 208.644 231.793 203.832 235.415 200.207ZM241.636 199.538V196.408C240.886 196.117 240.187 195.726 239.553 195.251V199.538C239.553 204.655 237.56 209.467 233.938 213.09C233.393 213.635 232.896 214.213 232.422 214.807C233.42 214.735 234.412 214.659 235.398 214.577C235.404 214.571 235.408 214.564 235.414 214.558C239.427 210.545 241.636 205.212 241.636 199.538ZM247.241 196.638V213.264C247.939 213.168 248.637 213.071 249.324 212.968V195.703C248.679 196.1 247.982 196.418 247.241 196.638ZM256.353 184.172C256.353 183.596 255.887 183.13 255.312 183.13C254.736 183.13 254.27 183.596 254.27 184.172V212.161C254.971 212.037 255.666 211.912 256.353 211.782V184.172ZM255.312 177.627C255.887 177.627 256.353 177.161 256.353 176.585V170.486C255.664 170.613 254.973 170.739 254.27 170.86V176.585C254.27 177.161 254.736 177.627 255.312 177.627ZM282.429 174.657V203.922C283.152 203.573 283.848 203.219 284.512 202.858V174.657C284.512 170.261 282.049 166.431 278.428 164.47C277.502 164.835 276.553 165.193 275.566 165.54C279.524 166.685 282.429 170.336 282.429 174.657ZM261.342 188.935C261.342 189.511 261.808 189.977 262.383 189.977C262.959 189.977 263.425 189.511 263.425 188.935V174.657C263.425 172.287 264.304 170.121 265.748 168.455C264.759 168.703 263.752 168.944 262.725 169.177C261.844 170.81 261.342 172.676 261.342 174.657V188.935ZM262.383 194.235C261.808 194.235 261.342 194.701 261.342 195.277V210.762C262.047 210.607 262.737 210.445 263.425 210.283V195.277C263.425 194.701 262.959 194.235 262.383 194.235Z" fill="#4F545C"/>
<path fill-rule="evenodd" clip-rule="evenodd" d="M272.927 205.464C270.055 205.464 267.72 203.129 267.72 200.257V175.444C267.72 172.572 270.055 170.237 272.927 170.237C275.799 170.237 278.134 172.572 278.134 175.444V200.257C278.134 203.129 275.799 205.464 272.927 205.464ZM280.217 200.257V175.444C280.217 171.425 276.946 168.155 272.927 168.155C268.908 168.155 265.638 171.425 265.638 175.444V200.257C265.638 204.276 268.908 207.547 272.927 207.547C273.066 207.547 273.201 207.533 273.338 207.526C274.685 207.083 275.963 206.621 277.199 206.151C279.024 204.824 280.217 202.68 280.217 200.257Z" fill="#4F545C"/>
<path fill-rule="evenodd" clip-rule="evenodd" d="M272.927 199.525C272.504 199.525 272.146 199.167 272.146 198.744V177.028C272.146 176.606 272.504 176.248 272.927 176.248C273.359 176.248 273.708 176.597 273.708 177.028V198.744C273.708 199.175 273.359 199.525 272.927 199.525ZM275.791 177.028C275.791 175.45 274.506 174.165 272.927 174.165C271.349 174.165 270.064 175.45 270.064 177.028V198.744C270.064 200.322 271.349 201.608 272.927 201.608C274.506 201.608 275.791 200.322 275.791 198.744V177.028ZM290.522 164.641C290.522 164.065 290.056 163.599 289.48 163.599C288.905 163.599 288.439 164.065 288.439 164.641V200.391C289.199 199.837 289.903 199.275 290.522 198.703V164.641ZM207.117 76.2223L213.676 88.1833C213.897 88.5863 214.278 88.6303 214.431 88.6303C214.584 88.6303 214.965 88.5863 215.186 88.1833L221.745 76.2223C223.406 73.1943 223.01 69.3983 220.76 66.7773C219.174 64.9303 216.867 63.8693 214.431 63.8693C211.995 63.8693 209.688 64.9303 208.102 66.7773C205.852 69.3983 205.456 73.1943 207.117 76.2223Z" fill="#4F545C"/>
<path fill-rule="evenodd" clip-rule="evenodd" d="M247.368 171.909H236.132C237.317 173.163 238.049 174.85 238.049 176.707V188.28C238.049 191.985 241.064 195 244.769 195C248.477 195 251.492 191.985 251.492 188.28V171.445C250.162 171.741 248.785 171.909 247.368 171.909ZM192.604 171.909H181.368C179.95 171.909 178.573 171.741 177.244 171.445V188.28C177.244 191.985 180.258 195 183.964 195C187.672 195 190.687 191.985 190.687 188.28V176.707C190.687 174.85 191.419 173.163 192.604 171.909Z" fill="#72767D"/>
<path fill-rule="evenodd" clip-rule="evenodd" d="M168.368 109.09C171.77 105.887 176.338 103.908 181.368 103.908H247.368C252.398 103.908 256.966 105.887 260.368 109.09V108.361C260.368 101.192 254.536 95.3615 247.368 95.3615H181.368C174.2 95.3615 168.368 101.192 168.368 108.361V109.09Z" fill="#4F545C"/>
<path fill-rule="evenodd" clip-rule="evenodd" d="M245.797 140.331C246.373 139.734 247.323 139.72 247.918 140.295C249.658 141.977 253.074 141.978 254.814 140.295C255.409 139.72 256.359 139.734 256.935 140.331C257.511 140.927 257.495 141.876 256.899 142.452C255.451 143.852 253.409 144.551 251.366 144.551C249.323 144.551 247.281 143.852 245.833 142.452C245.237 141.876 245.221 140.927 245.797 140.331ZM182.902 142.452C181.454 143.852 179.411 144.552 177.369 144.552C175.326 144.552 173.284 143.852 171.836 142.452C171.24 141.876 171.224 140.926 171.8 140.331C172.376 139.734 173.326 139.72 173.921 140.295C175.661 141.978 179.077 141.977 180.817 140.295C181.412 139.72 182.362 139.734 182.938 140.331C183.514 140.927 183.498 141.876 182.902 142.452ZM164.435 121.569H166.777C167.329 121.569 167.777 122.017 167.777 122.569C167.777 123.122 167.329 123.569 166.777 123.569H159.784C155.373 123.569 151.784 127.158 151.784 131.569V142.111C151.784 146.522 155.373 150.111 159.784 150.111H166.777C167.329 150.111 167.777 150.559 167.777 151.111C167.777 151.663 167.329 152.111 166.777 152.111H164.367V152.909C164.367 162.283 171.993 169.909 181.367 169.909H192.314C189.03 166.492 186.998 161.863 186.998 156.761V142.19C186.998 137.779 190.587 134.19 194.998 134.19H222.419C222.971 134.19 223.419 134.638 223.419 135.19H227.666C227.666 134.638 228.114 134.19 228.666 134.19H233.737C238.148 134.19 241.737 137.779 241.737 142.19V144.934C242.266 144.86 242.802 144.809 243.351 144.809C249.818 144.809 255.081 150.071 255.081 156.539C255.081 163.007 249.818 168.269 243.351 168.269H237.819C237.382 168.841 236.919 169.391 236.421 169.909H247.367C256.741 169.909 264.367 162.283 264.367 152.909V152.111H262.374C261.822 152.111 261.374 151.663 261.374 151.111C261.374 150.559 261.822 150.111 262.374 150.111H269.367C273.778 150.111 277.367 146.522 277.367 142.111V131.569C277.367 127.158 273.778 123.569 269.367 123.569H262.374C261.822 123.569 261.374 123.122 261.374 122.569C261.374 122.017 261.822 121.569 262.374 121.569H264.299C263.612 112.821 256.289 105.909 247.367 105.909H181.367C172.445 105.909 165.122 112.821 164.435 121.569Z" fill="#72767D"/>
<path fill-rule="evenodd" clip-rule="evenodd" d="M222.419 136.19H194.998C191.69 136.19 188.998 138.881 188.998 142.19V146.057C190.224 144.014 192.455 142.635 194.998 142.635H233.737C236.048 142.635 238.102 143.776 239.378 145.516C239.498 145.473 239.615 145.424 239.737 145.385V142.19C239.737 138.881 237.045 136.19 233.737 136.19H228.666C228.114 136.19 227.666 135.742 227.666 135.19H223.419C223.419 135.742 222.971 136.19 222.419 136.19Z" fill="#72767D"/>
<path fill-rule="evenodd" clip-rule="evenodd" d="M208.998 162.269C210.648 162.269 211.998 163.619 211.998 165.269C211.998 166.919 210.648 168.269 208.998 168.269H202.998C201.348 168.269 199.998 166.919 199.998 165.269C199.998 163.619 201.348 162.269 202.998 162.269H208.998ZM233.737 142.635H194.998C192.455 142.635 190.224 144.014 188.998 146.057V156.761C188.998 166.135 196.624 173.761 205.998 173.761H222.737C227.669 173.761 232.104 171.636 235.213 168.269H226.254C226.187 168.269 226.125 168.248 226.061 168.236C225.954 168.248 225.848 168.269 225.737 168.269H219.737C218.087 168.269 216.737 166.919 216.737 165.269C216.737 163.619 218.087 162.269 219.737 162.269H225.737C227.034 162.269 228.135 163.109 228.551 164.268C230.056 162.701 231.62 160.202 231.62 156.539C231.62 151.467 234.862 147.149 239.378 145.516C238.102 143.776 236.048 142.635 233.737 142.635Z" fill="#B9BBBE"/>
<path fill-rule="evenodd" clip-rule="evenodd" d="M225.737 162.269H219.737C218.087 162.269 216.737 163.619 216.737 165.269C216.737 166.919 218.087 168.269 219.737 168.269H225.737C225.848 168.269 225.954 168.248 226.062 168.236C225.682 168.16 225.368 167.881 225.279 167.492C225.175 167.037 225.4 166.571 225.82 166.369C225.929 166.314 227.217 165.656 228.551 164.268C228.135 163.109 227.034 162.269 225.737 162.269ZM202.998 162.269C201.348 162.269 199.998 163.619 199.998 165.269C199.998 166.919 201.348 168.269 202.998 168.269H208.998C210.648 168.269 211.998 166.919 211.998 165.269C211.998 163.619 210.648 162.269 208.998 162.269H202.998ZM155.784 141.111C155.784 143.872 158.023 146.111 160.784 146.111H163.777C164.33 146.111 164.777 145.663 164.777 145.111V128.57C164.777 128.018 164.33 127.57 163.777 127.57H160.784C158.023 127.57 155.784 129.808 155.784 132.57V141.111ZM265.374 146.111H268.367C271.128 146.111 273.367 143.872 273.367 141.111V132.57C273.367 129.808 271.128 127.57 268.367 127.57H265.374C264.822 127.57 264.374 128.018 264.374 128.57V145.111C264.374 145.663 264.822 146.111 265.374 146.111Z" fill="#4F545C"/>
<path fill-rule="evenodd" clip-rule="evenodd" d="M229.369 166.269H243.351C248.716 166.269 253.081 161.904 253.081 156.539C253.081 151.174 248.716 146.809 243.351 146.809C237.986 146.809 233.62 151.174 233.62 156.539C233.62 161.356 231.321 164.483 229.369 166.269Z" fill="#B9BBBE"/>
<path fill-rule="evenodd" clip-rule="evenodd" d="M372.539 143.006C372.821 142.799 373.164 142.725 373.508 142.725C374.106 142.725 374.712 142.948 375.022 143.082C376.706 143.81 377.986 145.265 378.125 146.168C378.347 147.609 377.595 149.293 376.253 150.359C375.087 151.283 373.76 151.549 372.61 151.089C372.444 151.022 371.965 150.474 371.749 148.767C371.403 146.028 372.063 143.356 372.539 143.006ZM371.865 152.944C372.469 153.187 373.106 153.306 373.751 153.306C375.037 153.305 376.353 152.833 377.497 151.925C379.412 150.404 380.435 148.025 380.102 145.863C379.806 143.94 377.673 142.049 375.816 141.246C374.087 140.499 372.502 140.549 371.355 141.394C369.761 142.566 369.464 146.636 369.765 149.018C370.034 151.143 370.76 152.501 371.865 152.944ZM360.264 155.117C359.36 155.34 358.775 155.964 358.658 156.83C358.586 157.366 358.74 158.384 360.576 159.176C361.208 159.448 362.239 159.756 363.191 159.756C363.923 159.756 364.607 159.574 365.028 159.054C365.331 158.68 365.704 157.865 364.808 156.599C364.045 155.524 361.708 154.765 360.264 155.117ZM329.933 117.054C332.185 118.522 333.507 120.932 333.543 123.585C331.103 124.623 328.364 124.387 326.111 122.918C324.404 121.806 323.232 120.152 322.748 118.262C322.463 117.146 323.251 116.024 324.389 115.846C326.29 115.547 328.248 115.956 329.933 117.054ZM320.963 165.913C321.111 166 321.273 166.062 321.457 166.062C322.009 166.062 322.457 165.615 322.457 165.062V122.174C323.15 123.103 324 123.93 325.018 124.594C326.682 125.678 328.556 126.225 330.441 126.225C331.985 126.225 333.536 125.858 334.983 125.118C335.296 124.958 335.507 124.633 335.527 124.282C335.732 120.678 334.049 117.349 331.025 115.379C329.079 114.11 326.842 113.581 324.638 113.804C323.46 113.923 322.457 112.94 322.457 111.755V43.5908V40.9998C322.457 40.4478 322.009 39.9998 321.457 39.9998C320.905 39.9998 320.457 40.4478 320.457 40.9998V44.9998V165.062C320.457 165.431 320.666 165.74 320.963 165.913ZM42.2256 81.3892C42.7776 81.3892 43.2256 80.9412 43.2256 80.3892V78.6402C43.2256 78.0882 42.7776 77.6402 42.2256 77.6402C41.6736 77.6402 41.2256 78.0882 41.2256 78.6402V80.3892C41.2256 80.9412 41.6736 81.3892 42.2256 81.3892ZM163.882 95.3609C164.28 95.3609 164.617 95.1239 164.778 94.7879C164.84 94.6569 164.882 94.5149 164.882 94.3609V0.999878C164.882 0.446878 164.434 -0.00012207 163.882 -0.00012207C163.33 -0.00012207 162.882 0.446878 162.882 0.999878V24.9999V94.3609C162.882 94.9129 163.33 95.3609 163.882 95.3609ZM357.42 27.0011C357.972 27.0011 358.42 26.5531 358.42 26.0011V23.7181C358.42 23.1661 357.972 22.7181 357.42 22.7181C356.868 22.7181 356.42 23.1661 356.42 23.7181V26.0011C356.42 26.5531 356.868 27.0011 357.42 27.0011ZM398.895 82.608C401.458 83.293 403.47 85.164 404.342 87.708C404.353 87.742 404.365 87.776 404.376 87.81C405.769 92.051 399.235 94.262 397.746 90.053L397.72 89.977C396.848 87.434 397.291 84.721 398.895 82.608ZM403.36 97.171C403.423 97.184 403.486 97.19 403.549 97.19C403.834 97.19 404.109 97.067 404.301 96.849C406.682 94.135 407.405 90.475 406.234 87.059C405.063 83.644 402.248 81.196 398.702 80.513C398.352 80.443 397.995 80.568 397.761 80.836C395.38 83.55 394.657 87.21 395.828 90.626C396.998 94.041 399.814 96.488 403.36 97.171ZM269.689 60.4566C271.205 60.9866 272.363 62.1846 272.843 63.7526C273.323 65.3206 273.034 66.9606 272.075 68.2496C270.559 67.7186 269.4 66.5206 268.92 64.9536C268.44 63.3856 268.73 61.7446 269.689 60.4566ZM272.202 70.3636C272.275 70.3796 272.35 70.3886 272.423 70.3886C272.696 70.3886 272.961 70.2766 273.153 70.0726C274.907 68.2016 275.506 65.6196 274.755 63.1666C274.004 60.7146 272.063 58.9106 269.562 58.3426C269.216 58.2656 268.854 58.3736 268.611 58.6336C266.856 60.5046 266.257 63.0856 267.008 65.5386C267.759 67.9916 269.701 69.7946 272.202 70.3636ZM55.4624 50.6759C56.4574 49.3729 57.9754 48.6669 59.5664 48.6819C60.0174 50.2239 59.7174 51.8629 58.7224 53.1659C57.7274 54.4689 56.2044 55.1869 54.6194 55.1589C54.1684 53.6179 54.4674 51.9789 55.4624 50.6759ZM53.7654 57.0969C54.0874 57.1399 54.4064 57.1609 54.7234 57.1609C56.9124 57.1609 58.9524 56.1599 60.3124 54.3799C61.8694 52.3419 62.2054 49.7129 61.2114 47.3479C61.0734 47.0209 60.7724 46.7909 60.4204 46.7439C57.8784 46.4079 55.4294 47.4239 53.8734 49.4619C52.3164 51.5009 51.9804 54.1289 52.9744 56.4939C53.1124 56.8209 53.4134 57.0509 53.7654 57.0969ZM66.5103 127.027C67.4433 126.208 68.5153 125.634 69.6513 125.32C72.0763 124.651 74.2043 127.074 73.2273 129.392C72.7693 130.479 72.0623 131.468 71.1293 132.287C69.1083 134.061 66.4313 134.684 63.8673 134.006C63.5263 131.375 64.4903 128.801 66.5103 127.027ZM62.6603 135.728C63.7363 136.096 64.8353 136.277 65.9223 136.277C68.2863 136.277 70.5903 135.422 72.4483 133.79C75.1623 131.407 76.3533 127.872 75.6353 124.333C75.5653 123.985 75.3153 123.701 74.9793 123.586C71.5633 122.418 67.9043 123.142 65.1913 125.524C62.4773 127.907 61.2863 131.442 62.0043 134.981C62.0743 135.329 62.3243 135.613 62.6603 135.728ZM282.151 77.3575C284.439 74.3745 287.965 72.8205 291.673 73.1265C292.931 76.6295 292.343 80.4375 290.055 83.4205C287.767 86.4035 284.241 87.9575 280.532 87.6515C279.275 84.1485 279.863 80.3395 282.151 77.3575ZM279.687 89.5705C280.283 89.6505 280.876 89.6905 281.463 89.6905C285.446 89.6905 289.16 87.8735 291.642 84.6375C294.49 80.9245 295.113 76.1295 293.308 71.8125C293.171 71.4845 292.871 71.2545 292.519 71.2075C287.88 70.5865 283.412 72.4275 280.564 76.1405C277.716 79.8535 277.093 84.6475 278.898 88.9655C279.035 89.2935 279.335 89.5235 279.687 89.5705Z" fill="#202225"/>
<path fill-rule="evenodd" clip-rule="evenodd" d="M354.075 172.261C354.036 172.17 354.015 172.103 354.004 172.056C354.368 171.891 355.42 171.871 355.947 171.861C356.54 171.85 357.101 171.839 357.557 171.745C359.118 171.422 362.906 170.44 364.337 168.287C364.643 167.827 364.518 167.206 364.058 166.901C363.598 166.596 362.978 166.72 362.672 167.179C362.4 167.588 361.945 167.96 361.381 168.29C360.07 169.059 358.42 168.055 358.42 166.535V162.4C360.042 163.086 361.902 163.421 363.87 163.421C366.484 163.421 369.284 162.82 371.967 161.686C372.18 162.001 372.429 163.022 372.115 164.661C371.428 168.239 368.417 172.763 362.191 173.742C359.72 174.131 354.762 173.864 354.075 172.261ZM368.518 36.0663C371.635 36.8913 374.134 38.9623 375.505 41.7693C375.918 42.6153 375.639 43.6663 374.863 44.1963C372.282 45.9573 369.085 46.5183 365.968 45.6963C362.85 44.8713 360.351 42.8003 358.981 39.9923C358.568 39.1473 358.846 38.0963 359.622 37.5663C362.203 35.8033 365.4 35.2403 368.518 36.0663ZM358.42 144.297V139.847C358.668 139.501 358.983 139.233 359.377 139.143C359.471 139.121 359.568 139.111 359.668 139.111C359.972 139.111 360.302 139.208 360.621 139.396C361.251 139.767 361.813 140.51 361.667 141.212C361.492 142.058 360.35 143.637 359.598 144.076C359.081 144.378 358.688 144.447 358.42 144.297ZM362.726 132.607C363.559 132.402 364.433 132.301 365.333 132.301C367.975 132.301 370.835 133.171 373.494 134.823C377.173 137.111 379.836 140.371 380.994 144.004C383.11 150.646 378.111 155.397 375.864 157.132C370.409 161.34 362.884 162.612 358.42 160.166V146.353C358.516 146.364 358.608 146.38 358.713 146.38C359.24 146.38 359.873 146.231 360.606 145.804C361.863 145.071 363.331 143.037 363.625 141.619C363.933 140.139 363.133 138.553 361.634 137.672C361.634 137.671 361.634 137.671 361.634 137.671C360.766 137.163 359.807 136.994 358.93 137.194C358.754 137.234 358.585 137.291 358.42 137.359V134.928C359.659 133.791 361.096 133.008 362.726 132.607ZM317.096 184.09V180.843C317.096 178.71 318.83 176.976 320.962 176.976C323.095 176.976 324.829 178.71 324.829 180.843V184.09H317.096ZM319.187 191.999C319.205 189.994 319.496 188.015 320.026 186.09H321.898C322.429 188.016 322.72 189.995 322.738 191.999H319.187ZM267.783 165.751C265.235 166.444 263.133 163.807 264.327 161.453C265.631 158.885 266.367 155.982 266.367 152.908V152.111H269.367C274.89 152.111 279.367 147.634 279.367 142.111V139.23C279.367 136.974 281.766 135.531 283.767 136.571C290.426 140.032 294.274 144.004 294.274 148.19C294.274 155.058 283.947 161.358 267.783 165.751ZM294.274 191.622C294.274 194.075 292.95 196.455 290.521 198.702C289.903 199.274 289.198 199.836 288.438 200.39C287.279 201.236 285.979 202.061 284.511 202.858C283.848 203.219 283.151 203.573 282.429 203.922C280.828 204.695 279.073 205.436 277.199 206.151C275.962 206.621 274.684 207.083 273.337 207.526C270.297 208.525 266.971 209.445 263.424 210.283C262.737 210.446 262.046 210.607 261.342 210.762C259.722 211.12 258.057 211.46 256.352 211.782C255.665 211.911 254.97 212.037 254.27 212.16C252.653 212.446 251.007 212.717 249.324 212.968C248.636 213.071 247.939 213.168 247.241 213.264C243.433 213.793 239.477 214.233 235.397 214.576C234.412 214.658 233.42 214.735 232.421 214.806C231.551 214.868 230.679 214.928 229.799 214.982C229.108 215.024 228.412 215.06 227.716 215.096C226.509 215.159 225.294 215.213 224.071 215.258C223.378 215.284 222.686 215.31 221.989 215.33C220.409 215.376 218.817 215.404 217.216 215.42C216.523 215.427 215.83 215.435 215.133 215.437C214.96 215.437 214.788 215.441 214.615 215.441C213.742 215.441 212.876 215.429 212.01 215.42C211.314 215.413 210.618 215.406 209.927 215.393C208.647 215.37 207.373 215.338 206.108 215.296C205.41 215.272 204.718 215.242 204.025 215.214C201.536 215.11 199.082 214.969 196.664 214.796C195.968 214.745 195.271 214.697 194.581 214.641C193.788 214.577 193.004 214.507 192.221 214.435C191.214 214.344 190.218 214.245 189.227 214.142C185.567 213.76 182.022 213.3 178.609 212.766C177.911 212.657 177.213 212.549 176.527 212.433C172.718 211.796 169.099 211.065 165.688 210.256C164.986 210.089 164.289 209.921 163.606 209.747C159.969 208.825 156.593 207.812 153.54 206.717C152.826 206.461 152.137 206.199 151.457 205.934C149.503 205.172 147.702 204.374 146.057 203.547C145.33 203.181 144.638 202.809 143.975 202.432C142.834 201.782 141.79 201.116 140.851 200.435C140.091 199.884 139.389 199.324 138.768 198.755C136.302 196.492 134.955 194.094 134.955 191.622V159.63C134.955 157.685 137.197 156.657 138.713 157.875C138.732 157.889 138.75 157.904 138.768 157.919C139.418 158.438 140.101 158.95 140.851 159.451C141.808 160.091 142.861 160.711 143.975 161.319C144.642 161.682 145.336 162.04 146.057 162.392C147.724 163.205 149.517 163.989 151.457 164.733C152.134 164.992 152.832 165.245 153.54 165.495C154.435 165.812 155.353 166.122 156.297 166.424C156.976 166.641 157.676 166.851 158.38 167.06C159.202 167.305 160.042 167.544 160.898 167.778C161.584 167.965 162.274 168.151 162.98 168.331C163.646 168.5 164.319 168.668 165.003 168.831C165.686 168.994 166.385 169.151 167.086 169.307C167.914 169.491 168.752 169.673 169.603 169.847C170.293 169.989 170.982 170.131 171.686 170.266C172.853 170.49 174.037 170.705 175.243 170.911V188.28C175.243 189.94 175.718 191.487 176.527 192.809C177.076 193.708 177.782 194.5 178.609 195.147C179.812 196.086 181.265 196.716 182.852 196.92C183.218 196.967 183.588 196.999 183.967 196.999C184.294 196.999 184.617 196.978 184.935 196.942C186.984 196.715 188.819 195.776 190.19 194.377C190.683 193.873 191.112 193.306 191.473 192.696C192.239 191.398 192.687 189.892 192.687 188.28V184.824V182.509V180.205V177.902V176.707C192.687 175.35 193.234 174.121 194.115 173.219C195.024 173.291 195.947 173.353 196.869 173.415C197.472 173.747 198.095 174.045 198.735 174.311C199.435 174.602 200.162 174.839 200.902 175.046C201.914 175.328 202.953 175.546 204.025 175.657C204.674 175.724 205.332 175.761 205.998 175.761H206.108H209.927H212.01H221.989H222.737C223.187 175.761 223.629 175.724 224.071 175.693C225.944 175.562 227.738 175.159 229.423 174.523C230.241 174.214 231.041 173.869 231.801 173.455L231.81 173.452C232.761 173.389 233.71 173.324 234.648 173.252C234.66 173.265 234.67 173.282 234.683 173.295C235.179 173.823 235.55 174.461 235.781 175.166C235.94 175.654 236.049 176.166 236.049 176.707V188.28C236.049 190.18 236.667 191.935 237.703 193.37C238.136 193.969 238.637 194.515 239.205 194.987C239.317 195.08 239.436 195.163 239.553 195.25C240.187 195.726 240.885 196.116 241.636 196.407C242.61 196.784 243.665 196.999 244.772 196.999C245.63 196.999 246.457 196.87 247.241 196.638C247.982 196.418 248.679 196.1 249.324 195.703C251.819 194.167 253.492 191.418 253.492 188.28V170.993C253.752 170.949 254.011 170.905 254.27 170.86C254.972 170.739 255.663 170.613 256.352 170.486C258.548 170.08 260.672 169.643 262.724 169.177C263.752 168.944 264.759 168.702 265.748 168.454C269.274 167.57 272.562 166.597 275.565 165.54C276.552 165.193 277.502 164.835 278.428 164.47C283.457 162.489 287.561 160.259 290.558 157.84C292.054 156.633 294.274 157.703 294.274 159.625V191.622ZM149.784 139.27V142.111C149.784 147.634 154.261 152.111 159.784 152.111H162.367V152.908C162.367 155.924 163.075 158.775 164.331 161.309C165.502 163.67 163.39 166.287 160.85 165.583C145.031 161.198 134.955 154.972 134.955 148.19C134.955 144.021 138.771 140.064 145.381 136.613C147.381 135.569 149.784 137.013 149.784 139.27ZM192.604 171.908C191.419 173.163 190.687 174.849 190.687 176.707V188.041C190.687 191.457 188.238 194.506 184.85 194.942C180.751 195.469 177.243 192.276 177.243 188.28V174.877C177.243 173.186 178.643 171.782 180.331 171.879C180.674 171.898 181.019 171.908 181.367 171.908H192.604ZM231.826 163.266C232.851 161.544 233.62 159.324 233.62 156.54C233.621 152.751 235.679 149.176 239.165 147.691C246.446 144.59 253.471 150.124 253.064 157.117C252.762 162.315 248.235 166.269 243.029 166.269H233.55C232.005 166.269 231.036 164.593 231.826 163.266ZM236.132 171.908H247.367C247.716 171.908 248.061 171.898 248.404 171.879C250.092 171.782 251.492 173.186 251.492 174.877V188.041C251.492 191.457 249.043 194.506 245.656 194.942C241.557 195.47 238.049 192.277 238.049 188.28V176.707C238.049 174.849 237.316 173.163 236.132 171.908ZM151.784 131.569C151.784 127.151 155.366 123.569 159.784 123.569H166.777C167.329 123.569 167.777 123.121 167.777 122.569C167.777 122.017 167.329 121.569 166.777 121.569H166.361C165.319 121.569 164.504 120.623 164.706 119.602C166.249 111.806 173.126 105.908 181.367 105.908H247.367C255.609 105.908 262.486 111.806 264.029 119.602C264.231 120.623 263.416 121.569 262.374 121.569C261.822 121.569 261.374 122.017 261.374 122.569C261.374 123.121 261.822 123.569 262.374 123.569H269.367C273.786 123.569 277.367 127.151 277.367 131.569V142.111C277.367 146.529 273.786 150.111 269.367 150.111H262.374C261.822 150.111 261.374 150.558 261.374 151.111C261.374 151.663 261.822 152.111 262.374 152.111H263.57C264.01 152.111 264.367 152.468 264.367 152.908C264.367 162.297 256.756 169.908 247.367 169.908H236.421C236.919 169.39 237.383 168.841 237.82 168.269H243.007C249.112 168.269 254.455 163.747 255.028 157.67C255.684 150.696 250.192 144.809 243.351 144.809H243.266C242.426 144.81 241.737 144.122 241.737 143.281V142.19C241.737 137.771 238.156 134.19 233.737 134.19H228.666C228.114 134.19 227.666 134.637 227.666 135.19C227.666 135.742 228.114 136.19 228.666 136.19H233.737C237.051 136.19 239.737 138.876 239.737 142.19V143.398C239.165 144.348 238.717 145.094 238.145 146.044C234.283 147.965 231.62 151.942 231.62 156.539C231.62 160.201 230.056 162.701 228.552 164.268C227.218 165.656 225.929 166.314 225.82 166.368C225.4 166.571 225.176 167.037 225.28 167.492C225.368 167.881 225.682 168.16 226.062 168.236C226.126 168.248 226.187 168.269 226.254 168.269H235.213C232.105 171.636 227.67 173.761 222.737 173.761H205.998C196.61 173.761 188.998 166.149 188.998 156.761V146.056V142.19C188.998 138.876 191.685 136.19 194.998 136.19H222.419C222.971 136.19 223.419 135.742 223.419 135.19C223.419 134.637 222.971 134.19 222.419 134.19H194.998C190.58 134.19 186.998 137.771 186.998 142.19V156.761C186.998 161.109 188.474 165.114 190.944 168.317C191.444 168.967 190.959 169.908 190.139 169.908H181.367C171.979 169.908 164.367 162.297 164.367 152.908C164.367 152.468 164.725 152.111 165.165 152.111H166.777C167.329 152.111 167.777 151.663 167.777 151.111C167.777 150.558 167.329 150.111 166.777 150.111H159.784C155.366 150.111 151.784 146.529 151.784 142.111V131.569ZM168.367 108.361C168.367 101.192 174.199 95.3613 181.367 95.3613H247.367C254.536 95.3613 260.367 101.192 260.367 108.361V109.09C256.965 105.887 252.398 103.908 247.367 103.908H181.367C176.337 103.908 171.77 105.887 168.367 109.09V108.361ZM348.869 86.8953C345.506 87.9483 341.975 87.3493 339.192 85.3043C338.856 85.0573 338.715 84.6073 338.85 84.2123C339.971 80.9463 342.53 78.4413 345.892 77.3883C349.256 76.3373 352.787 76.9353 355.569 78.9793C355.906 79.2263 356.047 79.6773 355.911 80.0723C354.79 83.3383 352.231 85.8433 348.869 86.8953ZM352.621 72.5313C353.234 72.9303 353.776 73.4013 354.242 73.9273C354.906 74.6783 354.112 75.8233 353.158 75.5103C350.89 74.7643 348.433 74.6703 346.022 75.2783C345.623 74.4753 345.355 73.6063 345.245 72.6973C345.183 72.1893 345.495 71.7253 345.984 71.5743C348.212 70.8913 350.611 71.2213 352.621 72.5313ZM419.615 191.999H369.42C363.345 191.999 358.42 187.074 358.42 180.999V175.853C358.883 175.882 359.338 175.896 359.768 175.896C360.953 175.896 361.962 175.803 362.502 175.718C369.532 174.613 373.416 169.362 374.146 164.648C374.244 164.015 374.278 163.422 374.252 162.879C374.188 161.519 374.895 160.251 376.021 159.485C376.383 159.24 376.738 158.984 377.085 158.715C382.541 154.505 384.66 148.922 382.899 143.397C381.598 139.311 378.633 135.663 374.55 133.125C370.53 130.626 366.044 129.73 362.248 130.665L362.206 130.675C360.282 131.153 358.42 129.697 358.42 127.713V42.8863C360.122 45.1793 362.559 46.8633 365.456 47.6293C366.576 47.9263 367.704 48.0713 368.819 48.0713C372.2 48.0713 375.449 46.7343 377.922 44.2363C378.176 43.9803 378.277 43.5973 378.184 43.2493C376.97 38.7363 373.548 35.3283 369.03 34.1333C366.332 33.4193 363.587 33.5853 361.112 34.5403C359.812 35.0423 358.42 34.0643 358.42 32.6713V30.9993C358.42 30.4473 357.972 29.9993 357.42 29.9993C356.867 29.9993 356.42 30.4473 356.42 30.9993V69.4313C356.42 70.8043 354.895 71.6293 353.745 70.8773L353.713 70.8563C350.693 68.8863 346.973 68.6883 343.761 70.3263C343.441 70.4903 343.224 70.8223 343.204 71.1803C343.11 72.8653 343.443 74.4813 344.118 75.9343C340.27 77.5523 337.476 80.8483 336.556 84.9953C336.478 85.3463 336.596 85.7243 336.861 85.9693C339.298 88.2203 342.378 89.4073 345.557 89.4073C346.856 89.4073 348.172 89.2093 349.466 88.8043C351.023 88.3173 352.429 87.5633 353.645 86.5943C354.768 85.7003 356.42 86.4693 356.42 87.9043V166.273C355.368 167.687 354.628 168.683 353.577 170.097C353.035 170.254 352.573 170.521 352.275 170.982C352.021 171.375 351.809 172.053 352.237 173.05C352.599 173.892 353.319 174.497 354.221 174.927C355.584 175.574 356.42 176.985 356.42 178.494V184.999C356.42 188.865 353.286 191.999 349.42 191.999H326.636C325.592 191.999 324.733 191.196 324.649 190.155C324.538 188.783 324.316 187.425 323.98 186.09H325.036C326.027 186.09 326.829 185.287 326.829 184.296V180.843C326.829 177.602 324.203 174.976 320.963 174.976H320.962C317.722 174.976 315.096 177.602 315.096 180.843V184.297C315.096 185.287 315.898 186.09 316.888 186.09H317.945C317.609 187.424 317.387 188.782 317.276 190.155C317.192 191.196 316.333 191.999 315.289 191.999H304.245C299.828 191.999 296.249 188.42 296.252 184.003C296.261 171.365 296.274 148.19 296.274 148.19C296.274 142.142 289.996 136.646 279.367 132.29V131.569C279.367 126.046 274.89 121.569 269.367 121.569H268.951C267.525 121.569 266.259 120.586 265.98 119.188C265.396 116.257 264.137 113.569 262.367 111.289V108.361C262.367 100.076 255.652 93.3613 247.367 93.3613H181.367C173.083 93.3613 166.367 100.076 166.367 108.361V111.289C165.966 111.807 165.593 112.345 165.246 112.903C165.087 113.157 164.924 113.41 164.777 113.673C163.836 115.357 163.15 117.199 162.761 119.148C162.478 120.561 161.225 121.569 159.784 121.569C154.261 121.569 149.784 126.046 149.784 131.569V132.322C139.201 136.672 132.955 142.157 132.955 148.19C132.955 148.19 132.968 171.366 132.976 184.005C132.979 188.42 129.401 191.999 124.985 191.999H117.573C117.246 191.999 116.971 192.166 116.788 192.407C116.661 192.575 116.573 192.773 116.573 192.999C116.573 193.552 117.02 193.999 117.573 193.999H133.299C136.982 207.321 171.364 217.441 214.615 217.441C257.865 217.441 292.246 207.321 295.929 193.999H318.979H322.946H419.615C420.167 193.999 420.615 193.552 420.615 192.999C420.615 192.447 420.167 191.999 419.615 191.999ZM101.184 32.0123C103.832 32.1573 106.186 33.5763 107.56 35.8873C108.19 36.9453 108.557 38.0953 108.661 39.2603C108.885 41.7773 106.111 43.4473 104.003 42.0553C103.02 41.4063 102.178 40.5303 101.545 39.4653C100.17 37.1553 100.047 34.4093 101.184 32.0123ZM52.6753 182.138H51.2253V179.255C51.2253 177.238 52.8663 175.596 54.8843 175.596C56.9013 175.596 58.5423 177.238 58.5423 179.255V182.138H57.0923H52.6753ZM55.2263 191.999H54.5403C54.0623 191.999 53.6753 191.612 53.6753 191.134V184.138H56.0923V191.134C56.0923 191.612 55.7043 191.999 55.2263 191.999ZM42.2093 191.999H41.6943C41.2173 191.999 40.8293 191.612 40.8293 191.134V174.597H43.0743V191.134C43.0743 191.612 42.6863 191.999 42.2093 191.999ZM37.7293 171.427V165.548C37.7293 163.22 39.6233 161.326 41.9523 161.326C44.2803 161.326 46.1733 163.22 46.1733 165.548V172.597H38.9633C38.6123 172.148 38.1983 171.753 37.7293 171.427ZM37.9643 191.999C37.4873 191.999 37.0983 191.612 37.0983 191.134V180.954H38.8293V191.134C38.8293 191.612 38.4413 191.999 37.9643 191.999ZM32.9143 178.954H30.8473V176.071C30.8473 174.054 32.4893 172.413 34.5063 172.413C36.5233 172.413 38.1643 174.054 38.1643 176.071V178.954H36.0983H32.9143ZM33.9143 191.999H35.0983V180.954H33.9143V191.999ZM79.2703 87.9833C76.0513 86.0413 74.1133 82.7113 74.0053 78.9903C77.3473 77.3503 81.1983 77.5123 84.4153 79.4533C86.7853 80.8823 88.4603 83.0643 89.2233 85.5993C89.7383 87.3143 88.5883 89.0683 86.8273 89.3923C84.2663 89.8633 81.6023 89.3903 79.2703 87.9833ZM111.575 191.999H102.225H101.881V42.9273C101.995 43.0263 102.106 43.1303 102.225 43.2233C103.944 44.5853 106.079 45.3523 108.371 45.3523C108.427 45.3523 108.483 45.3523 108.539 45.3513C108.894 45.3453 109.219 45.1523 109.394 44.8433C111.168 41.6983 111.125 37.9683 109.28 34.8653C107.664 32.1493 104.961 30.4463 101.895 30.0863C101.89 30.0793 101.887 30.0753 101.881 30.0693V20.9993C101.881 20.4473 101.433 19.9993 100.881 19.9993C100.329 19.9993 99.8813 20.4473 99.8813 20.9993V30.2913C99.8153 30.3553 99.7583 30.4283 99.7113 30.5103C97.9373 33.6543 97.9803 37.3853 99.8263 40.4883C99.8423 40.5163 99.8643 40.5403 99.8813 40.5683V40.9993V187.999C99.8813 190.208 98.0903 191.999 95.8813 191.999C93.6723 191.999 91.8813 190.208 91.8813 187.999V40.9993V37.6763C91.8813 37.1243 91.4333 36.6763 90.8813 36.6763C90.3293 36.6763 89.8813 37.1243 89.8813 37.6763V82.1783C88.8183 80.3973 87.3193 78.8693 85.4493 77.7413C81.4453 75.3253 76.6143 75.2383 72.5253 77.5083C72.2143 77.6813 72.0123 78.0163 72.0043 78.3713C71.9023 83.0473 74.2323 87.2803 78.2373 89.6963C80.3083 90.9453 82.5993 91.5713 84.8943 91.5713H84.9463C87.6453 91.5593 89.8813 93.6373 89.8813 96.3363V189.999C89.8813 191.104 88.9853 191.999 87.8813 191.999H58.9573C58.4793 191.999 58.0923 191.612 58.0923 191.134V184.138H59.5423C60.0943 184.138 60.5423 183.69 60.5423 183.138V179.453C60.5423 176.577 58.4803 174.011 55.6283 173.644C52.1773 173.201 49.2253 175.89 49.2253 179.255V183.138C49.2253 183.69 49.6723 184.138 50.2253 184.138H51.6753V191.134C51.6753 191.612 51.2873 191.999 50.8093 191.999H45.9393C45.4623 191.999 45.0743 191.612 45.0743 191.134V174.597H47.1733C47.7263 174.597 48.1733 174.149 48.1733 173.597V165.548C48.1733 162.981 46.6113 160.774 44.3873 159.825C43.6603 159.514 43.2253 158.758 43.2253 157.967V90.9083C43.2253 90.3563 42.7773 89.9083 42.2253 89.9083C41.6723 89.9083 41.2253 90.3563 41.2253 90.9083V157.802C41.2253 158.643 40.6993 159.399 39.9043 159.677C37.4763 160.524 35.7293 162.835 35.7293 165.548V170.55C34.8713 170.36 33.9453 170.348 32.9783 170.637C30.4673 171.387 28.8473 173.839 28.8473 176.459V179.954C28.8473 180.506 29.2953 180.954 29.8473 180.954H31.9143V191.134C31.9143 191.612 31.5263 191.999 31.0493 191.999H9.61426C9.06226 191.999 8.61426 192.447 8.61426 192.999C8.61426 193.552 9.06226 193.999 9.61426 193.999H111.575C112.127 193.999 112.575 193.552 112.575 192.999C112.575 192.773 112.486 192.575 112.359 192.408C112.177 192.166 111.901 191.999 111.575 191.999Z" fill="#202225"/>
<path fill-rule="evenodd" clip-rule="evenodd" d="M208.102 66.7774C209.688 64.9294 211.996 63.8694 214.431 63.8694C216.867 63.8694 219.174 64.9294 220.76 66.7774C223.01 69.3984 223.406 73.1944 221.745 76.2224L215.186 88.1834C214.965 88.5864 214.584 88.6304 214.431 88.6304C214.278 88.6304 213.897 88.5864 213.676 88.1834L207.117 76.2224C205.456 73.1944 205.852 69.3984 208.102 66.7774ZM211.922 89.1454C212.433 90.0754 213.371 90.6304 214.432 90.6304C215.492 90.6304 216.43 90.0744 216.94 89.1454L223.499 77.1844C225.558 73.4294 225.067 68.7234 222.278 65.4744C220.31 63.1834 217.451 61.8694 214.431 61.8694C211.412 61.8694 208.552 63.1834 206.584 65.4744C203.795 68.7244 203.304 73.4294 205.363 77.1844L211.922 89.1454ZM177.369 144.552C179.411 144.552 181.454 143.852 182.902 142.452C183.498 141.877 183.514 140.927 182.938 140.331C182.362 139.735 181.412 139.72 180.817 140.295C179.077 141.977 175.661 141.978 173.921 140.295C173.327 139.72 172.376 139.735 171.8 140.331C171.224 140.927 171.241 141.876 171.836 142.452C173.284 143.852 175.326 144.552 177.369 144.552ZM251.367 144.551C253.409 144.551 255.452 143.851 256.9 142.452C257.495 141.876 257.512 140.926 256.936 140.331C256.359 139.734 255.409 139.719 254.815 140.295C253.075 141.978 249.659 141.977 247.919 140.295C247.324 139.719 246.374 139.734 245.798 140.331C245.222 140.926 245.238 141.876 245.834 142.452C247.282 143.851 249.324 144.551 251.367 144.551ZM383.861 116.338H384.371C384.923 116.338 385.371 116.786 385.371 117.338V117.848C385.371 118.401 385.819 118.848 386.371 118.848C386.924 118.848 387.371 118.401 387.371 117.848V117.338C387.371 116.786 387.819 116.338 388.371 116.338H388.882C389.434 116.338 389.882 115.89 389.882 115.338C389.882 114.786 389.434 114.338 388.882 114.338H388.371C387.819 114.338 387.371 113.89 387.371 113.338V112.828C387.371 112.276 386.924 111.828 386.371 111.828C385.819 111.828 385.371 112.276 385.371 112.828V113.338C385.371 113.89 384.923 114.338 384.371 114.338H383.861C383.309 114.338 382.861 114.786 382.861 115.338C382.861 115.89 383.309 116.338 383.861 116.338ZM146.175 68.0396C147.009 68.0396 147.685 68.7156 147.685 69.5496C147.685 70.1026 148.133 70.5496 148.685 70.5496C149.238 70.5496 149.685 70.1026 149.685 69.5496C149.685 68.7156 150.361 68.0396 151.195 68.0396C151.747 68.0396 152.195 67.5916 152.195 67.0396C152.195 66.4876 151.747 66.0396 151.195 66.0396C150.361 66.0396 149.685 65.3636 149.685 64.5296C149.685 63.9776 149.238 63.5296 148.685 63.5296C148.133 63.5296 147.685 63.9776 147.685 64.5296C147.685 65.3636 147.009 66.0396 146.175 66.0396C145.623 66.0396 145.175 66.4876 145.175 67.0396C145.175 67.5916 145.623 68.0396 146.175 68.0396ZM170.911 76.4639C171.745 76.4639 172.421 77.1399 172.421 77.9739C172.421 78.5259 172.869 78.9739 173.421 78.9739C173.973 78.9739 174.421 78.5259 174.421 77.9739C174.421 77.1399 175.097 76.4639 175.931 76.4639C176.483 76.4639 176.931 76.0159 176.931 75.4639C176.931 74.9119 176.483 74.4639 175.931 74.4639C175.097 74.4639 174.421 73.7879 174.421 72.9539C174.421 72.4019 173.973 71.9539 173.421 71.9539C172.869 71.9539 172.421 72.4019 172.421 72.9539C172.421 73.7879 171.745 74.4639 170.911 74.4639C170.359 74.4639 169.911 74.9119 169.911 75.4639C169.911 76.0159 170.359 76.4639 170.911 76.4639ZM141.252 93.2306C141.508 93.2306 141.764 93.1326 141.959 92.9376L143.142 91.7546C143.533 91.3636 143.533 90.7306 143.142 90.3406C142.752 89.9496 142.119 89.9496 141.728 90.3406L140.545 91.5236C140.154 91.9146 140.154 92.5466 140.545 92.9376C140.74 93.1326 140.996 93.2306 141.252 93.2306ZM135.335 99.1471C135.591 99.1471 135.847 99.0491 136.042 98.8541L137.226 97.6701C137.616 97.2801 137.616 96.6471 137.226 96.2561C136.835 95.8661 136.202 95.8661 135.812 96.2561L134.628 97.4401C134.237 97.8311 134.237 98.4631 134.628 98.8541C134.823 99.0491 135.079 99.1471 135.335 99.1471ZM141.728 98.8541C141.923 99.0491 142.179 99.1471 142.435 99.1471C142.691 99.1471 142.947 99.0491 143.142 98.8541C143.533 98.4641 143.533 97.8311 143.142 97.4401L141.959 96.2561C141.568 95.8661 140.936 95.8661 140.545 96.2561C140.154 96.6461 140.154 97.2801 140.545 97.6701L141.728 98.8541ZM135.812 92.9376C136.007 93.1326 136.263 93.2306 136.519 93.2306C136.775 93.2306 137.031 93.1326 137.226 92.9376C137.617 92.5466 137.617 91.9136 137.226 91.5236L136.042 90.3406C135.652 89.9496 135.018 89.9496 134.628 90.3406C134.238 90.7306 134.238 91.3646 134.628 91.7546L135.812 92.9376ZM375.614 102.957C374.781 102.957 374.105 102.279 374.105 101.447C374.105 100.614 374.781 99.9371 375.614 99.9371C376.447 99.9371 377.124 100.614 377.124 101.447C377.124 102.279 376.447 102.957 375.614 102.957ZM375.614 97.9371C373.679 97.9371 372.105 99.5121 372.105 101.447C372.105 103.382 373.679 104.957 375.614 104.957C377.55 104.957 379.124 103.382 379.124 101.447C379.124 99.5121 377.55 97.9371 375.614 97.9371Z" fill="#202225"/>
</svg>
