<svg width="415" height="200" viewBox="0 0 415 200" fill="none" xmlns="http://www.w3.org/2000/svg">
<g clip-path="url(#clip0_206_86)">
<path fill-rule="evenodd" clip-rule="evenodd" d="M322.922 36.2354V36.2384C322.922 52.5694 336.161 65.8084 352.492 65.8084H375.132C385.657 65.8084 394.189 74.3404 394.189 84.8654C394.189 95.3894 385.657 103.922 375.132 103.922H342.725C330.746 103.922 321.035 113.632 321.035 125.611V125.615C321.035 137.595 330.746 147.306 342.725 147.306H388.447C402.585 147.306 414.045 158.766 414.045 172.903C414.045 187.041 402.585 198.502 388.447 198.502H46.6549C25.3319 198.502 8.04492 181.215 8.04492 159.892V159.883C8.04492 138.559 25.3319 121.273 46.6549 121.273H123.978C140.547 121.273 153.978 107.841 153.978 91.2734V36.6654C153.978 20.0964 167.41 6.66541 183.978 6.66541H293.352C309.683 6.66541 322.922 19.9044 322.922 36.2354Z" fill="#4F545C" fill-opacity="0.3"/>
<path fill-rule="evenodd" clip-rule="evenodd" d="M231.8 112.974V120.774C231.8 127.037 228.74 132.585 224.051 136.049C223.664 142.918 219.629 148.818 213.84 151.829L202.973 197.503H235.075V196.526C235.075 193.071 237.657 190.215 240.991 189.767L253.814 135.87C252.324 135.453 251.223 134.102 251.223 132.487V114.794C251.223 113.522 251.908 112.415 252.925 111.794C253.387 111.308 254.038 111.002 254.764 111.002H259.73L262.081 101.123H260.102C259.572 101.123 259.055 100.959 258.624 100.653L258.157 100.321C258.146 100.313 258.133 100.308 258.121 100.301L244.284 91.4532C243.264 90.8022 242.655 89.6922 242.655 88.4862C242.655 87.2782 243.264 86.1682 244.284 85.5162L258.121 76.6702C258.132 76.6632 258.144 76.6582 258.154 76.6512L258.272 76.5682L245.009 20.8232L228.35 90.8422C228.222 91.3792 227.682 91.7132 227.146 91.5832L224.106 104.36V104.8C228.391 105.063 231.8 108.623 231.8 112.974Z" fill="#36393E"/>
<path fill-rule="evenodd" clip-rule="evenodd" d="M34.0986 197.503H47.0106L40.5546 170.368L34.0986 197.503Z" fill="#36393E"/>
<path fill-rule="evenodd" clip-rule="evenodd" d="M95.6103 111.185C101.366 105.429 103.197 84.7551 103.565 79.6831C98.4923 80.0501 77.8183 81.8811 72.0623 87.6371C68.7413 90.9571 66.9683 95.6101 67.2163 100.298C67.3943 103.642 68.4143 108.628 70.7223 111.18C73.3883 114.126 79.9053 116.062 83.8363 116.062C88.2833 116.062 92.4653 114.33 95.6103 111.185Z" fill="#72767D"/>
<path fill-rule="evenodd" clip-rule="evenodd" d="M372.527 146.017C375.251 141.577 378.507 137.421 382.284 133.644L383.699 135.058C379.893 138.863 376.622 143.06 373.92 147.557C380.423 153.913 390.879 153.874 397.325 147.428C403.084 141.67 404.913 120.997 405.279 115.925C400.209 116.292 379.533 118.123 373.777 123.88C367.735 129.922 367.323 139.486 372.527 146.017Z" fill="#4F545C"/>
<path fill-rule="evenodd" clip-rule="evenodd" d="M336.491 197.474C336.491 197.47 336.49 197.466 336.49 197.462C336.49 194.689 338.165 192.302 340.556 191.252C339.905 190.979 339.191 190.827 338.442 190.827H335.27C332.249 190.827 329.791 193.285 329.791 196.306V197.447L336.491 197.474Z" fill="#72767D"/>
<path fill-rule="evenodd" clip-rule="evenodd" d="M244.754 191.699H241.901C239.239 191.699 237.074 193.864 237.074 196.526V197.553L249.581 197.503V196.526C249.581 193.864 247.416 191.699 244.754 191.699Z" fill="#36393E"/>
<path fill-rule="evenodd" clip-rule="evenodd" d="M351.466 192.68H343.272C340.635 192.68 338.49 194.826 338.49 197.462L356.207 197.503C356.23 197.503 356.248 197.485 356.248 197.462C356.248 194.826 354.103 192.68 351.466 192.68Z" fill="#4F545C"/>
<path fill-rule="evenodd" clip-rule="evenodd" d="M121.398 185.525V195.211C121.398 196.865 122.744 198.211 124.398 198.211H126.978C128.632 198.211 129.978 196.865 129.978 195.211V185.525H121.398Z" fill="#72767D"/>
<path fill-rule="evenodd" clip-rule="evenodd" d="M140.415 153.974C129.921 153.974 121.415 145.468 121.415 134.974V133.584C118.4 133.269 115.779 131.608 114.166 129.215H106.176C96.9909 129.215 89.5439 136.662 89.5439 145.847V195.21C89.5439 196.867 90.8869 198.21 92.5439 198.21H95.1229C96.7799 198.21 98.1229 196.867 98.1229 195.21V186.524C98.1229 184.867 99.4669 183.524 101.123 183.524H146.609C145.352 182.277 144.57 180.553 144.57 178.647V164.541C144.57 163.989 145.018 163.541 145.57 163.541V153.974H140.415Z" fill="#4F545C"/>
<path fill-rule="evenodd" clip-rule="evenodd" d="M185.523 195.21V183.827C185.523 183.393 185.807 183.023 186.214 182.875C190.477 181.331 193.339 177.273 193.339 172.77V153.974H145.57V163.541C146.122 163.541 146.57 163.989 146.57 164.541V178.647C146.57 181.325 148.739 183.506 151.413 183.524C151.979 183.528 152.447 183.959 152.447 184.524V195.21C152.447 196.867 153.791 198.21 155.447 198.21H158.027C159.684 198.21 161.027 196.867 161.027 195.21V185.524C161.027 184.42 161.922 183.524 163.027 183.524H174.944C176.048 183.524 176.944 184.42 176.944 185.524V195.21C176.944 196.867 178.287 198.21 179.944 198.21H182.523C184.18 198.21 185.523 196.867 185.523 195.21Z" fill="#72767D"/>
<path fill-rule="evenodd" clip-rule="evenodd" d="M144.568 84.1744H140.415C131.696 84.1744 124.497 90.7754 123.533 99.2404H132.524C133.281 92.2344 138.106 86.4144 144.568 84.1744ZM132.415 134.974V133.641H123.415V134.974C123.415 144.348 131.041 151.974 140.415 151.974H144.569C137.519 149.531 132.415 142.827 132.415 134.974Z" fill="#4F545C"/>
<path fill-rule="evenodd" clip-rule="evenodd" d="M184 120.774V112.974C184 110.339 185.439 108.029 187.566 106.774H182.8C179.381 106.774 176.6 109.555 176.6 112.974V120.774C176.6 130.148 184.226 137.774 193.6 137.774H196.153C189.104 135.331 184 128.627 184 120.774Z" fill="#72767D"/>
<path fill-rule="evenodd" clip-rule="evenodd" d="M122.464 131.641H137.064C137.616 131.641 138.064 132.089 138.064 132.641C138.064 133.193 137.616 133.641 137.064 133.641H132.415V134.974C132.415 142.828 137.52 149.531 144.569 151.974H205.107C213.64 151.974 220.704 145.648 221.906 137.443C219.2 138.927 216.098 139.774 212.8 139.774H193.6C183.124 139.774 174.6 131.251 174.6 120.774V112.974C174.6 108.453 178.279 104.774 182.8 104.774H193.6C194.152 104.774 194.6 105.222 194.6 105.774H204.154C204.154 105.222 204.602 104.774 205.154 104.774H222.107V101.175C222.107 92.0267 214.839 84.5637 205.777 84.2077C205.68 85.8877 205.211 87.4777 204.368 88.9297C204.09 89.4087 203.478 89.5707 203.001 89.2927C202.984 89.2827 202.975 89.2657 202.959 89.2547C202.514 89.8757 202.005 90.4557 201.433 90.9907C201.442 91.0007 201.455 91.0047 201.463 91.0157C201.81 91.4447 201.742 92.0747 201.312 92.4207C199.392 93.9697 196.907 95.1877 194.128 95.9447C192.051 96.5107 189.897 96.8007 187.811 96.8007C187.253 96.8007 186.7 96.7797 186.155 96.7377C176.405 95.9917 167.568 92.4727 160.602 86.5617C160.106 86.1407 159.599 85.6717 159.335 84.9747C159.233 84.7087 159.195 84.4407 159.183 84.1747H144.568C138.106 86.4147 133.281 92.2337 132.524 99.2407H137.064C137.616 99.2407 138.064 99.6887 138.064 100.241C138.064 100.793 137.616 101.241 137.064 101.241H122.464C118.053 101.241 114.464 104.83 114.464 109.241V123.641C114.464 128.052 118.053 131.641 122.464 131.641Z" fill="#72767D"/>
<path fill-rule="evenodd" clip-rule="evenodd" d="M121.464 110.241V122.641C121.464 125.402 123.703 127.641 126.464 127.641H133.064C134.169 127.641 135.064 126.745 135.064 125.641V107.241C135.064 106.137 134.169 105.241 133.064 105.241H126.464C123.703 105.241 121.464 107.479 121.464 110.241Z" fill="#4F545C"/>
<path fill-rule="evenodd" clip-rule="evenodd" d="M200.031 124.649H205.908C207.525 124.649 208.847 125.972 208.847 127.588C208.847 129.204 207.525 130.526 205.908 130.526H200.031C198.414 130.526 197.092 129.204 197.092 127.588C197.092 125.972 198.414 124.649 200.031 124.649ZM216.455 124.649H219.981C221.597 124.649 222.92 125.972 222.92 127.588C222.92 129.204 221.597 130.526 219.981 130.526H216.455C214.839 130.526 213.516 129.204 213.516 127.588C213.516 125.972 214.839 124.649 216.455 124.649ZM193.599 106.774H187.565C185.438 108.029 183.999 110.339 183.999 112.975V120.774C183.999 128.628 189.104 135.331 196.153 137.774H212.8C222.174 137.774 229.8 130.149 229.8 120.774V112.975C229.8 109.556 227.018 106.774 223.599 106.774H205.154C204.601 106.774 204.154 106.327 204.154 105.774H194.599C194.599 106.327 194.152 106.774 193.599 106.774Z" fill="#B9BBBE"/>
<path fill-rule="evenodd" clip-rule="evenodd" d="M200.032 130.526H205.909C207.526 130.526 208.848 129.204 208.848 127.588C208.848 125.971 207.526 124.649 205.909 124.649H200.032C198.415 124.649 197.093 125.971 197.093 127.588C197.093 129.204 198.415 130.526 200.032 130.526ZM216.456 130.526H219.982C221.599 130.526 222.921 129.204 222.921 127.588C222.921 125.971 221.599 124.649 219.982 124.649H216.456C214.84 124.649 213.517 125.971 213.517 127.588C213.517 129.204 214.84 130.526 216.456 130.526Z" fill="#4F545C"/>
<path fill-rule="evenodd" clip-rule="evenodd" d="M156.551 51.7541C157.093 51.8591 157.448 52.3821 157.344 52.9241C157.253 53.4031 156.834 53.7361 156.364 53.7361C156.302 53.7361 156.239 53.7311 156.177 53.7191C155.86 53.6591 149.911 52.4501 145.518 47.3671C145.006 48.6591 144.988 49.8261 145.469 50.9341C146.181 52.5701 148.07 54.0811 150.651 55.0801C155.044 56.7791 159.654 57.0491 163.632 55.8381C162.815 55.0771 161.899 53.9661 161.508 53.4921L161.388 53.3471C160.66 52.4741 160.012 51.5711 159.386 50.6971C157.915 48.6431 156.524 46.7031 154.294 45.4311C152.97 44.6761 151.505 44.2791 150.166 44.2791C149.506 44.2791 148.877 44.3751 148.311 44.5731C147.669 44.7971 147.114 45.1411 146.651 45.6001C150.657 50.5561 156.479 51.7401 156.551 51.7541Z" fill="#72767D"/>
<path fill-rule="evenodd" clip-rule="evenodd" d="M214.479 19.923C215.736 20.761 217.104 20.895 218.655 20.331C216.413 18.266 214.984 15.913 214.099 13.984C213.868 13.482 214.088 12.888 214.59 12.657C215.091 12.426 215.685 12.646 215.916 13.149C216.77 15.008 218.203 17.298 220.47 19.238C220.937 18.79 221.296 18.251 221.537 17.62C222.186 15.924 221.924 13.623 220.856 11.614C219.65 9.34596 217.751 7.89996 215.741 6.36696C214.887 5.71596 214.003 5.04296 213.152 4.28896L213.008 4.16296C212.546 3.75796 211.463 2.80996 210.642 1.98596C209.4 5.91296 209.533 10.529 211.104 14.971C211.284 15.481 211.022 16.033 210.523 16.23C211.159 17.727 212.035 19.131 213.152 20.14C213.473 19.739 214.043 19.632 214.479 19.923Z" fill="#4F545C"/>
<path fill-rule="evenodd" clip-rule="evenodd" d="M64.2135 159.526C67.3555 160.349 70.7325 159.12 72.6095 156.466L80.0735 145.919C80.3085 145.586 80.1955 145.265 80.1365 145.143C80.0765 145.021 79.8945 144.735 79.4875 144.715L66.5795 144.092C66.4555 144.086 66.3305 144.083 66.2065 144.083C63.1015 144.083 60.2365 145.949 58.9965 148.818C58.0875 150.922 58.1415 153.31 59.1455 155.371C60.1495 157.431 61.9965 158.945 64.2135 159.526Z" fill="#72767D"/>
<path fill-rule="evenodd" clip-rule="evenodd" d="M202.958 89.2551C202.52 88.9651 202.37 88.3861 202.638 87.9261C204.03 85.5281 204.176 82.7541 203.074 79.6801C203.021 79.5331 202.952 79.3951 202.894 79.2521C198.356 82.2431 193.083 84.2801 187.4 85.1631C187.348 85.1711 187.296 85.1741 187.245 85.1741C186.761 85.1741 186.335 84.8221 186.258 84.3281C186.174 83.7821 186.547 83.2711 187.093 83.1861C192.559 82.3381 197.621 80.3691 201.957 77.4761C200.778 75.6931 199.05 74.2491 196.909 73.3121C193.472 71.8091 189.426 71.7581 186.087 73.1771C184.292 73.9391 182.645 74.9491 180.901 76.0181C179.997 76.5731 179.061 77.1471 178.111 77.6761C174.954 79.4371 171.565 80.7601 168.037 81.6101C166.829 81.9021 165.594 82.1381 164.368 82.3141L164.161 82.3431C163.309 82.4631 162.504 82.5771 161.894 82.9531C161.428 83.2391 161.04 83.8351 161.204 84.2651C161.299 84.5171 161.585 84.7741 161.895 85.0361C168.539 90.6731 176.98 94.0291 186.307 94.7441C188.665 94.9251 191.187 94.6731 193.602 94.0151C196.117 93.3301 198.349 92.2411 200.057 90.8641C200.476 90.5251 201.082 90.5881 201.433 90.9911C202.004 90.4561 202.514 89.8761 202.958 89.2551ZM252.683 92.6017C252.683 90.8757 251.271 89.4707 249.536 89.4707H245.024C245.121 89.5817 245.23 89.6847 245.361 89.7687L252.244 94.1697C252.516 93.7067 252.683 93.1757 252.683 92.6017Z" fill="#4F545C"/>
<path fill-rule="evenodd" clip-rule="evenodd" d="M254.318 92.6016C254.318 89.9786 252.172 87.8446 249.536 87.8446H244.804C244.712 88.0416 244.655 88.2556 244.655 88.4856C244.655 88.8596 244.79 89.2006 245.025 89.4706H249.536C251.272 89.4706 252.683 90.8756 252.683 92.6016C252.683 93.1756 252.516 93.7066 252.244 94.1696L253.616 95.0466C254.052 94.3306 254.318 93.4986 254.318 92.6016Z" fill="#36393E"/>
<path fill-rule="evenodd" clip-rule="evenodd" d="M308.234 163.678V186.392C308.234 188.315 309.383 189.966 311.026 190.719V186.713C310.629 186.253 310.379 185.661 310.379 185.007V165.128C310.379 164.474 310.629 163.883 311.026 163.423V159.352C309.383 160.105 308.234 161.755 308.234 163.678ZM288.428 65.086V75.847H286.522V64.482C286.078 64.309 285.659 64.128 285.295 63.928V75.847H283.272C283.295 75.933 283.315 76.021 283.315 76.111H290.28V67.619C290.28 67.092 290.706 66.666 291.233 66.666C291.76 66.666 292.186 67.092 292.186 67.619V76.111H294.491V66.013C292.306 65.853 290.21 65.547 288.428 65.086Z" fill="#36393E"/>
<path fill-rule="evenodd" clip-rule="evenodd" d="M303.348 151.39C302.821 151.39 302.394 150.964 302.394 150.437V138.059C302.394 137.532 302.821 137.106 303.348 137.106C303.875 137.106 304.301 137.532 304.301 138.059V150.437C304.301 150.964 303.875 151.39 303.348 151.39ZM296.874 165.676C296.348 165.676 295.921 165.249 295.921 164.723V138.059C295.921 137.532 296.348 137.106 296.874 137.106C297.401 137.106 297.827 137.532 297.827 138.059V164.723C297.827 165.249 297.401 165.676 296.874 165.676ZM301.729 137.519C301.462 137.519 301.463 137.106 301.729 137.106C301.995 137.106 301.995 137.519 301.729 137.519ZM308.233 144.248C308.233 144.775 307.807 145.201 307.28 145.201C306.753 145.201 306.327 144.775 306.327 144.248V138.059C306.327 137.532 306.753 137.106 307.28 137.106C307.807 137.106 308.233 137.532 308.233 138.059V144.248ZM285.295 136.015V197.503H289.487V145.155C289.487 144.628 289.913 144.202 290.44 144.202C290.967 144.202 291.393 144.628 291.393 145.155V197.503H295.921V171.667C295.921 171.14 296.348 170.714 296.874 170.714C297.401 170.714 297.827 171.14 297.827 171.667V197.503H302.394V181.833C302.394 181.306 302.821 180.88 303.348 180.88C303.875 180.88 304.301 181.306 304.301 181.833V197.503H307.962C308.768 196.572 309.823 195.863 311.026 195.49V192.766C308.307 191.923 306.327 189.385 306.327 186.392V163.678C306.327 160.686 308.307 158.147 311.026 157.304V154.5C307.176 155.398 304.301 158.846 304.301 162.957V176.028C304.301 176.555 303.875 176.981 303.348 176.981C302.821 176.981 302.394 176.555 302.394 176.028V162.957C302.394 157.787 306.119 153.475 311.026 152.549V145.921C310.502 144.833 310.2 143.619 310.2 142.332V138.059C310.2 137.577 310.562 137.196 311.026 137.132V136.015H285.295Z" fill="#36393E"/>
<path fill-rule="evenodd" clip-rule="evenodd" d="M300.828 111.002H302.734V101.124H300.828V111.002Z" fill="#4F545C"/>
<path fill-rule="evenodd" clip-rule="evenodd" d="M308.602 101.124H306.696C306.982 104.727 308.265 108.12 310.4 111.002H311.026V108.521C309.673 106.28 308.836 103.768 308.602 101.124ZM306.619 71.4322V75.8472H308.526V71.4322V64.9162C307.999 65.0682 307.442 65.2122 306.825 65.3422C306.755 65.3562 306.688 65.3432 306.619 65.3432V71.4322ZM286.459 104.63C285.932 104.63 285.506 105.056 285.506 105.584C285.506 106.11 285.932 106.537 286.459 106.537C287.86 106.537 289.001 107.676 289.001 109.078V111.002H290.907V109.078C290.907 106.626 288.912 104.63 286.459 104.63ZM293.132 105.107V109.238C293.132 109.765 293.558 110.191 294.085 110.191C294.612 110.191 295.038 109.765 295.038 109.238V105.107C295.038 103.484 294.438 102.002 293.452 100.859H290.487C290.452 100.873 290.417 100.884 290.382 100.897C291.998 101.613 293.132 103.228 293.132 105.107ZM286.251 101.124H285.295V101.829C285.578 101.55 285.904 101.323 286.251 101.124ZM294.545 75.8467H296.398V66.1147C295.759 66.0927 295.123 66.0587 294.491 66.0127V76.1107H294.569C294.553 76.0477 294.53 75.9877 294.53 75.9197C294.53 75.8937 294.543 75.8717 294.545 75.8467ZM292.186 67.6192C292.186 67.0922 291.759 66.6662 291.232 66.6662C290.706 66.6662 290.279 67.0922 290.279 67.6192V76.1112H292.186V67.6192ZM286.522 75.8467H288.428V65.0857C287.739 64.9087 287.101 64.7057 286.522 64.4817V75.8467Z" fill="#4F545C"/>
<path fill-rule="evenodd" clip-rule="evenodd" d="M300.829 74.0797C300.829 74.6067 301.255 75.0337 301.782 75.0337C302.309 75.0337 302.735 74.6067 302.735 74.0797V64.7237L305.64 64.4547C305.594 63.9557 305.912 63.4907 306.413 63.3847C309.933 62.6447 311.026 61.6467 311.026 61.3667C311.026 60.5597 306.517 58.5857 298.16 58.5857C289.803 58.5857 285.295 60.5597 285.295 61.3667C285.295 62.1737 289.803 64.1487 298.16 64.1487C298.68 64.1487 299.093 64.5497 299.142 65.0577L300.829 64.9007V74.0797ZM291.393 145.155C291.393 144.628 290.967 144.202 290.44 144.202C289.913 144.202 289.487 144.628 289.487 145.155V197.503H291.393V145.155ZM297.827 171.668C297.827 171.141 297.401 170.714 296.874 170.714C296.347 170.714 295.921 171.141 295.921 171.668V197.503H297.827V171.668ZM297.827 138.06C297.827 137.533 297.401 137.106 296.874 137.106C296.347 137.106 295.921 137.533 295.921 138.06V164.723C295.921 165.25 296.347 165.676 296.874 165.676C297.401 165.676 297.827 165.25 297.827 164.723V138.06ZM302.394 162.958V176.028C302.394 176.555 302.821 176.981 303.348 176.981C303.874 176.981 304.301 176.555 304.301 176.028V162.958C304.301 158.846 307.176 155.399 311.025 154.5V152.549C306.119 153.476 302.394 157.788 302.394 162.958ZM304.301 181.833C304.301 181.306 303.875 180.88 303.348 180.88C302.821 180.88 302.394 181.306 302.394 181.833V197.503H304.301V181.833Z" fill="#4F545C"/>
<path fill-rule="evenodd" clip-rule="evenodd" d="M306.327 163.678V186.392C306.327 189.385 308.307 191.923 311.026 192.766V190.719C309.383 189.966 308.233 188.315 308.233 186.392V163.678C308.233 161.755 309.383 160.105 311.026 159.352V157.303C308.307 158.147 306.327 160.686 306.327 163.678ZM307.962 197.503H311.026V195.49C309.823 195.863 308.768 196.572 307.962 197.503Z" fill="#4F545C"/>
<path fill-rule="evenodd" clip-rule="evenodd" d="M310.379 185.007C310.379 185.661 310.629 186.253 311.026 186.713V163.423C310.629 163.883 310.379 164.475 310.379 165.129V185.007ZM304.302 138.06C304.302 137.533 303.876 137.106 303.349 137.106C302.822 137.106 302.395 137.533 302.395 138.06V150.437C302.395 150.964 302.822 151.391 303.349 151.391C303.876 151.391 304.302 150.964 304.302 150.437V138.06ZM308.234 138.06C308.234 137.533 307.808 137.106 307.281 137.106C306.754 137.106 306.328 137.533 306.328 138.06V144.248C306.328 144.775 306.754 145.202 307.281 145.202C307.808 145.202 308.234 144.775 308.234 144.248V138.06ZM310.2 138.06V142.332C310.2 143.619 310.502 144.833 311.026 145.922V137.132C310.562 137.197 310.2 137.578 310.2 138.06Z" fill="#4F545C"/>
<path fill-rule="evenodd" clip-rule="evenodd" d="M301.729 137.106C301.463 137.106 301.462 137.52 301.729 137.52C301.995 137.52 301.996 137.106 301.729 137.106Z" fill="#D5DBED"/>
<path fill-rule="evenodd" clip-rule="evenodd" d="M337.451 113.51C337.201 113.351 336.913 113.266 336.616 113.266H333.794L345.376 120.672C346.396 121.324 347.005 122.434 347.005 123.641C347.005 124.848 346.396 125.958 345.376 126.61L333.793 134.015H336.616C336.912 134.015 337.201 133.931 337.451 133.771L351.288 124.925C351.736 124.637 351.993 124.17 351.993 123.641C351.993 123.112 351.736 122.644 351.288 122.357L337.451 113.51ZM280.823 79.172H303.944C304.395 79.172 304.761 79.535 304.761 79.985C304.761 80.434 304.395 80.798 303.944 80.798H280.823C280.371 80.798 280.006 80.434 280.006 79.985C280.006 79.535 280.371 79.172 280.823 79.172ZM262.099 87.845H265.384C265.441 87.845 265.494 87.86 265.552 87.861C265.608 87.86 265.661 87.845 265.719 87.845H269.003C271.639 87.845 273.785 89.979 273.785 92.602C273.785 95.224 271.639 97.359 269.003 97.359H265.719C265.661 97.359 265.608 97.344 265.552 97.342C265.494 97.344 265.441 97.359 265.384 97.359H262.099C259.463 97.359 257.317 95.224 257.317 92.602C257.317 89.979 259.463 87.845 262.099 87.845ZM277.017 87.845H279.977C280.429 87.845 280.795 88.209 280.795 88.658C280.795 89.107 280.429 89.471 279.977 89.471H277.017C276.565 89.471 276.199 89.107 276.199 88.658C276.199 88.209 276.565 87.845 277.017 87.845ZM266.388 78.111H260.034C259.737 78.111 259.448 78.195 259.198 78.355L257.921 79.172H272.112C272.564 79.172 272.929 79.535 272.929 79.985C272.929 80.434 272.564 80.798 272.112 80.798H255.377L245.362 87.201C245.108 87.364 244.924 87.588 244.804 87.845H249.536C252.173 87.845 254.319 89.979 254.319 92.602C254.319 93.499 254.053 94.33 253.616 95.047L259.198 98.616C259.448 98.776 259.738 98.86 260.034 98.86H266.388H274.683C276.195 98.142 277.596 97.181 278.815 95.968C281.938 92.864 286.09 91.153 290.504 91.153H306.854H307.634H336.437V85.405H253.548C253.095 85.405 252.73 85.042 252.73 84.592C252.73 84.143 253.095 83.779 253.548 83.779H336.437V79.638C336.437 78.796 335.745 78.111 334.895 78.111H266.388Z" fill="#4F545C"/>
<path fill-rule="evenodd" clip-rule="evenodd" d="M307.632 92.7795H306.853C302.874 92.7795 299.132 94.3215 296.319 97.1185C295.669 97.7655 294.964 98.3365 294.231 98.8605H334.894C335.744 98.8605 336.435 98.1745 336.435 97.3325V97.1195H306.45C305.998 97.1195 305.633 96.7565 305.633 96.3065C305.633 95.8575 305.998 95.4935 306.45 95.4935H336.435V92.7795H307.632ZM262.098 95.7326H262.144C261.401 94.8936 260.934 93.8056 260.934 92.6016C260.934 91.3986 261.401 90.3096 262.144 89.4706H262.098C260.362 89.4706 258.951 90.8756 258.951 92.6016C258.951 94.3276 260.362 95.7326 262.098 95.7326ZM265.55 95.7155C267.206 95.6275 268.531 94.2705 268.531 92.6015C268.531 90.9325 267.206 89.5765 265.55 89.4875C263.893 89.5765 262.569 90.9325 262.569 92.6015C262.569 94.2705 263.893 95.6275 265.55 95.7155ZM269.002 95.7326C270.738 95.7326 272.149 94.3276 272.149 92.6016C272.149 90.8756 270.738 89.4706 269.002 89.4706H268.956C269.699 90.3096 270.166 91.3986 270.166 92.6016C270.166 93.8056 269.699 94.8936 268.956 95.7326H269.002ZM299.71 92.7795H290.502C286.523 92.7795 282.783 94.3215 279.969 97.1185C279.32 97.7635 278.623 98.3415 277.889 98.8605H291.031C292.543 98.1425 293.944 97.1815 295.163 95.9685C296.506 94.6335 298.047 93.5735 299.71 92.7795Z" fill="#4F545C"/>
<path fill-rule="evenodd" clip-rule="evenodd" d="M307.632 91.1535H306.853H290.503C286.088 91.1535 281.937 92.8635 278.813 95.9685C277.594 97.1815 276.194 98.1425 274.682 98.8605H277.889C278.623 98.3415 279.32 97.7635 279.969 97.1185C282.783 94.3205 286.524 92.7795 290.503 92.7795H299.71C298.048 93.5735 296.507 94.6335 295.163 95.9685C293.944 97.1815 292.543 98.1425 291.031 98.8605H294.231C294.964 98.3365 295.669 97.7655 296.319 97.1185C299.132 94.3205 302.874 92.7795 306.853 92.7795H307.632H336.435V91.1535H307.632ZM253.547 83.7795C253.095 83.7795 252.729 84.1435 252.729 84.5925C252.729 85.0425 253.095 85.4055 253.547 85.4055H336.436V83.7795H253.547ZM262.098 89.4709H262.144C261.401 90.3099 260.934 91.3979 260.934 92.6019C260.934 93.8049 261.401 94.8939 262.144 95.7329H262.098C260.362 95.7329 258.951 94.3279 258.951 92.6019C258.951 90.8759 260.362 89.4709 262.098 89.4709ZM265.55 89.4879C267.206 89.5759 268.531 90.9329 268.531 92.6019C268.531 94.2709 267.206 95.6269 265.55 95.7159C263.893 95.6269 262.569 94.2709 262.569 92.6019C262.569 90.9329 263.893 89.5759 265.55 89.4879ZM268.955 89.4709H269.002C270.738 89.4709 272.149 90.8759 272.149 92.6019C272.149 94.3279 270.738 95.7329 269.002 95.7329H268.955C269.699 94.8939 270.166 93.8049 270.166 92.6019C270.166 91.3979 269.699 90.3099 268.955 89.4709ZM262.098 97.3589H265.382C265.44 97.3589 265.493 97.3439 265.55 97.3419C265.607 97.3439 265.66 97.3589 265.718 97.3589H269.002C271.638 97.3589 273.784 95.2239 273.784 92.6019C273.784 89.9789 271.638 87.8449 269.002 87.8449H265.718C265.66 87.8449 265.607 87.8599 265.55 87.8619C265.493 87.8599 265.44 87.8449 265.382 87.8449H262.098C259.462 87.8449 257.316 89.9789 257.316 92.6019C257.316 95.2239 259.462 97.3589 262.098 97.3589ZM280.822 80.798H303.943C304.394 80.798 304.76 80.434 304.76 79.985C304.76 79.535 304.394 79.172 303.943 79.172H280.822C280.37 79.172 280.005 79.535 280.005 79.985C280.005 80.434 280.37 80.798 280.822 80.798ZM272.111 80.798C272.563 80.798 272.928 80.434 272.928 79.985C272.928 79.535 272.563 79.172 272.111 79.172H257.92L255.376 80.798H272.111ZM313.147 75.8468H311.025V63.9358C310.357 64.2998 309.529 64.6288 308.525 64.9168V75.8468H306.619V65.3438C306.157 65.3418 305.739 65.0398 305.64 64.5688C305.632 64.5298 305.643 64.4928 305.639 64.4538L302.735 64.7238V74.0798C302.735 74.6068 302.309 75.0338 301.782 75.0338C301.255 75.0338 300.829 74.6068 300.829 74.0798V64.9008L299.141 65.0578C299.144 65.0888 299.16 65.1168 299.16 65.1488C299.16 65.7008 298.712 66.1488 298.16 66.1488C297.574 66.1488 296.985 66.1348 296.397 66.1148V75.8468H294.544C294.542 75.8718 294.53 75.8938 294.53 75.9198C294.53 75.9878 294.553 76.0478 294.569 76.1108H313.219C313.187 76.0258 313.162 75.9378 313.147 75.8468ZM300.829 111.002H302.735V101.124H300.829V111.002ZM290.907 111.002H289V109.079C289 107.676 287.86 106.537 286.459 106.537C285.932 106.537 285.506 106.111 285.506 105.584C285.506 105.057 285.932 104.63 286.459 104.63C288.912 104.63 290.907 106.627 290.907 109.079V111.002ZM311.025 108.521V101.124H311.611C311.623 101.035 311.645 100.947 311.674 100.86H293.452C294.437 102.002 295.038 103.484 295.038 105.107V109.239C295.038 109.766 294.612 110.192 294.085 110.192C293.558 110.192 293.132 109.766 293.132 109.239V105.107C293.132 103.228 291.997 101.614 290.381 100.898C290.416 100.885 290.452 100.873 290.487 100.86H282.79C282.822 100.945 282.845 101.033 282.859 101.124H286.25C285.904 101.322 285.577 101.549 285.294 101.828V111.002H284.08C284.102 111.089 284.116 111.177 284.121 111.266H311.385C311.391 111.177 311.404 111.089 311.426 111.002H310.399C308.264 108.119 306.981 104.727 306.695 101.124H308.601C308.835 103.768 309.672 106.279 311.025 108.521Z" fill="#36393E"/>
<path fill-rule="evenodd" clip-rule="evenodd" d="M306.451 95.4932C305.999 95.4932 305.634 95.8572 305.634 96.3062C305.634 96.7562 305.999 97.1192 306.451 97.1192H336.436V95.4932H306.451ZM277.016 89.4708H279.976C280.428 89.4708 280.794 89.1068 280.794 88.6578C280.794 88.2088 280.428 87.8448 279.976 87.8448H277.016C276.564 87.8448 276.199 88.2088 276.199 88.6578C276.199 89.1068 276.564 89.4708 277.016 89.4708Z" fill="#36393E"/>
<path fill-rule="evenodd" clip-rule="evenodd" d="M286.313 117.981C285.861 117.981 285.496 117.617 285.496 117.168C285.496 116.718 285.861 116.355 286.313 116.355H303.864C304.315 116.355 304.681 116.718 304.681 117.168C304.681 117.617 304.315 117.981 303.864 117.981H286.313ZM319.271 120.42C319.724 120.42 320.089 120.784 320.089 121.233C320.089 121.683 319.724 122.046 319.271 122.046H296.151C295.699 122.046 295.334 121.683 295.334 121.233C295.334 120.784 295.699 120.42 296.151 120.42H319.271ZM295.306 129.093C295.757 129.093 296.123 129.457 296.123 129.906C296.123 130.356 295.757 130.719 295.306 130.719H292.345C291.894 130.719 291.528 130.356 291.528 129.906C291.528 129.457 291.894 129.093 292.345 129.093H295.306ZM264.865 129.093C267.501 129.093 269.647 131.228 269.647 133.85C269.647 133.907 269.632 133.959 269.63 134.015H272.662C272.66 133.959 272.646 133.907 272.646 133.85C272.646 131.228 274.792 129.093 277.427 129.093H280.712C280.769 129.093 280.823 129.108 280.879 129.11C280.937 129.108 280.99 129.093 281.047 129.093H284.332C286.968 129.093 289.113 131.228 289.113 133.85C289.113 133.907 289.099 133.959 289.097 134.015H298.717C300.913 132.971 303.326 132.402 305.833 132.402H322.182H322.961H332.604L341.593 126.654H268.876C268.424 126.654 268.058 126.29 268.058 125.841C268.058 125.392 268.424 125.028 268.876 125.028H344.137L344.298 124.924C344.747 124.637 345.004 124.169 345.004 123.641C345.004 123.111 344.747 122.644 344.298 122.356L337.455 117.981H310.677C310.225 117.981 309.859 117.617 309.859 117.168C309.859 116.718 310.225 116.355 310.677 116.355H334.911L330.461 113.51C330.212 113.351 329.923 113.266 329.626 113.266H261.753H254.765C253.915 113.266 253.223 113.952 253.223 114.794V116.355H280.706C281.157 116.355 281.523 116.718 281.523 117.168C281.523 117.617 281.157 117.981 280.706 117.981H253.223V120.42H287.44C287.892 120.42 288.258 120.784 288.258 121.233C288.258 121.683 287.892 122.046 287.44 122.046H253.223V125.028H263.107C263.559 125.028 263.924 125.392 263.924 125.841C263.924 126.29 263.559 126.654 263.107 126.654H253.223V129.093H264.865Z" fill="#4F545C"/>
<path fill-rule="evenodd" clip-rule="evenodd" d="M254.765 134.015H261.754H267.995C267.998 133.959 268.012 133.907 268.012 133.85C268.012 132.124 266.6 130.719 264.865 130.719H253.223V132.487C253.223 133.329 253.915 134.015 254.765 134.015ZM277.474 130.719H277.427C275.692 130.719 274.28 132.124 274.28 133.85C274.28 133.907 274.294 133.959 274.297 134.015H276.279C276.277 133.959 276.264 133.906 276.264 133.85C276.264 132.646 276.73 131.558 277.474 130.719ZM284.331 130.719H284.284C285.028 131.558 285.495 132.646 285.495 133.85C285.495 133.906 285.481 133.959 285.479 134.015H287.461C287.464 133.959 287.478 133.907 287.478 133.85C287.478 132.124 286.066 130.719 284.331 130.719ZM280.879 130.736C279.223 130.825 277.898 132.181 277.898 133.85C277.898 133.906 277.911 133.96 277.914 134.015H283.844C283.847 133.96 283.86 133.906 283.86 133.85C283.86 132.181 282.535 130.825 280.879 130.736Z" fill="#4F545C"/>
<path fill-rule="evenodd" clip-rule="evenodd" d="M311.866 136.015C311.753 136.104 311.634 136.186 311.523 136.279H313.026H314.306C314.452 136.188 314.6 136.1 314.749 136.015H311.866ZM322.961 132.402H322.182H305.832C303.326 132.402 300.913 132.971 298.716 134.015H329.625C329.922 134.015 330.211 133.931 330.461 133.771L332.603 132.402H322.961ZM264.865 130.719C266.6 130.719 268.012 132.124 268.012 133.85C268.012 133.907 267.998 133.959 267.995 134.015H269.63C269.632 133.959 269.647 133.907 269.647 133.85C269.647 131.227 267.501 129.093 264.865 129.093H253.223V130.719H264.865ZM263.107 126.654C263.559 126.654 263.924 126.29 263.924 125.841C263.924 125.392 263.559 125.028 263.107 125.028H253.223V126.654H263.107ZM268.875 125.028C268.423 125.028 268.058 125.392 268.058 125.841C268.058 126.29 268.423 126.654 268.875 126.654H341.593L344.136 125.028H268.875ZM283.295 136.279H284.802C284.854 136.196 284.889 136.102 284.935 136.015H282.973C282.879 136.112 282.773 136.196 282.668 136.279H283.295ZM284.331 129.093H281.046C280.989 129.093 280.936 129.108 280.879 129.11C280.822 129.108 280.768 129.093 280.711 129.093H277.427C274.791 129.093 272.645 131.228 272.645 133.85C272.645 133.907 272.66 133.959 272.662 134.015H274.297C274.293 133.96 274.28 133.907 274.28 133.85C274.28 132.124 275.691 130.719 277.427 130.719H277.474C276.729 131.558 276.263 132.647 276.263 133.85C276.263 133.906 276.277 133.959 276.279 134.015H277.914C277.911 133.96 277.898 133.906 277.898 133.85C277.898 132.181 279.223 130.825 280.879 130.736C282.535 130.825 283.86 132.181 283.86 133.85C283.86 133.906 283.847 133.96 283.844 134.015H285.479C285.481 133.959 285.495 133.906 285.495 133.85C285.495 132.647 285.028 131.558 284.284 130.719H284.331C286.066 130.719 287.478 132.124 287.478 133.85C287.478 133.907 287.464 133.96 287.461 134.015H289.096C289.098 133.959 289.113 133.907 289.113 133.85C289.113 131.228 286.967 129.093 284.331 129.093ZM296.151 120.42C295.699 120.42 295.333 120.784 295.333 121.233C295.333 121.683 295.699 122.046 296.151 122.046H319.271C319.723 122.046 320.088 121.683 320.088 121.233C320.088 120.784 319.723 120.42 319.271 120.42H296.151ZM287.44 122.046C287.892 122.046 288.257 121.683 288.257 121.233C288.257 120.784 287.892 120.42 287.44 120.42H253.223V122.046H287.44ZM280.706 117.981C281.158 117.981 281.523 117.617 281.523 117.168C281.523 116.718 281.158 116.355 280.706 116.355H253.224V117.981H280.706ZM303.864 117.981C304.316 117.981 304.681 117.617 304.681 117.168C304.681 116.718 304.316 116.355 303.864 116.355H286.313C285.861 116.355 285.496 116.718 285.496 117.168C285.496 117.617 285.861 117.981 286.313 117.981H303.864ZM310.677 116.355C310.225 116.355 309.86 116.719 309.86 117.168C309.86 117.618 310.225 117.981 310.677 117.981H337.455L334.911 116.355H310.677ZM291.528 129.906C291.528 130.355 291.894 130.719 292.345 130.719H295.306C295.757 130.719 296.123 130.355 296.123 129.906C296.123 129.456 295.757 129.093 295.306 129.093H292.345C291.894 129.093 291.528 129.456 291.528 129.906ZM340.795 99.356H337.795V77.11H340.795C342.452 77.11 343.795 78.453 343.795 80.11V96.356C343.795 98.013 342.452 99.356 340.795 99.356Z" fill="#36393E"/>
<path fill-rule="evenodd" clip-rule="evenodd" d="M107.323 54.547L108.101 57.817C108.21 58.276 108.62 58.585 109.073 58.585C109.149 58.585 109.227 58.576 109.304 58.558C109.841 58.43 110.174 57.891 110.046 57.354L109.268 54.084C109.141 53.547 108.601 53.212 108.064 53.343C107.527 53.47 107.195 54.01 107.323 54.547Z" fill="#202225"/>
<path fill-rule="evenodd" clip-rule="evenodd" d="M356.207 197.503L338.49 197.462C338.49 194.825 340.635 192.68 343.272 192.68H351.466C354.103 192.68 356.248 194.825 356.248 197.462C356.248 197.484 356.229 197.503 356.207 197.503ZM336.491 197.474L329.791 197.446V196.306C329.791 193.284 332.249 190.826 335.27 190.826H338.441C339.19 190.826 339.905 190.979 340.556 191.252C338.165 192.302 336.49 194.689 336.49 197.462C336.49 197.466 336.491 197.47 336.491 197.474ZM315.053 197.503C313.933 197.503 313.026 196.596 313.026 195.476V160.139L321.915 197.503H315.053ZM311.026 194.503C311.026 196.16 309.683 197.503 308.026 197.503H288.295C286.638 197.503 285.295 196.16 285.295 194.503V140.017C285.295 138.912 286.19 138.017 287.295 138.017H309.026C310.13 138.017 311.026 138.912 311.026 140.017V194.503ZM277.915 134.015H276.279H274.297H272.662H269.63H267.995H261.753H254.765C253.915 134.015 253.223 133.33 253.223 132.487V130.719V129.093V126.654V125.028V122.046V120.42V117.981V116.355V114.794C253.223 113.952 253.915 113.266 254.765 113.266H261.753H329.625C329.923 113.266 330.212 113.351 330.461 113.51L334.911 116.355L337.455 117.981L344.298 122.357C344.747 122.644 345.004 123.111 345.004 123.641C345.004 124.17 344.747 124.637 344.298 124.924L344.137 125.028L341.593 126.654L332.603 132.402L330.462 133.771C330.211 133.931 329.922 134.015 329.625 134.015H298.717H289.097H287.462H285.479H283.844H277.915ZM283.295 195.476C283.295 196.707 282.197 197.682 280.928 197.476C279.931 197.314 279.241 196.377 279.241 195.367V194.164C279.241 193.611 278.793 193.164 278.241 193.164C277.689 193.164 277.241 193.611 277.241 194.164V195.476C277.241 196.596 276.333 197.503 275.214 197.503H251.582V196.526C251.582 192.756 248.525 189.699 244.754 189.699H243.062L255.834 136.015H278.295C281.056 136.015 283.295 138.254 283.295 141.015V195.476ZM249.582 197.503L237.075 197.553V196.526C237.075 193.864 239.24 191.699 241.901 191.699H244.754C247.416 191.699 249.582 193.864 249.582 196.526V197.503ZM264.043 100.86H266.387H280.295C281.952 100.86 283.295 102.203 283.295 103.86V111.266H261.753H261.739L264.043 100.86ZM311.026 104.86V111.266H285.295V104.86C285.295 102.651 287.086 100.86 289.295 100.86H307.026C309.235 100.86 311.026 102.651 311.026 104.86ZM260.034 98.8601C259.737 98.8601 259.448 98.7751 259.198 98.6161L253.616 95.0471L252.244 94.1701L245.361 89.7691C245.23 89.6851 245.121 89.5821 245.024 89.4711C244.79 89.2001 244.655 88.8601 244.655 88.4851C244.655 88.2561 244.712 88.0421 244.804 87.8451C244.923 87.5881 245.107 87.364 245.361 87.201L255.376 80.798L257.92 79.1721L259.198 78.3551C259.447 78.1951 259.736 78.1111 260.034 78.1111H266.387H334.895C335.745 78.1111 336.436 78.7961 336.436 79.6381V83.7791V85.4051V91.1531V92.7791V95.493V97.1201V97.3321C336.436 98.1741 335.745 98.8601 334.895 98.8601H294.232H291.032H277.89H274.683H266.387H260.034ZM270.673 73.6481L280.587 31.9751C280.832 30.9501 282.29 30.9501 282.533 31.9751L288.629 57.5971C285.497 58.3761 283.295 59.6141 283.295 61.3671V73.1111C283.295 74.7681 281.952 76.1111 280.295 76.1111H272.619C271.327 76.1111 270.374 74.9051 270.673 73.6481ZM298.16 58.5861C306.518 58.5861 311.026 60.5601 311.026 61.3671C311.026 61.6471 309.933 62.645 306.414 63.385C305.912 63.49 305.594 63.9561 305.64 64.4541C305.643 64.4931 305.632 64.5301 305.641 64.5691C305.74 65.0401 306.157 65.3421 306.619 65.3431C306.688 65.3431 306.755 65.3571 306.825 65.3421C307.442 65.2121 307.999 65.0681 308.526 64.9171C309.53 64.6281 310.357 64.3001 311.026 63.9361V72.1091C311.026 73.2141 310.13 74.1091 309.026 74.1091H287.295C286.19 74.1091 285.295 73.2141 285.295 72.1091V63.9281C285.659 64.1281 286.079 64.3091 286.522 64.4821C287.101 64.7061 287.739 64.9081 288.428 65.0861C290.21 65.5471 292.307 65.8531 294.491 66.0131C295.123 66.0591 295.759 66.0931 296.398 66.1141C296.986 66.1351 297.575 66.1491 298.16 66.1491C298.712 66.1491 299.16 65.7011 299.16 65.1491C299.16 65.1161 299.144 65.0891 299.142 65.0581C299.093 64.5501 298.68 64.1491 298.16 64.1491C289.803 64.1491 285.295 62.1741 285.295 61.3671C285.295 60.5601 289.803 58.5861 298.16 58.5861ZM338.072 78.1111H341.248C342.098 78.1111 342.79 78.7961 342.79 79.6381V97.3321C342.79 98.1741 342.098 98.8601 341.248 98.8601H338.072C338.298 98.3961 338.436 97.8821 338.436 97.3321V79.6381C338.436 79.0891 338.298 78.5751 338.072 78.1111ZM336.615 113.266C336.912 113.266 337.201 113.351 337.45 113.51L351.287 122.357C351.735 122.644 351.993 123.111 351.993 123.641C351.993 124.17 351.735 124.637 351.287 124.924L337.45 133.771C337.201 133.931 336.912 134.015 336.615 134.015H333.792L345.375 126.609C346.395 125.958 347.004 124.848 347.004 123.641C347.004 122.434 346.395 121.324 345.375 120.672L333.793 113.266H336.615ZM196.178 197.503H196.048C194.661 197.503 193.695 196.125 194.168 194.821L194.71 193.327C194.898 192.808 194.63 192.234 194.111 192.046C193.594 191.861 193.019 192.127 192.83 192.646L191.547 196.185C191.26 196.976 190.509 197.503 189.666 197.503H186.94C187.3 196.813 187.523 196.041 187.523 195.21V185.78C187.523 185.056 187.911 184.38 188.55 184.04C190.953 182.76 192.893 180.729 194.076 178.267C194.092 178.232 194.109 178.198 194.125 178.164C194.243 177.914 194.353 177.661 194.455 177.403C194.481 177.336 194.503 177.268 194.529 177.2C194.67 176.821 194.793 176.435 194.898 176.04C194.945 175.864 194.995 175.69 195.034 175.512C195.07 175.349 195.098 175.185 195.127 175.021C195.17 174.789 195.205 174.557 195.234 174.322C195.251 174.187 195.269 174.052 195.281 173.916C195.315 173.537 195.339 173.155 195.339 172.77V157.974C195.339 155.765 197.13 153.974 199.339 153.974H205.106C207.37 153.974 209.532 153.556 211.547 152.826L202.015 192.892C201.372 195.595 198.957 197.503 196.178 197.503ZM185.523 183.827V195.21C185.523 196.867 184.18 198.21 182.523 198.21H179.944C178.287 198.21 176.944 196.867 176.944 195.21V185.524C176.944 184.42 176.048 183.524 174.944 183.524H163.027C161.922 183.524 161.027 184.42 161.027 185.524V195.21C161.027 196.867 159.684 198.21 158.027 198.21H155.447C153.791 198.21 152.447 196.867 152.447 195.21V184.524C152.447 183.958 151.979 183.528 151.413 183.524C148.739 183.506 146.57 181.325 146.57 178.647V164.541C146.57 163.989 146.122 163.541 145.57 163.541C145.018 163.541 144.57 163.989 144.57 164.541V178.647C144.57 180.553 145.352 182.277 146.608 183.524H101.123C99.466 183.524 98.123 184.867 98.123 186.524V195.21C98.123 196.867 96.78 198.21 95.123 198.21H92.543C90.887 198.21 89.543 196.867 89.543 195.21V145.847C89.543 136.662 96.99 129.215 106.176 129.215H112.704C113.588 129.215 114.407 129.623 114.995 130.283C116.609 132.096 118.872 133.318 121.415 133.585V134.974C121.415 145.468 129.921 153.974 140.415 153.974H145.57H191.339C192.443 153.974 193.339 154.87 193.339 155.974V172.77C193.339 177.273 190.477 181.33 186.215 182.875C185.807 183.023 185.523 183.393 185.523 183.827ZM162.444 197.503C162.804 196.813 163.027 196.041 163.027 195.21V187.524C163.027 186.42 163.922 185.524 165.027 185.524H172.944C174.048 185.524 174.944 186.42 174.944 187.524V195.21C174.944 196.041 175.167 196.813 175.527 197.503H162.444ZM142.476 193.66L140.541 185.524H148.447C149.552 185.524 150.447 186.42 150.447 187.524V195.21C150.447 196.041 150.67 196.813 151.03 197.503H147.34C145.025 197.503 143.012 195.913 142.476 193.66ZM131.395 197.503C131.754 196.813 131.978 196.041 131.978 195.21V187.524C131.978 186.42 132.873 185.524 133.978 185.524H138.485L141.335 197.503H131.395ZM129.978 195.21C129.978 196.867 128.634 198.21 126.978 198.21H124.398C122.741 198.21 121.398 196.867 121.398 195.21V186.524C121.398 185.972 121.846 185.524 122.398 185.524H128.978C129.53 185.524 129.978 185.972 129.978 186.524V195.21ZM99.54 197.503C99.9 196.813 100.123 196.041 100.123 195.21V188.524C100.123 186.867 101.466 185.524 103.123 185.524H117.398C118.502 185.524 119.398 186.42 119.398 187.524V195.21C119.398 196.041 119.621 196.813 119.981 197.503H99.54ZM114.463 109.241C114.463 104.822 118.045 101.241 122.463 101.241H137.063C137.616 101.241 138.063 100.793 138.063 100.241C138.063 99.6891 137.616 99.2411 137.063 99.2411H132.523H125.955C124.634 99.2411 123.672 97.9811 124.02 96.7071C125.985 89.4941 132.587 84.1741 140.415 84.1741H144.567H159.183C159.194 84.4401 159.232 84.7091 159.334 84.9751C159.598 85.6721 160.105 86.141 160.601 86.562C167.568 92.472 176.404 95.9911 186.154 96.7381C186.699 96.7801 187.252 96.8001 187.81 96.8001C189.896 96.8001 192.05 96.5101 194.127 95.9451C196.906 95.1881 199.391 93.9701 201.312 92.4211C201.742 92.0751 201.809 91.4451 201.462 91.0151C201.454 91.0051 201.441 91.0011 201.433 90.9911C201.082 90.5871 200.476 90.5251 200.057 90.8641C198.349 92.2411 196.117 93.3301 193.602 94.0151C191.187 94.6731 188.665 94.9251 186.307 94.7441C176.98 94.0291 168.539 90.6731 161.895 85.0361C161.585 84.7741 161.299 84.5171 161.204 84.2651C161.04 83.8351 161.428 83.2391 161.894 82.9531C162.504 82.5771 163.309 82.4631 164.161 82.3431L164.368 82.3141C165.594 82.1381 166.829 81.9021 168.037 81.6101C171.565 80.7601 174.954 79.4371 178.111 77.6761C179.061 77.1471 179.997 76.5731 180.901 76.0181C182.645 74.9491 184.292 73.9391 186.087 73.1771C189.426 71.7581 193.472 71.809 196.909 73.312L196.978 73.3431C199.972 74.6631 199.964 78.8821 196.987 80.2411C193.91 81.6461 190.584 82.6441 187.093 83.1861C186.547 83.2711 186.174 83.7821 186.258 84.3281C186.335 84.8221 186.761 85.1741 187.245 85.1741C187.296 85.1741 187.348 85.1701 187.4 85.1631C193.083 84.2801 198.356 82.2431 202.894 79.2521C202.903 79.2551 202.906 79.2561 202.916 79.2591C204.187 82.5011 204.093 85.4191 202.638 87.9261C202.37 88.3861 202.52 88.9651 202.958 89.2551C202.974 89.2661 202.983 89.2831 203 89.2931C203.478 89.5701 204.09 89.4081 204.367 88.9301C204.648 88.4461 204.888 87.9461 205.086 87.4331C205.854 85.4431 207.939 84.2951 209.982 84.9081C216.986 87.0051 222.106 93.4961 222.106 101.174V102.774C222.106 103.878 221.21 104.774 220.106 104.774H205.154C204.602 104.774 204.154 105.222 204.154 105.774C204.154 106.326 204.602 106.774 205.154 106.774H223.6C227.024 106.774 229.8 109.55 229.8 112.974V120.774C229.8 130.163 222.188 137.774 212.8 137.774H196.153H193.6C184.211 137.774 176.6 130.163 176.6 120.774V112.974C176.6 109.55 179.375 106.774 182.8 106.774H187.565H193.6C194.152 106.774 194.6 106.326 194.6 105.774C194.6 105.222 194.152 104.774 193.6 104.774H182.8C178.271 104.774 174.6 108.445 174.6 112.974V120.774C174.6 131.268 183.106 139.774 193.6 139.774H212.8C215.387 139.774 217.853 139.253 220.103 138.312C220.895 137.98 221.698 138.689 221.468 139.516C219.477 146.69 212.905 151.974 205.106 151.974H144.568H140.415C135.34 151.974 130.785 149.751 127.67 146.226C123.676 141.705 126.441 134.525 132.409 133.642L132.415 133.641H137.063C137.616 133.641 138.063 133.193 138.063 132.641C138.063 132.088 137.616 131.641 137.063 131.641H122.463C118.045 131.641 114.463 128.059 114.463 123.641V109.241ZM63.501 197.503H63.276V190.503V180.503V174.523V161.322C63.42 161.367 63.56 161.421 63.707 161.46C64.524 161.674 65.353 161.777 66.176 161.777H66.246C69.166 161.756 71.386 164.36 70.71 167.201L63.501 197.503ZM59.145 155.37C58.142 153.31 58.088 150.921 58.997 148.818C60.237 145.949 63.102 144.083 66.207 144.083C66.331 144.083 66.456 144.086 66.58 144.092L79.487 144.715H79.488C79.895 144.734 80.077 145.021 80.137 145.143C80.196 145.265 80.309 145.585 80.074 145.918L72.609 156.466C70.732 159.12 67.356 160.348 64.214 159.525C61.997 158.945 60.149 157.43 59.145 155.37ZM44.479 197.503H36.63C35.338 197.503 34.386 196.297 34.685 195.04L39.582 174.457C39.826 173.432 41.284 173.432 41.527 174.457L46.425 195.04C46.724 196.297 45.771 197.503 44.479 197.503ZM43.757 127.4C43.367 127.01 42.734 127.01 42.344 127.401C41.953 127.792 41.954 128.425 42.344 128.815C45.945 132.417 49.062 136.372 51.677 140.598C52.107 141.294 51.99 142.199 51.412 142.778L51.4 142.791C44.908 149.282 34.344 149.283 27.852 142.791C22.465 137.404 20.516 118.953 19.986 112.45C19.936 111.834 20.444 111.327 21.059 111.377C27.562 111.905 46.011 113.854 51.4 119.242C56.18 124.022 57.434 131.006 55.173 136.949C54.645 138.34 52.763 138.539 51.929 137.305C49.553 133.787 46.826 130.469 43.757 127.4ZM58.19 90.9181C57.387 92.2261 55.493 92.2051 54.739 90.8671C51.792 85.633 48.121 80.7641 43.757 76.4001C43.367 76.0101 42.734 76.0101 42.344 76.4011C41.953 76.7921 41.954 77.4251 42.344 77.8151C45.757 81.2281 48.734 84.959 51.257 88.937C53.603 92.635 51.374 97.5011 47.041 98.1381C42.014 98.8761 36.714 97.3191 32.852 93.4571C29.385 89.9901 27.342 81.113 26.185 73.4921C25.273 67.4891 30.458 62.334 36.461 63.246C44.076 64.403 53.103 66.2861 56.4 69.909C64.057 78.3271 60.757 86.7401 58.19 90.9181ZM72.061 87.6371C77.147 82.5511 93.882 80.5291 101.208 79.8741C102.449 79.7631 103.484 80.7981 103.373 82.0401C102.718 89.3651 100.696 106.099 95.61 111.185C92.465 114.33 88.283 116.062 83.836 116.062C80.921 116.062 78.124 115.313 75.657 113.911C73.672 112.783 73.104 110.145 74.388 108.258C76.487 105.172 78.867 102.248 81.518 99.5171C81.898 99.1251 81.899 98.504 81.513 98.118C81.118 97.724 80.471 97.7251 80.082 98.1251C78.121 100.147 76.304 102.272 74.635 104.488C72.599 107.19 68.274 106.232 67.565 102.923C66.42 97.581 67.918 91.7801 72.061 87.6371ZM354.89 166.062C353.319 163.853 351.576 161.745 349.662 159.759C349.274 159.357 348.624 159.357 348.229 159.752V159.753C347.844 160.138 347.846 160.756 348.224 161.149C349.888 162.875 351.88 166.118 353.263 168.544C354.384 170.508 353.658 173.021 351.65 174.064C346.579 176.699 340.168 175.891 335.918 171.641C331.935 167.658 330.263 154.806 329.67 148.534C329.552 147.283 330.596 146.239 331.847 146.357C338.119 146.948 350.969 148.619 354.954 152.604C358.442 156.092 359.603 161.031 358.451 165.493C358.031 167.12 355.864 167.431 354.89 166.062ZM368.915 135.341C368.99 131.182 370.61 127.047 373.778 123.879C378.863 118.794 395.592 116.772 402.919 116.117C404.163 116.005 405.2 117.042 405.088 118.286C404.434 125.613 402.413 142.34 397.326 147.428C392.314 152.439 384.881 153.577 378.765 150.851C375.852 149.552 374.837 145.93 376.689 143.333C378.584 140.675 380.693 138.144 383.007 135.76C383.388 135.368 383.389 134.747 383.002 134.361C382.607 133.967 381.96 133.967 381.572 134.367C380.236 135.744 378.968 137.169 377.769 138.638C374.768 142.311 368.83 140.083 368.915 135.341ZM368.339 159.51C370.005 154.724 375.156 151.93 379.992 153.445C381.798 154.011 383.674 154.296 385.552 154.296C390.328 154.296 395.104 152.478 398.74 148.842C405.823 141.759 407.293 115.999 407.352 114.906C407.367 114.622 407.261 114.345 407.061 114.145C406.86 113.943 406.579 113.84 406.299 113.853C405.207 113.912 379.446 115.383 372.364 122.465C366.572 128.257 365.405 136.935 368.844 143.901C370.177 146.603 370.343 149.73 369.06 152.456C364.946 161.201 362.767 170.813 362.767 180.765V182.253C361.784 178.905 360.478 175.67 358.871 172.577C358.39 171.652 358.414 170.561 358.922 169.65C362.206 163.767 361.362 156.185 356.368 151.19C350.517 145.339 329.346 144.131 328.448 144.082C328.168 144.069 327.888 144.173 327.687 144.374C327.486 144.574 327.38 144.851 327.395 145.135C327.444 146.033 328.653 167.204 334.504 173.055C337.518 176.069 341.477 177.576 345.436 177.576C348.288 177.576 351.139 176.794 353.637 175.231C355.172 174.27 357.199 174.938 357.882 176.614C359.635 180.912 362.335 188.155 362.767 192.923V194.893C362.767 196.334 361.598 197.503 360.157 197.503H358.244C358.244 197.489 358.248 197.476 358.248 197.462C358.248 193.723 355.206 190.68 351.466 190.68H343.353C342.038 189.529 340.322 188.826 338.441 188.826H335.27C331.139 188.826 327.791 192.175 327.791 196.305V197.446C327.791 197.466 327.796 197.483 327.797 197.503H327.794C325.553 197.503 323.605 195.964 323.086 193.783L314.384 157.206C313.481 153.415 313.026 149.53 313.026 145.633V141.015C313.026 138.254 315.265 136.015 318.026 136.015H336.615C337.292 136.015 337.956 135.821 338.527 135.456L352.262 126.675C353.057 126.168 353.68 125.395 353.894 124.477C354.249 122.963 353.617 121.472 352.364 120.672L338.528 111.825C337.957 111.46 337.293 111.266 336.616 111.266H330.686C330.709 111.277 330.489 111.289 330.123 111.301C329.958 111.278 329.792 111.266 329.625 111.266H313.026V103.86C313.026 102.203 314.369 100.86 316.026 100.86H334.895C334.921 100.86 334.946 100.855 334.973 100.854C335.257 100.858 335.593 100.86 336.004 100.86H341.248C343.196 100.86 344.79 99.2661 344.79 97.3181V79.6381C344.79 77.6901 343.21 76.1111 341.262 76.1111H336.005C335.593 76.1111 335.259 76.1131 334.98 76.1171C334.952 76.1161 334.924 76.1111 334.895 76.1111H316.026C314.369 76.1111 313.026 74.7681 313.026 73.1111V61.3671C313.026 58.0821 305.32 56.5861 298.16 56.5861C297.298 56.5861 296.428 56.6071 295.565 56.6521C292.659 56.8011 290.045 54.907 289.371 52.076L282.533 23.3351C282.426 22.8841 282.023 22.5661 281.561 22.5661C281.098 22.5661 280.695 22.8841 280.588 23.3351L268.944 72.2761C268.513 74.0901 267.129 75.5861 265.31 75.9911C262.656 76.5811 260.149 74.9331 259.543 72.4251L245.981 16.2711C245.874 15.8201 245.472 15.5031 245.009 15.5031C244.546 15.5031 244.143 15.8201 244.036 16.2711L226.404 90.3791C226.276 90.9171 226.608 91.4561 227.145 91.5841C227.682 91.7131 228.222 91.3791 228.35 90.8421L242.09 33.0891C242.822 30.0161 247.196 30.0161 247.927 33.0891L258.271 76.5681L258.154 76.6511C258.144 76.6581 258.131 76.6631 258.121 76.6701L244.387 85.4501C243.593 85.9581 242.97 86.7291 242.754 87.6471C242.398 89.1601 243.031 90.6531 244.284 91.4541L258.121 100.301C258.138 100.312 258.157 100.317 258.172 100.333C258.583 100.756 259.228 100.859 259.818 100.859L261.988 100.86L260.378 108.131C259.973 109.962 258.349 111.266 256.473 111.266H254.765C254.088 111.266 253.462 111.466 252.924 111.795C251.908 112.416 251.223 113.523 251.223 114.794V132.487C251.223 134.103 252.324 135.453 253.813 135.87L240.991 189.768C237.657 190.215 235.075 193.071 235.075 196.526V197.503H202.973L213.84 151.83C219.628 148.818 223.664 142.918 224.051 136.049C228.74 132.586 231.8 127.037 231.8 120.774V112.974C231.8 108.624 228.391 105.064 224.106 104.8V104.36V101.174C224.106 91.7951 217.27 83.9991 208.321 82.4681C206.864 82.2191 205.629 81.1961 205.209 79.7781C205.134 79.5221 205.049 79.2641 204.957 79.0051C204.843 78.6901 204.707 78.3861 204.569 78.0831C206.897 76.3531 209.004 74.3581 210.833 72.1191C211.182 71.6911 211.118 71.0611 210.69 70.7111C210.263 70.3621 209.632 70.426 209.283 70.854C208.511 71.799 207.687 72.7001 206.814 73.5521C205.325 75.0071 202.944 75.1811 201.382 73.8041C200.321 72.8681 199.088 72.0831 197.71 71.4801C193.779 69.7601 189.141 69.7061 185.305 71.3361C183.374 72.1561 181.585 73.2531 179.856 74.3131C178.957 74.8651 178.057 75.4171 177.137 75.9291C174.139 77.6021 170.919 78.8591 167.568 79.6661C166.421 79.9431 165.249 80.1681 164.084 80.3341L163.881 80.3631C162.911 80.5001 161.811 80.6551 160.845 81.2501C160.473 81.4791 160.132 81.8011 159.851 82.1741H140.415C130.574 82.1741 122.46 89.6941 121.51 99.2891C121.022 99.3361 120.548 99.4251 120.083 99.5391L111.846 64.9171C111.717 64.3791 111.177 64.0471 110.642 64.1751C110.104 64.3031 109.772 64.8421 109.9 65.3791L118.188 100.214C114.81 101.821 112.463 105.257 112.463 109.241V123.641C112.463 123.795 112.467 123.949 112.474 124.101C112.555 125.801 111.186 127.215 109.483 127.215H106.176C95.885 127.215 87.543 135.557 87.543 145.847V195.21C87.543 196.041 87.767 196.813 88.126 197.503H65.557L75.254 156.742C75.385 156.194 75.619 155.676 75.945 155.215L81.626 147.187C82.087 146.535 82.323 145.722 82.163 144.94C81.902 143.662 80.823 142.777 79.584 142.717L77.586 142.62L66.677 142.094C66.306 142.077 65.937 142.081 65.573 142.106C64.358 142.189 63.369 141.167 63.453 139.952C64.111 130.471 66.81 121.395 71.342 113.229C73.133 114.852 75.185 116.092 77.4 116.908C80.195 117.936 81.709 120.973 81.02 123.871L78.582 134.118C78.454 134.655 78.786 135.195 79.323 135.322C79.4 135.341 79.478 135.35 79.555 135.35C80.008 135.35 80.418 135.041 80.527 134.581L84.464 118.031C89.209 117.875 93.651 115.973 97.024 112.599C104.106 105.517 105.577 79.7561 105.636 78.6641C105.651 78.3801 105.545 78.1031 105.345 77.9021C105.144 77.7011 104.869 77.5921 104.583 77.6111C104.136 77.6351 99.561 77.8961 93.827 78.6801L102.473 42.3391C102.717 41.3151 104.175 41.3151 104.418 42.3391L105.666 47.579C105.793 48.116 106.332 48.4481 106.869 48.3201C107.406 48.1931 107.739 47.6531 107.611 47.1161L104.418 33.6991C104.312 33.2481 103.909 32.9301 103.446 32.9301C102.983 32.9301 102.58 33.2481 102.473 33.6991L93.208 72.6411C92.315 76.3961 89.338 79.2961 85.562 80.1021C79.447 81.4081 73.516 83.3551 70.647 86.2231C63.648 93.2231 63.406 104.435 69.881 111.751C66.952 116.919 64.722 122.442 63.276 128.212V123.523C63.276 116.106 60.175 103.597 58.645 97.8821C58.172 96.1111 58.546 94.2321 59.636 92.7561C65.024 85.462 64.417 75.0991 57.814 68.4951C50.731 61.4131 24.971 59.942 23.878 59.883C23.592 59.866 23.317 59.974 23.117 60.174C22.916 60.375 22.81 60.6521 22.825 60.9361C22.884 62.0281 24.355 87.7891 31.437 94.8711C35.074 98.5071 39.849 100.325 44.625 100.325C46.881 100.325 49.134 99.9121 51.267 99.0951C53.829 98.1131 56.729 99.4961 57.638 102.085C60.026 108.882 61.276 116.105 61.276 123.523V142.343C61.276 142.974 60.983 143.574 60.47 143.941C60.061 144.233 59.673 144.557 59.311 144.908C58.327 145.866 56.724 145.639 56.102 144.413C55.938 144.092 55.773 143.772 55.604 143.454C55.111 142.521 55.125 141.407 55.663 140.499C59.892 133.348 58.953 123.967 52.814 117.828C45.731 110.746 19.971 109.275 18.878 109.216C18.595 109.204 18.318 109.306 18.117 109.507C17.916 109.708 17.81 109.985 17.825 110.269C17.884 111.361 19.355 137.122 26.437 144.205C30.074 147.841 34.849 149.659 39.625 149.659C44.401 149.659 49.178 147.84 52.814 144.205C53.021 143.997 53.202 143.774 53.398 143.559C54.474 145.524 55.447 147.54 56.309 149.603C56.451 149.942 56.482 150.313 56.435 150.676C56.192 152.563 56.496 154.498 57.348 156.246C57.868 157.315 58.577 158.257 59.417 159.057C60.64 164.059 61.276 169.242 61.276 174.523V180.503V190.503V197.503H60.754C59.788 197.503 58.959 196.812 58.787 195.859L58.233 192.808C58.135 192.265 57.613 191.904 57.071 192.002C56.528 192.101 56.167 192.621 56.266 193.165L56.624 195.147C56.847 196.374 55.904 197.503 54.657 197.503H52.226C50.374 197.503 48.764 196.231 48.334 194.429L41.527 165.816C41.42 165.365 41.018 165.047 40.555 165.047C40.092 165.047 39.689 165.365 39.582 165.816L32.774 194.429C32.346 196.231 30.736 197.503 28.883 197.503H25.792C25.124 197.503 24.583 196.961 24.583 196.293V195.826C24.583 195.274 24.135 194.826 23.583 194.826C23.031 194.826 22.583 195.274 22.583 195.826V196.293C22.583 196.961 22.041 197.503 21.373 197.503C20.705 197.503 20.164 196.961 20.164 196.293V192.986C20.164 192.434 19.716 191.986 19.164 191.986C18.611 191.986 18.164 192.434 18.164 192.986V196.293C18.164 196.961 17.622 197.503 16.954 197.503H0.999023C0.447023 197.503 -0.000976562 197.95 -0.000976562 198.503C-0.000976562 199.056 0.447023 199.503 0.999023 199.503H64.291H288.31H323.181H329.847H338.531H343.864H356.207H388.816C389.369 199.503 389.816 199.056 389.816 198.503C389.816 197.95 389.369 197.503 388.816 197.503H376.549C375.76 197.503 375.175 196.769 375.353 196L375.724 194.389C375.848 193.851 375.512 193.314 374.974 193.19C374.438 193.067 373.899 193.4 373.775 193.94L373.173 196.551C373.044 197.108 372.548 197.503 371.977 197.503C371.299 197.503 370.749 196.953 370.749 196.275V192.982C370.749 192.429 370.302 191.982 369.749 191.982C369.197 191.982 368.749 192.429 368.749 192.982V196.275C368.749 196.953 368.2 197.503 367.522 197.503H367.519C366.126 197.503 364.988 196.408 364.917 195.017C364.88 194.295 364.83 193.576 364.767 192.86V180.765C364.767 173.414 365.993 166.253 368.339 159.51ZM394.979 197.503H393.345C392.793 197.503 392.345 197.95 392.345 198.503C392.345 199.056 392.793 199.503 393.345 199.503H394.979C395.531 199.503 395.979 199.056 395.979 198.503C395.979 197.95 395.531 197.503 394.979 197.503Z" fill="#202225"/>
<path fill-rule="evenodd" clip-rule="evenodd" d="M145.435 50.8511C144.909 49.5711 146.517 48.5031 147.573 49.3981C151.567 52.7871 155.908 53.6681 156.178 53.7191C156.24 53.7311 156.303 53.7361 156.365 53.7361C156.835 53.7361 157.253 53.4031 157.345 52.9241C157.449 52.3821 157.093 51.8591 156.552 51.7541C156.486 51.7421 151.619 50.7511 147.723 46.7991C147.06 46.1271 147.288 44.9641 148.169 44.6251C148.216 44.6071 148.264 44.5891 148.312 44.5731C148.878 44.3751 149.507 44.2791 150.167 44.2791C151.505 44.2791 152.971 44.6761 154.295 45.4311C156.525 46.7031 157.915 48.6431 159.387 50.6971C160.013 51.5711 160.661 52.4741 161.389 53.3471L161.508 53.4921C161.899 53.9661 162.815 55.0771 163.632 55.8381C159.654 57.0491 155.044 56.7791 150.651 55.0801C148.07 54.0811 146.182 52.5701 145.47 50.9341C145.458 50.9061 145.447 50.8781 145.435 50.8511ZM142.975 41.0341C142.464 41.2421 142.218 41.8261 142.427 42.3371C142.921 43.5481 143.512 44.6301 144.162 45.6041C143.98 45.9191 143.811 46.2471 143.669 46.6001C142.949 48.3981 142.937 50.1241 143.636 51.7311C144.9 54.6381 148.122 56.2451 149.93 56.9451C152.743 58.0341 155.647 58.5841 158.456 58.5841C160.446 58.5841 162.389 58.3081 164.215 57.7511C164.869 57.5521 165.364 57.0401 165.538 56.3821C165.711 55.7281 165.536 55.0431 165.07 54.5511C164.315 53.7521 163.397 52.6391 163.051 52.2191L162.925 52.0671C162.244 51.2511 161.618 50.3771 161.013 49.5321C159.48 47.3931 157.896 45.1821 155.286 43.6931C152.785 42.2661 149.931 41.8901 147.653 42.6841C146.839 42.9681 146.122 43.3991 145.501 43.9511C145.051 43.2221 144.631 42.4451 144.279 41.5811C144.07 41.0701 143.488 40.8221 142.975 41.0341ZM210.494 16.2471C210.505 16.2431 210.513 16.2341 210.523 16.2291C211.022 16.0331 211.284 15.4801 211.103 14.9711C209.533 10.5291 209.4 5.91314 210.642 1.98614C211.463 2.81014 212.546 3.75814 213.008 4.16314L213.152 4.28914C214.003 5.04214 214.887 5.71614 215.741 6.36714C217.751 7.89914 219.65 9.34614 220.856 11.6141C221.924 13.6221 222.185 15.9241 221.537 17.6201L221.528 17.6431C221.162 18.5921 219.941 18.8081 219.24 18.0721C217.667 16.4231 216.604 14.6461 215.916 13.1481C215.685 12.6461 215.091 12.4261 214.59 12.6571C214.088 12.8881 213.868 13.4811 214.098 13.9831C214.796 15.5011 215.828 17.2821 217.33 18.9781C217.919 19.6441 217.449 20.7251 216.562 20.6621C215.83 20.6091 215.14 20.3631 214.479 19.9231C214.043 19.6321 213.473 19.7391 213.152 20.1401C213.134 20.1631 213.108 20.1761 213.092 20.2001C212.786 20.6601 212.91 21.2801 213.369 21.5871C214.447 22.3051 215.631 22.6671 216.873 22.6661C217.686 22.6661 218.524 22.5121 219.373 22.2001C219.733 22.0681 220.068 21.9071 220.39 21.7331C221.342 22.4141 222.403 23.0391 223.598 23.5681C223.729 23.6261 223.867 23.6541 224.002 23.6541C224.386 23.6541 224.751 23.4321 224.917 23.0591C225.14 22.5541 224.912 21.9631 224.407 21.7391C223.552 21.3611 222.794 20.9141 222.078 20.4431C222.646 19.8401 223.098 19.1371 223.405 18.3331C224.266 16.0801 223.974 13.2171 222.621 10.6741C221.21 8.02114 219.046 6.37214 216.953 4.77614C216.127 4.14714 215.274 3.49714 214.478 2.79214L214.326 2.65814C213.917 2.30014 212.832 1.35014 212.058 0.574137C211.579 0.094137 210.902 -0.103863 210.242 0.053137C209.579 0.207137 209.053 0.686137 208.834 1.33414C207.363 5.69614 207.499 10.7761 209.218 15.6381C209.402 16.1581 209.971 16.4331 210.494 16.2471ZM138.553 22.6705H140.063V24.1805C140.063 24.7325 140.511 25.1805 141.063 25.1805C141.616 25.1805 142.063 24.7325 142.063 24.1805V22.6705H143.573C144.125 22.6705 144.573 22.2225 144.573 21.6705C144.573 21.1185 144.125 20.6705 143.573 20.6705H142.063V19.1605C142.063 18.6085 141.616 18.1605 141.063 18.1605C140.511 18.1605 140.063 18.6085 140.063 19.1605V20.6705H138.553C138.001 20.6705 137.553 21.1185 137.553 21.6705C137.553 22.2225 138.001 22.6705 138.553 22.6705ZM204.224 53.7364H205.734V55.2464C205.734 55.7984 206.182 56.2464 206.734 56.2464C207.287 56.2464 207.734 55.7984 207.734 55.2464V53.7364H209.244C209.796 53.7364 210.244 53.2884 210.244 52.7364C210.244 52.1844 209.796 51.7364 209.244 51.7364H207.734V50.2264C207.734 49.6744 207.287 49.2264 206.734 49.2264C206.182 49.2264 205.734 49.6744 205.734 50.2264V51.7364H204.224C203.672 51.7364 203.224 52.1844 203.224 52.7364C203.224 53.2884 203.672 53.7364 204.224 53.7364ZM347.668 34.9312H349.178V36.4412C349.178 36.9932 349.626 37.4412 350.178 37.4412C350.73 37.4412 351.178 36.9932 351.178 36.4412V34.9312H352.688C353.24 34.9312 353.688 34.4832 353.688 33.9312C353.688 33.3792 353.24 32.9312 352.688 32.9312H351.178V31.4212C351.178 30.8692 350.73 30.4212 350.178 30.4212C349.626 30.4212 349.178 30.8692 349.178 31.4212V32.9312H347.668C347.116 32.9312 346.668 33.3792 346.668 33.9312C346.668 34.4832 347.116 34.9312 347.668 34.9312ZM182.884 26.3638C183.14 26.3638 183.396 26.2658 183.591 26.0708L184.774 24.8868C185.165 24.4968 185.165 23.8638 184.774 23.4728C184.384 23.0828 183.75 23.0828 183.36 23.4728L182.177 24.6568C181.786 25.0478 181.786 25.6808 182.177 26.0708C182.372 26.2658 182.628 26.3638 182.884 26.3638ZM176.967 32.2799C177.223 32.2799 177.479 32.1819 177.674 31.9869L178.858 30.8039C179.248 30.4139 179.248 29.7799 178.858 29.3899C178.467 28.9989 177.834 28.9989 177.444 29.3899L176.26 30.5729C175.869 30.9629 175.869 31.5959 176.26 31.9869C176.455 32.1819 176.711 32.2799 176.967 32.2799ZM183.36 31.9869C183.555 32.1819 183.811 32.2799 184.067 32.2799C184.323 32.2799 184.579 32.1819 184.774 31.9869C185.165 31.5959 185.165 30.9639 184.774 30.5729L183.591 29.3899C183.2 28.9989 182.568 28.9989 182.177 29.3899C181.786 29.7799 181.786 30.4129 182.177 30.8039L183.36 31.9869ZM177.444 26.0709C177.639 26.2659 177.895 26.3639 178.151 26.3639C178.407 26.3639 178.663 26.2659 178.858 26.0709C179.249 25.6799 179.249 25.0479 178.858 24.6569L177.674 23.4729C177.284 23.0829 176.651 23.0829 176.26 23.4729C175.87 23.8639 175.87 24.4969 176.26 24.8869L177.444 26.0709ZM161.798 120.441C164.273 120.441 166.298 118.416 166.298 115.941C166.298 113.466 164.273 111.441 161.798 111.441C159.323 111.441 157.298 113.466 157.298 115.941C157.298 118.416 159.323 120.441 161.798 120.441Z" fill="#202225"/>
</g>
<defs>
<clipPath id="clip0_206_86">
<rect width="415" height="200" fill="white"/>
</clipPath>
</defs>
</svg>
